G04*
G04 #@! TF.GenerationSoftware,Altium Limited,Altium Designer,19.1.7 (138)*
G04*
G04 Layer_Color=32768*
%FSLAX44Y44*%
%MOMM*%
G71*
G01*
G75*
%ADD37C,0.1000*%
%ADD38C,0.0500*%
D37*
X1028526Y889254D02*
X1038526D01*
X1033526Y884254D02*
Y894254D01*
X1037216Y770078D02*
Y780078D01*
X1032216Y775078D02*
X1042216D01*
X1092454Y777066D02*
Y787066D01*
X1087454Y782066D02*
X1097454D01*
X1115870Y768938D02*
X1121870D01*
X1118870Y765938D02*
Y771938D01*
X1124870Y757358D02*
Y780368D01*
X1112870Y757358D02*
Y780368D01*
X1124870D01*
X1112870Y757358D02*
X1124870D01*
X1095804Y814070D02*
X1101804D01*
X1098804Y811070D02*
Y817070D01*
X1092804Y802640D02*
Y825650D01*
X1104804Y802640D02*
Y825650D01*
X1092804Y802640D02*
X1104804D01*
X1092804Y825650D02*
X1104804D01*
X1112870Y804140D02*
X1124870D01*
X1112870Y781130D02*
X1124870D01*
Y804140D01*
X1112870Y781130D02*
Y804140D01*
X1118870Y789560D02*
Y795560D01*
X1115870Y792560D02*
X1121870D01*
X1056386Y824564D02*
Y834564D01*
X1051386Y829564D02*
X1061386D01*
X1012294Y722726D02*
Y734726D01*
X1035304Y722726D02*
Y734726D01*
X1012294D02*
X1035304D01*
X1012294Y722726D02*
X1035304D01*
X1020874Y728726D02*
X1026874D01*
X1023874Y725726D02*
Y731726D01*
X1011786Y823818D02*
Y835818D01*
X1034796Y823818D02*
Y835818D01*
X1011786D02*
X1034796D01*
X1011786Y823818D02*
X1034796D01*
X1020366Y829818D02*
X1026366D01*
X1023366Y826818D02*
Y832818D01*
X1023112Y814880D02*
Y820880D01*
X1020112Y817880D02*
X1026112D01*
X1011532Y811880D02*
X1034542D01*
X1011532Y823880D02*
X1034542D01*
Y811880D02*
Y823880D01*
X1011532Y811880D02*
Y823880D01*
X1080818Y814070D02*
X1086818D01*
X1083818Y811070D02*
Y817070D01*
X1089818Y802490D02*
Y825500D01*
X1077818Y802490D02*
Y825500D01*
X1089818D01*
X1077818Y802490D02*
X1089818D01*
D38*
X1064026Y850254D02*
Y928254D01*
X1003026D02*
X1064026D01*
X1003026Y850254D02*
Y928254D01*
Y850254D02*
X1064026D01*
X1008216Y746078D02*
X1066216D01*
X1008216Y804078D02*
X1066216D01*
X1008216Y746078D02*
Y804078D01*
X1066216Y746078D02*
Y804078D01*
X1072454Y762066D02*
X1112454D01*
X1072454Y802066D02*
X1112454D01*
X1072454Y762066D02*
Y802066D01*
X1112454Y762066D02*
Y802066D01*
X1035136Y847564D02*
X1077636D01*
X1035136Y811564D02*
X1077636D01*
X1035136D02*
Y847564D01*
X1077636Y811564D02*
Y847564D01*
M02*
