G04*
G04 #@! TF.GenerationSoftware,Altium Limited,Altium Designer,19.1.7 (138)*
G04*
G04 Layer_Color=65535*
%FSLAX44Y44*%
%MOMM*%
G71*
G01*
G75*
%ADD10C,0.2500*%
%ADD11C,0.2000*%
%ADD12C,0.1020*%
%ADD13C,0.0508*%
%ADD14C,0.0762*%
D10*
X1044936Y846974D02*
G03*
X1044936Y846974I-1250J0D01*
G01*
X1012966Y741578D02*
G03*
X1012966Y741578I-1250J0D01*
G01*
X1078204Y758566D02*
G03*
X1078204Y758566I-1250J0D01*
G01*
X1071386Y811564D02*
G03*
X1071386Y811564I-1250J0D01*
G01*
D11*
X1004026Y851254D02*
X1014026D01*
X1004024Y851251D02*
Y927251D01*
X1004026Y927254D02*
X1063027D01*
X1053026Y851254D02*
X1063027D01*
Y927254D01*
X1097136Y826914D02*
Y908414D01*
X1079136Y826914D02*
X1097136D01*
X1079136Y908414D02*
X1097136D01*
X1079136Y826914D02*
Y908414D01*
X1010216Y748078D02*
X1014466D01*
X1010216D02*
Y752328D01*
Y797828D02*
Y802078D01*
X1014466D01*
X1059966D02*
X1064216D01*
Y797828D02*
Y802078D01*
X1059966Y748078D02*
X1064216D01*
Y752328D01*
X981600Y727092D02*
Y833992D01*
Y727092D02*
X999600D01*
Y833992D01*
X981600D02*
X999600D01*
X1075454Y765066D02*
X1077454D01*
X1075454D02*
Y767066D01*
Y797066D02*
Y799066D01*
X1077454D01*
X1107454D02*
X1109454D01*
Y797066D02*
Y799066D01*
X1107454Y765066D02*
X1109454D01*
Y767066D01*
X981600Y838598D02*
Y894698D01*
X999600D01*
Y838598D02*
Y894698D01*
X981600Y838598D02*
X999600D01*
X1038750Y721504D02*
X1069450D01*
Y739504D01*
X1038750D02*
X1069450D01*
X1038750Y721504D02*
Y739504D01*
X1051886Y814064D02*
Y845064D01*
X1060886Y814064D02*
Y845064D01*
X1051886D02*
X1060886D01*
X1051886Y814064D02*
X1060886D01*
D12*
X1073408Y726952D02*
Y730761D01*
X1075312D01*
X1075947Y730126D01*
Y728856D01*
X1075312Y728222D01*
X1073408D01*
X1074678D02*
X1075947Y726952D01*
X1077217Y730761D02*
X1079756Y726952D01*
Y730761D02*
X1077217Y726952D01*
X1084834Y730761D02*
X1087374D01*
X1086104D01*
Y726952D01*
X1088643Y730761D02*
X1091182Y726952D01*
Y730761D02*
X1088643Y726952D01*
X1007106Y727968D02*
X1004567D01*
Y729872D01*
X1005202Y730507D01*
X1007106D01*
Y731777D02*
X1003297D01*
Y733681D01*
X1003932Y734316D01*
X1005202D01*
X1005836Y733681D01*
Y731777D01*
Y733046D02*
X1007106Y734316D01*
X1003297Y738125D02*
Y735585D01*
X1005202D01*
Y736855D01*
Y735585D01*
X1007106D01*
X1089784Y812041D02*
X1089149Y811406D01*
Y810137D01*
X1089784Y809502D01*
X1092323D01*
X1092958Y810137D01*
Y811406D01*
X1092323Y812041D01*
X1092958Y813311D02*
Y814580D01*
Y813945D01*
X1089149D01*
X1089784Y813311D01*
X1092958Y818389D02*
X1089149D01*
X1091054Y816485D01*
Y819024D01*
X1124582Y790959D02*
X1123947Y790324D01*
Y789055D01*
X1124582Y788420D01*
X1127121D01*
X1127756Y789055D01*
Y790324D01*
X1127121Y790959D01*
X1127756Y792229D02*
Y793498D01*
Y792863D01*
X1123947D01*
X1124582Y792229D01*
X1127756Y795403D02*
Y796672D01*
Y796038D01*
X1123947D01*
X1124582Y795403D01*
X984000Y902719D02*
X985270D01*
X984635D01*
Y898910D01*
X984000D01*
X985270D01*
X989713D02*
X987174D01*
X989713Y901449D01*
Y902084D01*
X989078Y902719D01*
X987809D01*
X987174Y902084D01*
X993522D02*
X992887Y902719D01*
X991618D01*
X990983Y902084D01*
Y899545D01*
X991618Y898910D01*
X992887D01*
X993522Y899545D01*
X1124582Y766575D02*
X1123947Y765940D01*
Y764671D01*
X1124582Y764036D01*
X1127121D01*
X1127756Y764671D01*
Y765940D01*
X1127121Y766575D01*
X1127756Y767845D02*
Y769114D01*
Y768480D01*
X1123947D01*
X1124582Y767845D01*
Y771019D02*
X1123947Y771654D01*
Y772923D01*
X1124582Y773558D01*
X1125217D01*
X1125852Y772923D01*
Y772288D01*
Y772923D01*
X1126486Y773558D01*
X1127121D01*
X1127756Y772923D01*
Y771654D01*
X1127121Y771019D01*
X1007996Y815851D02*
X1007361Y815216D01*
Y813947D01*
X1007996Y813312D01*
X1010535D01*
X1011170Y813947D01*
Y815216D01*
X1010535Y815851D01*
X1011170Y817121D02*
Y818390D01*
Y817756D01*
X1007361D01*
X1007996Y817121D01*
X1007361Y822834D02*
Y820295D01*
X1009266D01*
X1008631Y821564D01*
Y822199D01*
X1009266Y822834D01*
X1010535D01*
X1011170Y822199D01*
Y820929D01*
X1010535Y820295D01*
X1065534Y905260D02*
Y909069D01*
X1067438D01*
X1068073Y908434D01*
Y907164D01*
X1067438Y906530D01*
X1065534D01*
X1069343Y909069D02*
Y905260D01*
X1070612Y906530D01*
X1071882Y905260D01*
Y909069D01*
X1073151Y905260D02*
Y909069D01*
X1075056D01*
X1075691Y908434D01*
Y907164D01*
X1075056Y906530D01*
X1073151D01*
X1074421D02*
X1075691Y905260D01*
X1101468Y830583D02*
X1100833Y829948D01*
Y828679D01*
X1101468Y828044D01*
X1102103D01*
X1102738Y828679D01*
Y829948D01*
X1103372Y830583D01*
X1104007D01*
X1104642Y829948D01*
Y828679D01*
X1104007Y828044D01*
X1104642Y831853D02*
X1100833D01*
Y833757D01*
X1101468Y834392D01*
X1102738D01*
X1103372Y833757D01*
Y831853D01*
X1100833Y835661D02*
Y836931D01*
Y836296D01*
X1104642D01*
Y835661D01*
Y836931D01*
X1023115Y739524D02*
X1022480Y740159D01*
X1021211D01*
X1020576Y739524D01*
Y736985D01*
X1021211Y736350D01*
X1022480D01*
X1023115Y736985D01*
X1024385Y736350D02*
X1025654D01*
X1025020D01*
Y740159D01*
X1024385Y739524D01*
X1104516Y811787D02*
X1103881Y811152D01*
Y809883D01*
X1104516Y809248D01*
X1107055D01*
X1107690Y809883D01*
Y811152D01*
X1107055Y811787D01*
X1107690Y813057D02*
Y814326D01*
Y813691D01*
X1103881D01*
X1104516Y813057D01*
X1107690Y818770D02*
Y816231D01*
X1105151Y818770D01*
X1104516D01*
X1103881Y818135D01*
Y816865D01*
X1104516Y816231D01*
X1022353Y839600D02*
X1021718Y840235D01*
X1020449D01*
X1019814Y839600D01*
Y837061D01*
X1020449Y836426D01*
X1021718D01*
X1022353Y837061D01*
X1026162Y836426D02*
X1023623D01*
X1026162Y838965D01*
Y839600D01*
X1025527Y840235D01*
X1024258D01*
X1023623Y839600D01*
X1113032Y887226D02*
Y891035D01*
X1114936D01*
X1115571Y890400D01*
Y889130D01*
X1114936Y888496D01*
X1113032D01*
X1116841Y887226D02*
X1118110D01*
X1117476D01*
Y891035D01*
X1116841Y890400D01*
D13*
X1023112Y845058D02*
Y847089D01*
X1024128Y848105D01*
X1025143Y847089D01*
Y845058D01*
Y846581D01*
X1023112D01*
X1026159Y845058D02*
Y848105D01*
X1027682D01*
X1028190Y847597D01*
Y846581D01*
X1027682Y846074D01*
X1026159D01*
X1029206Y847597D02*
X1029714Y848105D01*
X1030730D01*
X1031237Y847597D01*
Y847089D01*
X1030730Y846581D01*
X1030222D01*
X1030730D01*
X1031237Y846074D01*
Y845566D01*
X1030730Y845058D01*
X1029714D01*
X1029206Y845566D01*
X1034284Y845058D02*
X1032253D01*
X1034284Y847089D01*
Y847597D01*
X1033776Y848105D01*
X1032761D01*
X1032253Y847597D01*
X1035300Y845058D02*
X1036316D01*
X1035808D01*
Y848105D01*
X1035300Y847597D01*
X1039871Y845058D02*
X1037839D01*
X1039871Y847089D01*
Y847597D01*
X1039363Y848105D01*
X1038347D01*
X1037839Y847597D01*
X1012443Y808735D02*
X1011936Y809243D01*
X1010920D01*
X1010412Y808735D01*
Y808227D01*
X1010920Y807719D01*
X1011936D01*
X1012443Y807212D01*
Y806704D01*
X1011936Y806196D01*
X1010920D01*
X1010412Y806704D01*
X1013459Y809243D02*
X1015490D01*
X1014475D01*
Y806196D01*
X1016506D02*
Y809243D01*
X1017522Y808227D01*
X1018537Y809243D01*
Y806196D01*
X1019553Y808735D02*
X1020061Y809243D01*
X1021077D01*
X1021584Y808735D01*
Y808227D01*
X1021077Y807719D01*
X1020569D01*
X1021077D01*
X1021584Y807212D01*
Y806704D01*
X1021077Y806196D01*
X1020061D01*
X1019553Y806704D01*
X1024631Y806196D02*
X1022600D01*
X1024631Y808227D01*
Y808735D01*
X1024124Y809243D01*
X1023108D01*
X1022600Y808735D01*
X1027678Y809243D02*
X1025647D01*
Y807719D01*
X1026663D01*
X1025647D01*
Y806196D01*
X1028694Y808735D02*
X1029202Y809243D01*
X1030218D01*
X1030725Y808735D01*
Y808227D01*
X1030218Y807719D01*
X1029710D01*
X1030218D01*
X1030725Y807212D01*
Y806704D01*
X1030218Y806196D01*
X1029202D01*
X1028694Y806704D01*
X1031741Y808735D02*
X1032249Y809243D01*
X1033265D01*
X1033772Y808735D01*
Y806704D01*
X1033265Y806196D01*
X1032249D01*
X1031741Y806704D01*
Y808735D01*
X1034788Y806196D02*
X1035804D01*
X1035296D01*
Y809243D01*
X1034788Y808735D01*
X1037327Y809243D02*
Y806196D01*
Y807212D01*
X1039359Y809243D01*
X1037835Y807719D01*
X1039359Y806196D01*
X1040374Y808735D02*
X1040882Y809243D01*
X1041898D01*
X1042406Y808735D01*
Y808227D01*
X1041898Y807719D01*
X1042406Y807212D01*
Y806704D01*
X1041898Y806196D01*
X1040882D01*
X1040374Y806704D01*
Y807212D01*
X1040882Y807719D01*
X1040374Y808227D01*
Y808735D01*
X1040882Y807719D02*
X1041898D01*
X1043421Y809243D02*
Y806704D01*
X1043929Y806196D01*
X1044945D01*
X1045453Y806704D01*
Y809243D01*
X1048500D02*
X1047484Y808735D01*
X1046468Y807719D01*
Y806704D01*
X1046976Y806196D01*
X1047992D01*
X1048500Y806704D01*
Y807212D01*
X1047992Y807719D01*
X1046468D01*
X1073658Y735583D02*
Y733467D01*
X1074081Y733044D01*
X1074928D01*
X1075351Y733467D01*
Y735583D01*
X1076197Y733044D02*
Y734737D01*
X1077044Y735583D01*
X1077890Y734737D01*
Y733044D01*
Y734314D01*
X1076197D01*
X1078736Y733044D02*
Y735583D01*
X1080006D01*
X1080429Y735160D01*
Y734314D01*
X1080006Y733890D01*
X1078736D01*
X1079583D02*
X1080429Y733044D01*
X1081276Y735583D02*
X1082968D01*
X1082122D01*
Y733044D01*
D14*
X1006093Y847035D02*
X1005585Y847543D01*
X1004570D01*
X1004062Y847035D01*
Y846527D01*
X1004570Y846019D01*
X1005585D01*
X1006093Y845511D01*
Y845004D01*
X1005585Y844496D01*
X1004570D01*
X1004062Y845004D01*
X1007109Y847543D02*
Y844496D01*
X1008633D01*
X1009140Y845004D01*
Y847035D01*
X1008633Y847543D01*
X1007109D01*
X1010156Y844496D02*
Y846527D01*
X1011172Y847543D01*
X1012187Y846527D01*
Y844496D01*
Y846019D01*
X1010156D01*
X1006093Y841550D02*
X1005585Y842057D01*
X1004570D01*
X1004062Y841550D01*
Y841042D01*
X1004570Y840534D01*
X1005585D01*
X1006093Y840026D01*
Y839518D01*
X1005585Y839010D01*
X1004570D01*
X1004062Y839518D01*
X1009140Y841550D02*
X1008633Y842057D01*
X1007617D01*
X1007109Y841550D01*
Y839518D01*
X1007617Y839010D01*
X1008633D01*
X1009140Y839518D01*
X1010156Y842057D02*
Y839010D01*
X1012187D01*
X1004062Y836064D02*
X1004570Y836572D01*
X1005585D01*
X1006093Y836064D01*
Y835556D01*
X1005585Y835049D01*
X1005078D01*
X1005585D01*
X1006093Y834541D01*
Y834033D01*
X1005585Y833525D01*
X1004570D01*
X1004062Y834033D01*
X1007109Y836572D02*
Y834541D01*
X1008125Y833525D01*
X1009140Y834541D01*
Y836572D01*
X1010156Y836064D02*
X1010664Y836572D01*
X1011680D01*
X1012187Y836064D01*
Y835556D01*
X1011680Y835049D01*
X1011172D01*
X1011680D01*
X1012187Y834541D01*
Y834033D01*
X1011680Y833525D01*
X1010664D01*
X1010156Y834033D01*
X1006093Y830579D02*
X1005585Y831087D01*
X1004570D01*
X1004062Y830579D01*
Y828548D01*
X1004570Y828040D01*
X1005585D01*
X1006093Y828548D01*
Y829564D01*
X1005078D01*
X1007109Y828040D02*
Y831087D01*
X1009140Y828040D01*
Y831087D01*
X1010156D02*
Y828040D01*
X1011680D01*
X1012187Y828548D01*
Y830579D01*
X1011680Y831087D01*
X1010156D01*
X1065530Y880865D02*
X1066038Y881373D01*
X1067054D01*
X1067561Y880865D01*
Y880357D01*
X1067054Y879849D01*
X1066546D01*
X1067054D01*
X1067561Y879342D01*
Y878834D01*
X1067054Y878326D01*
X1066038D01*
X1065530Y878834D01*
X1068577Y881373D02*
Y879342D01*
X1069593Y878326D01*
X1070608Y879342D01*
Y881373D01*
X1071624Y880865D02*
X1072132Y881373D01*
X1073148D01*
X1073655Y880865D01*
Y880357D01*
X1073148Y879849D01*
X1072640D01*
X1073148D01*
X1073655Y879342D01*
Y878834D01*
X1073148Y878326D01*
X1072132D01*
X1071624Y878834D01*
X1067561Y875380D02*
X1067054Y875888D01*
X1066038D01*
X1065530Y875380D01*
Y873349D01*
X1066038Y872841D01*
X1067054D01*
X1067561Y873349D01*
Y874364D01*
X1066546D01*
X1068577Y872841D02*
Y875888D01*
X1070608Y872841D01*
Y875888D01*
X1071624D02*
Y872841D01*
X1073148D01*
X1073655Y873349D01*
Y875380D01*
X1073148Y875888D01*
X1071624D01*
X1067561Y869895D02*
X1067054Y870403D01*
X1066038D01*
X1065530Y869895D01*
Y867863D01*
X1066038Y867356D01*
X1067054D01*
X1067561Y867863D01*
X1068577Y870403D02*
Y867356D01*
X1070608D01*
X1071624Y870403D02*
Y867356D01*
Y868371D01*
X1073655Y870403D01*
X1072132Y868879D01*
X1073655Y867356D01*
X1067561Y864410D02*
X1067054Y864917D01*
X1066038D01*
X1065530Y864410D01*
Y862378D01*
X1066038Y861870D01*
X1067054D01*
X1067561Y862378D01*
X1070608Y864410D02*
X1070100Y864917D01*
X1069085D01*
X1068577Y864410D01*
Y863902D01*
X1069085Y863394D01*
X1070100D01*
X1070608Y862886D01*
Y862378D01*
X1070100Y861870D01*
X1069085D01*
X1068577Y862378D01*
X1065530Y856385D02*
Y859432D01*
X1066546Y858417D01*
X1067561Y859432D01*
Y856385D01*
X1068577Y859432D02*
X1069593D01*
X1069085D01*
Y856385D01*
X1068577D01*
X1069593D01*
X1073148Y858924D02*
X1072640Y859432D01*
X1071624D01*
X1071116Y858924D01*
Y858417D01*
X1071624Y857909D01*
X1072640D01*
X1073148Y857401D01*
Y856893D01*
X1072640Y856385D01*
X1071624D01*
X1071116Y856893D01*
X1075687Y859432D02*
X1074671D01*
X1074163Y858924D01*
Y856893D01*
X1074671Y856385D01*
X1075687D01*
X1076195Y856893D01*
Y858924D01*
X1075687Y859432D01*
X1065530Y850900D02*
Y853947D01*
X1066546Y852931D01*
X1067561Y853947D01*
Y850900D01*
X1070100Y853947D02*
X1069085D01*
X1068577Y853439D01*
Y851408D01*
X1069085Y850900D01*
X1070100D01*
X1070608Y851408D01*
Y853439D01*
X1070100Y853947D01*
X1073655Y853439D02*
X1073148Y853947D01*
X1072132D01*
X1071624Y853439D01*
Y852931D01*
X1072132Y852423D01*
X1073148D01*
X1073655Y851916D01*
Y851408D01*
X1073148Y850900D01*
X1072132D01*
X1071624Y851408D01*
X1074671Y853947D02*
X1075687D01*
X1075179D01*
Y850900D01*
X1074671D01*
X1075687D01*
X1081786Y760221D02*
X1082886D01*
X1082336D01*
Y756920D01*
X1081786D01*
X1082886D01*
X1086737Y759671D02*
X1086187Y760221D01*
X1085087D01*
X1084537Y759671D01*
Y757470D01*
X1085087Y756920D01*
X1086187D01*
X1086737Y757470D01*
X1087838Y756920D02*
Y760221D01*
X1088938Y759121D01*
X1090038Y760221D01*
Y756920D01*
X1093339D02*
X1091139D01*
X1093339Y759121D01*
Y759671D01*
X1092789Y760221D01*
X1091689D01*
X1091139Y759671D01*
X1094440D02*
X1094990Y760221D01*
X1096090D01*
X1096640Y759671D01*
Y757470D01*
X1096090Y756920D01*
X1094990D01*
X1094440Y757470D01*
Y759671D01*
X1097740Y757470D02*
X1098291Y756920D01*
X1099391D01*
X1099941Y757470D01*
Y759671D01*
X1099391Y760221D01*
X1098291D01*
X1097740Y759671D01*
Y759121D01*
X1098291Y758570D01*
X1099941D01*
X1102692Y756920D02*
Y760221D01*
X1101041Y758570D01*
X1103242D01*
X1104342Y759671D02*
X1104893Y760221D01*
X1105993D01*
X1106543Y759671D01*
Y759121D01*
X1105993Y758570D01*
X1106543Y758020D01*
Y757470D01*
X1105993Y756920D01*
X1104893D01*
X1104342Y757470D01*
Y758020D01*
X1104893Y758570D01*
X1104342Y759121D01*
Y759671D01*
X1104893Y758570D02*
X1105993D01*
M02*
