M48
;Layer_Color=9474304
;FILE_FORMAT=2:5
INCH,LZ
;TYPE=PLATED
T1F00S00C0.00787
T2F00S00C0.01200
T3F00S00C0.02362
T4F00S00C0.02756
;TYPE=NON_PLATED
T5F00S00C0.03900
%
T01
X0404022Y0300818
Y0305149
Y0309479
X0408353
Y0305149
Y0300818
X0412683
Y0305149
Y0309479
T02
X0399Y02879
X0398Y0291
X0395Y0295
X03957Y03023
X03956Y03073
X04053Y02909
X0408Y02872
X04127Y0293
X041545Y0292918
X04223Y02939
X04261Y02962
X04239Y03019
X04423Y03057
X04425Y029
X04371Y02909
X0435Y0285
X043
X04239Y03139
X04237Y03203
X04361
X04429Y03237
X04158Y03304
X04175Y034
X04225
X042Y0345
X0415
X041
X0405
X04075Y035
X04125
X04175
X04225
X042Y0355
X0415
X041
X04
X0395
X039
X0395Y0345
X03994Y03477
X04008Y03317
X0396072
X03976Y03182
X040035Y0318204
X03955Y03164
X040715Y0318004
X04101Y0318
X04345Y03578
T03
X039Y02898
Y02948
Y02998
Y03048
Y03098
X04125Y02876
X04175
X04284Y03291
Y03341
Y03391
Y03441
Y03491
Y03541
X039Y03487
Y03437
Y03387
Y03337
Y03248
Y03198
Y03148
T04
X0402963Y0340454
X0410837
T05
X04393Y03298
X04353Y03498
X04433
M30
