G04*
G04 #@! TF.GenerationSoftware,Altium Limited,Altium Designer,19.1.7 (138)*
G04*
G04 Layer_Physical_Order=2*
G04 Layer_Color=16711680*
%FSLAX44Y44*%
%MOMM*%
G71*
G01*
G75*
%ADD25R,1.2000X1.2000*%
%ADD26C,1.2000*%
%ADD27C,1.0000*%
%ADD28R,1.0000X1.0000*%
%ADD29R,1.0000X1.0000*%
%ADD30C,0.5000*%
%ADD31C,0.1524*%
%ADD32C,0.2032*%
%ADD33C,0.5080*%
%ADD34C,0.1270*%
%ADD36C,0.6096*%
G36*
X1115732Y911528D02*
X1120041Y910221D01*
X1124012Y908098D01*
X1127493Y905242D01*
X1130350Y901761D01*
X1132472Y897790D01*
X1133779Y893481D01*
X1134212Y889087D01*
X1134195Y889000D01*
Y743179D01*
X1134212Y743092D01*
X1133780Y738702D01*
X1132474Y734398D01*
X1130353Y730431D01*
X1127499Y726953D01*
X1124022Y724100D01*
X1120055Y721979D01*
X1115750Y720673D01*
X1111365Y720241D01*
X1111274Y720259D01*
X997931Y720259D01*
X996696Y720259D01*
Y720259D01*
X995462Y720355D01*
X992215Y720675D01*
X987906Y721982D01*
X983935Y724104D01*
X980454Y726961D01*
X977598Y730442D01*
X975475Y734413D01*
X974168Y738722D01*
X973739Y743076D01*
X973762Y743187D01*
X974760Y887732D01*
X974769Y888985D01*
X974769Y889000D01*
X974864Y890230D01*
X975184Y893481D01*
X976491Y897790D01*
X978614Y901761D01*
X981470Y905242D01*
X984951Y908098D01*
X988922Y910221D01*
X993231Y911528D01*
X997625Y911961D01*
X997712Y911943D01*
X1029734D01*
X1030261Y910673D01*
X1008738Y889150D01*
X1008254Y887984D01*
Y849566D01*
X1008738Y848399D01*
X1008944Y848193D01*
Y846828D01*
X1007674Y846149D01*
X1007558Y846227D01*
X1006022Y846532D01*
X1004486Y846227D01*
X1003183Y845356D01*
X1002313Y844054D01*
X1002008Y842518D01*
X1002313Y840982D01*
X1002526Y840664D01*
Y833298D01*
X1000176Y830948D01*
X993060D01*
X992722Y830881D01*
X984711D01*
Y819103D01*
X996489D01*
Y823956D01*
X1001624D01*
X1002962Y824222D01*
X1004096Y824980D01*
X1007674Y828558D01*
X1008944Y828032D01*
Y812051D01*
X1008368Y811937D01*
X1007066Y811066D01*
X1006195Y809764D01*
X1005890Y808228D01*
X1005206Y807544D01*
X1004570Y807670D01*
X1003034Y807365D01*
X1001732Y806494D01*
X1000861Y805192D01*
X1000556Y803656D01*
X1000861Y802120D01*
X1000939Y802004D01*
X1000260Y800734D01*
X996377D01*
X996147Y801890D01*
X994846Y803838D01*
X992898Y805139D01*
X990600Y805596D01*
X988302Y805139D01*
X986354Y803838D01*
X985053Y801890D01*
X984596Y799592D01*
X985053Y797294D01*
X986354Y795346D01*
X988302Y794045D01*
X989083Y793889D01*
Y792595D01*
X988302Y792439D01*
X986354Y791138D01*
X985053Y789190D01*
X984596Y786892D01*
X985053Y784594D01*
X986354Y782646D01*
X988302Y781345D01*
X989083Y781189D01*
Y779895D01*
X988302Y779739D01*
X986354Y778438D01*
X985053Y776490D01*
X984596Y774192D01*
X985053Y771894D01*
X986354Y769946D01*
X988302Y768645D01*
X989083Y768489D01*
Y767195D01*
X988302Y767039D01*
X986354Y765738D01*
X985053Y763790D01*
X984596Y761492D01*
X985053Y759194D01*
X986354Y757246D01*
X988302Y755945D01*
X989083Y755789D01*
Y754495D01*
X988302Y754339D01*
X986354Y753038D01*
X985053Y751090D01*
X984596Y748792D01*
X985053Y746494D01*
X986354Y744546D01*
X988302Y743245D01*
X989083Y743089D01*
Y741795D01*
X988302Y741639D01*
X986354Y740338D01*
X985053Y738390D01*
X984596Y736092D01*
X984981Y734156D01*
X983833Y733508D01*
X980820Y736521D01*
Y873585D01*
X986885Y879650D01*
X987552Y879571D01*
X987868Y878255D01*
X986354Y877244D01*
X985053Y875296D01*
X984596Y872998D01*
X985053Y870700D01*
X986354Y868752D01*
X988302Y867451D01*
X989083Y867295D01*
Y866001D01*
X988302Y865845D01*
X986354Y864544D01*
X985053Y862596D01*
X984596Y860298D01*
X985053Y858000D01*
X986354Y856052D01*
X988302Y854751D01*
X990600Y854294D01*
X992898Y854751D01*
X994846Y856052D01*
X996147Y858000D01*
X996604Y860298D01*
X996147Y862596D01*
X994846Y864544D01*
X992898Y865845D01*
X992117Y866001D01*
Y867295D01*
X992898Y867451D01*
X994846Y868752D01*
X996147Y870700D01*
X996604Y872998D01*
X996147Y875296D01*
X994846Y877244D01*
X992898Y878545D01*
X993055Y879809D01*
X996489D01*
Y891587D01*
X984711D01*
Y882142D01*
X978004Y875434D01*
X977520Y874268D01*
Y735838D01*
X978004Y734672D01*
X984274Y728402D01*
X985440Y727918D01*
X1001348D01*
X1002514Y728402D01*
X1009518Y735405D01*
X1010920Y735126D01*
X1012456Y735431D01*
X1013758Y736302D01*
X1014629Y737604D01*
X1014934Y739140D01*
X1014629Y740676D01*
X1013758Y741978D01*
X1012456Y742849D01*
X1010920Y743154D01*
X1009384Y742849D01*
X1008082Y741978D01*
X1007211Y740676D01*
X1006906Y739140D01*
X1007185Y737738D01*
X1000665Y731218D01*
X995953D01*
X995274Y732488D01*
X996147Y733794D01*
X996604Y736092D01*
X996147Y738390D01*
X994846Y740338D01*
X992898Y741639D01*
X992117Y741795D01*
Y743089D01*
X992898Y743245D01*
X994846Y744546D01*
X996147Y746494D01*
X996604Y748792D01*
X996147Y751090D01*
X994846Y753038D01*
X992898Y754339D01*
X992117Y754495D01*
Y755789D01*
X992898Y755945D01*
X994846Y757246D01*
X996147Y759194D01*
X996604Y761492D01*
X996147Y763790D01*
X994846Y765738D01*
X992898Y767039D01*
X992117Y767195D01*
Y768489D01*
X992898Y768645D01*
X994846Y769946D01*
X996147Y771894D01*
X996604Y774192D01*
X996147Y776490D01*
X994846Y778438D01*
X992898Y779739D01*
X992117Y779895D01*
Y781189D01*
X992898Y781345D01*
X994846Y782646D01*
X996147Y784594D01*
X996604Y786892D01*
X996147Y789190D01*
X994846Y791138D01*
X992898Y792439D01*
X992117Y792595D01*
Y793889D01*
X992898Y794045D01*
X994846Y795346D01*
X996147Y797294D01*
X996175Y797434D01*
X1012777D01*
X1018033Y792178D01*
Y753237D01*
X1018517Y752071D01*
X1027050Y743537D01*
X1027028Y742067D01*
X1026971Y741957D01*
X1026624Y741724D01*
X1025753Y740422D01*
X1025448Y738886D01*
X1025753Y737350D01*
X1026624Y736048D01*
X1027926Y735177D01*
X1029462Y734872D01*
X1030998Y735177D01*
X1032300Y736048D01*
X1033171Y737350D01*
X1033226Y737631D01*
X1041658D01*
X1042144Y736457D01*
X1038472Y732785D01*
X1037856Y733197D01*
X1036320Y733502D01*
X1034784Y733197D01*
X1033482Y732326D01*
X1032611Y731024D01*
X1032306Y729488D01*
X1032611Y727952D01*
X1033482Y726650D01*
X1034784Y725779D01*
X1036320Y725474D01*
X1037856Y725779D01*
X1039158Y726650D01*
X1040029Y727952D01*
X1040223Y728928D01*
X1040692Y729292D01*
X1042091Y728770D01*
X1042203Y728206D01*
X1043504Y726258D01*
X1045452Y724957D01*
X1047750Y724500D01*
X1050048Y724957D01*
X1051996Y726258D01*
X1053297Y728206D01*
X1054561Y728049D01*
Y724615D01*
X1066339D01*
Y735378D01*
X1074848D01*
X1076014Y735862D01*
X1077389Y737236D01*
X1106601D01*
X1107396Y736048D01*
X1108698Y735177D01*
X1110234Y734872D01*
X1111770Y735177D01*
X1113072Y736048D01*
X1113943Y737350D01*
X1114248Y738886D01*
X1113943Y740422D01*
X1113072Y741724D01*
X1111770Y742595D01*
X1110234Y742900D01*
X1108698Y742595D01*
X1107396Y741724D01*
X1106601Y740536D01*
X1076706D01*
X1075540Y740052D01*
X1074165Y738678D01*
X1068854D01*
X1068367Y739851D01*
X1071280Y742763D01*
X1072642Y742492D01*
X1074178Y742797D01*
X1075480Y743668D01*
X1076252Y744823D01*
X1115060D01*
X1115704Y744951D01*
X1116250Y745316D01*
X1130855Y759921D01*
X1131220Y760467D01*
X1131348Y761111D01*
Y845439D01*
X1131220Y846083D01*
X1130855Y846629D01*
X1102280Y875204D01*
X1101734Y875569D01*
X1101090Y875697D01*
X1093805D01*
X1093683Y876312D01*
X1092382Y878260D01*
X1090434Y879561D01*
X1088136Y880018D01*
X1085838Y879561D01*
X1083890Y878260D01*
X1082589Y876312D01*
X1082132Y874014D01*
X1082589Y871716D01*
X1083890Y869768D01*
X1085838Y868467D01*
X1086619Y868311D01*
Y867017D01*
X1085838Y866861D01*
X1083890Y865560D01*
X1082589Y863612D01*
X1082132Y861314D01*
X1082589Y859016D01*
X1083890Y857068D01*
X1085838Y855767D01*
X1086619Y855611D01*
Y854317D01*
X1085838Y854161D01*
X1083890Y852860D01*
X1082589Y850912D01*
X1082132Y848614D01*
X1082589Y846316D01*
X1083890Y844368D01*
X1085838Y843067D01*
X1086619Y842911D01*
Y841617D01*
X1085838Y841461D01*
X1083890Y840160D01*
X1082589Y838212D01*
X1082132Y835914D01*
X1082589Y833616D01*
X1082937Y833095D01*
X1076009Y826167D01*
X1071695D01*
X1071051Y826039D01*
X1070505Y825674D01*
X1060076Y815245D01*
X1053067D01*
X1052428Y815372D01*
X1037750D01*
X1037106Y815244D01*
X1036560Y814879D01*
X1034114Y812433D01*
X1033749Y811887D01*
X1033702Y811653D01*
X1032625Y811439D01*
X1031323Y810569D01*
X1030452Y809267D01*
X1030147Y807730D01*
X1030452Y806194D01*
X1031323Y804892D01*
X1032625Y804022D01*
X1034161Y803716D01*
X1034773Y803838D01*
X1037289Y801323D01*
X1037835Y800958D01*
X1038479Y800830D01*
X1066484D01*
X1068419Y798895D01*
Y772668D01*
X1068547Y772024D01*
X1068912Y771478D01*
X1072837Y767553D01*
X1072692Y766826D01*
X1072997Y765290D01*
X1073868Y763988D01*
X1075170Y763117D01*
X1076706Y762812D01*
X1078242Y763117D01*
X1079544Y763988D01*
X1080415Y765290D01*
X1080720Y766826D01*
X1080415Y768362D01*
X1079544Y769664D01*
X1078242Y770535D01*
X1076706Y770840D01*
X1075170Y770535D01*
X1074838Y770313D01*
X1071785Y773365D01*
Y799592D01*
X1071657Y800236D01*
X1071292Y800782D01*
X1068371Y803703D01*
X1067825Y804068D01*
X1067181Y804196D01*
X1046330D01*
X1045622Y805466D01*
X1045997Y806070D01*
X1058164D01*
X1059330Y806554D01*
X1073325Y820548D01*
X1121333D01*
X1122128Y819360D01*
X1123430Y818489D01*
X1124966Y818184D01*
X1126502Y818489D01*
X1126712Y818629D01*
X1127982Y817951D01*
Y800290D01*
X1126712Y799764D01*
X1111409Y815066D01*
X1111403Y815098D01*
X1110532Y816400D01*
X1109230Y817271D01*
X1107694Y817576D01*
X1106158Y817271D01*
X1105840Y817058D01*
X1078052D01*
X1077734Y817271D01*
X1076198Y817576D01*
X1074662Y817271D01*
X1073360Y816400D01*
X1072489Y815098D01*
X1072184Y813562D01*
X1072489Y812026D01*
X1073360Y810724D01*
X1074662Y809853D01*
X1076198Y809548D01*
X1077734Y809853D01*
X1078052Y810066D01*
X1105840D01*
X1106158Y809853D01*
X1106876Y809711D01*
X1121216Y795371D01*
Y779725D01*
X1120604Y779316D01*
X1119733Y778014D01*
X1119428Y776478D01*
X1119733Y774942D01*
X1120604Y773640D01*
X1121216Y773231D01*
Y765734D01*
X1111072Y755590D01*
X1084528D01*
X1083830Y756057D01*
X1082294Y756362D01*
X1080758Y756057D01*
X1079456Y755186D01*
X1078585Y753884D01*
X1078280Y752348D01*
X1078585Y750812D01*
X1079456Y749510D01*
X1079531Y749459D01*
X1079146Y748189D01*
X1076252D01*
X1075480Y749344D01*
X1074178Y750215D01*
X1072642Y750520D01*
X1071106Y750215D01*
X1069804Y749344D01*
X1068933Y748042D01*
X1068628Y746506D01*
X1068899Y745144D01*
X1064753Y740997D01*
X1059490D01*
X1058812Y742267D01*
X1058952Y742477D01*
X1059257Y744013D01*
X1058952Y745549D01*
X1058081Y746851D01*
X1056779Y747722D01*
X1055243Y748027D01*
X1053841Y747748D01*
X1051630Y749958D01*
X1050464Y750442D01*
X1039346D01*
X1038180Y749958D01*
X1038155Y749934D01*
X1028716D01*
X1023492Y755158D01*
Y795020D01*
X1023008Y796186D01*
X1016110Y803085D01*
X1016735Y804256D01*
X1016889Y804225D01*
X1018425Y804531D01*
X1019727Y805401D01*
X1020598Y806703D01*
X1020903Y808239D01*
X1020598Y809775D01*
X1019727Y811078D01*
X1018425Y811948D01*
X1016889Y812253D01*
X1015487Y811974D01*
X1014402Y813059D01*
Y838752D01*
X1015672Y839360D01*
X1016496Y838809D01*
X1016871Y838735D01*
X1018862Y836744D01*
X1019996Y835986D01*
X1021334Y835720D01*
X1021334Y835720D01*
X1054278D01*
X1054596Y835507D01*
X1056132Y835202D01*
X1057668Y835507D01*
X1058970Y836378D01*
X1059841Y837680D01*
X1060146Y839216D01*
X1059841Y840752D01*
X1058970Y842054D01*
X1057668Y842925D01*
X1056132Y843230D01*
X1054596Y842925D01*
X1054278Y842712D01*
X1022782D01*
X1021815Y843679D01*
X1021741Y844054D01*
X1020870Y845356D01*
X1019568Y846227D01*
X1018032Y846532D01*
X1016496Y846227D01*
X1015672Y845676D01*
X1014402Y846284D01*
Y872624D01*
X1015642Y873864D01*
X1016126Y875030D01*
Y879525D01*
X1017314Y880320D01*
X1018185Y881622D01*
X1018490Y883158D01*
X1018185Y884694D01*
X1017314Y885996D01*
X1016012Y886867D01*
X1014476Y887172D01*
X1012940Y886867D01*
X1012866Y886817D01*
X1012057Y887804D01*
X1033193Y908940D01*
X1099510D01*
X1099616Y908812D01*
X1099921Y907276D01*
X1100792Y905974D01*
X1102094Y905103D01*
X1103630Y904798D01*
X1105166Y905103D01*
X1106468Y905974D01*
X1107339Y907276D01*
X1107644Y908812D01*
X1107339Y910348D01*
X1107121Y910673D01*
X1107800Y911943D01*
X1111251D01*
X1111338Y911961D01*
X1115732Y911528D01*
D02*
G37*
%LPC*%
G36*
X1094025Y905303D02*
X1082247D01*
Y893525D01*
X1094025D01*
Y905303D01*
D02*
G37*
G36*
X1125982Y894448D02*
X1123703Y893995D01*
X1121770Y892704D01*
X1120479Y890771D01*
X1120025Y888492D01*
X1120479Y886213D01*
X1121770Y884280D01*
X1123703Y882989D01*
X1125982Y882535D01*
X1128261Y882989D01*
X1130194Y884280D01*
X1131485Y886213D01*
X1131938Y888492D01*
X1131485Y890771D01*
X1130194Y892704D01*
X1128261Y893995D01*
X1125982Y894448D01*
D02*
G37*
G36*
X1105662D02*
X1103383Y893995D01*
X1101450Y892704D01*
X1100159Y890771D01*
X1099706Y888492D01*
X1100159Y886213D01*
X1101450Y884280D01*
X1103383Y882989D01*
X1105662Y882535D01*
X1107941Y882989D01*
X1109874Y884280D01*
X1111165Y886213D01*
X1111618Y888492D01*
X1111165Y890771D01*
X1109874Y892704D01*
X1107941Y893995D01*
X1105662Y894448D01*
D02*
G37*
G36*
X1050415Y871643D02*
X1036637D01*
Y857865D01*
X1050415D01*
Y871643D01*
D02*
G37*
G36*
X1004824Y784556D02*
X1003288Y784251D01*
X1001986Y783380D01*
X1001115Y782078D01*
X1000810Y780542D01*
X1001115Y779006D01*
X1001986Y777704D01*
X1003288Y776833D01*
X1003301Y776831D01*
Y771390D01*
X1002240Y770680D01*
X1001369Y769378D01*
X1001064Y767842D01*
X1001369Y766306D01*
X1002240Y765004D01*
X1003542Y764133D01*
X1005078Y763828D01*
X1006614Y764133D01*
X1007916Y765004D01*
X1008787Y766306D01*
X1009092Y767842D01*
X1008787Y769378D01*
X1007916Y770680D01*
X1006614Y771551D01*
X1006601Y771553D01*
Y776994D01*
X1007662Y777704D01*
X1008533Y779006D01*
X1008838Y780542D01*
X1008533Y782078D01*
X1007662Y783380D01*
X1006360Y784251D01*
X1004824Y784556D01*
D02*
G37*
%LPD*%
D25*
X1043526Y864754D02*
D03*
D26*
X1023526D02*
D03*
D27*
X1088136Y835914D02*
D03*
Y848614D02*
D03*
Y861314D02*
D03*
Y874014D02*
D03*
Y886714D02*
D03*
X990600Y736092D02*
D03*
Y748792D02*
D03*
Y761492D02*
D03*
Y774192D02*
D03*
Y786892D02*
D03*
Y799592D02*
D03*
Y812292D02*
D03*
Y872998D02*
D03*
Y860298D02*
D03*
Y847598D02*
D03*
X1047750Y730504D02*
D03*
D28*
X1088136Y899414D02*
D03*
X990600Y824992D02*
D03*
Y885698D02*
D03*
D29*
X1060450Y730504D02*
D03*
D30*
X1026216Y764078D02*
D03*
Y775078D02*
D03*
Y786078D02*
D03*
X1037216Y764078D02*
D03*
Y775078D02*
D03*
Y786078D02*
D03*
X1048216Y764078D02*
D03*
Y775078D02*
D03*
Y786078D02*
D03*
D31*
X1082294Y752348D02*
X1082548Y752602D01*
X1072642Y746506D02*
X1115060D01*
X1065450Y739314D02*
X1072642Y746506D01*
X1115060D02*
X1129665Y761111D01*
X1029890Y739314D02*
X1065450D01*
X1075944Y766826D02*
X1076706D01*
X1029462Y738886D02*
X1029890Y739314D01*
X1129665Y761111D02*
Y845439D01*
X1101090Y874014D02*
X1129665Y845439D01*
X1076706Y824484D02*
X1088136Y835914D01*
X1071695Y824484D02*
X1076706D01*
X1060773Y813562D02*
X1071695Y824484D01*
X1052555Y813562D02*
X1060773D01*
X1037750Y813689D02*
X1052428D01*
X1052555Y813562D01*
X1034161Y807730D02*
Y808968D01*
Y806831D02*
Y807730D01*
X1035304Y811243D02*
X1037750Y813689D01*
X1035304Y810110D02*
Y811243D01*
X1034161Y808968D02*
X1035304Y810110D01*
X1038479Y802513D02*
X1067181D01*
X1070102Y799592D01*
Y772668D02*
Y799592D01*
Y772668D02*
X1075944Y766826D01*
X1034161Y806831D02*
X1038479Y802513D01*
X1088136Y874014D02*
X1101090D01*
D32*
X1123442Y776224D02*
Y776478D01*
Y776224D02*
X1123950Y775716D01*
D33*
X1082548Y752094D02*
X1112520D01*
X1124712Y764286D01*
Y796819D01*
X1001624Y827452D02*
X1006022Y831850D01*
X993060Y827452D02*
X1001624D01*
X990600Y824992D02*
X993060Y827452D01*
X1006022Y831850D02*
Y842518D01*
X1018032D02*
X1021334Y839216D01*
X1056132D01*
X1107969Y813562D02*
X1124712Y796819D01*
X1107694Y813562D02*
X1107969D01*
X1076198D02*
X1107694D01*
D34*
X1076706Y738886D02*
X1110234D01*
X1074848Y737028D02*
X1076706Y738886D01*
X1036320Y729488D02*
X1037508D01*
X1010594Y808918D02*
Y848876D01*
X1012753Y812375D02*
Y873307D01*
X1009904Y808228D02*
X1010594Y808918D01*
X1012753Y812375D02*
X1016889Y808239D01*
X1009904Y849566D02*
X1010594Y848876D01*
X1009904Y887984D02*
X1032510Y910590D01*
X1009904Y849566D02*
Y887984D01*
X1012753Y873307D02*
X1014476Y875030D01*
X1045048Y737028D02*
X1074848D01*
X1037508Y729488D02*
X1045048Y737028D01*
X1050464Y748792D02*
X1055243Y744013D01*
X1039346Y748792D02*
X1050464D01*
X1028700Y744220D02*
X1048258D01*
X1021842Y754475D02*
X1028033Y748284D01*
X1019683Y753237D02*
X1028700Y744220D01*
X1028033Y748284D02*
X1038838D01*
X1019683Y753237D02*
Y792861D01*
X1021842Y754475D02*
Y795020D01*
X1013460Y799084D02*
X1019683Y792861D01*
X1013206Y803656D02*
X1021842Y795020D01*
X991108Y799084D02*
X1013460D01*
X1004570Y803656D02*
X1013206D01*
X990600Y799592D02*
X991108Y799084D01*
X1038838Y748284D02*
X1039346Y748792D01*
X1041654Y807720D02*
X1058164D01*
X1072642Y822198D01*
X1124966D01*
X1115568Y848614D02*
X1124966Y839216D01*
Y822198D02*
Y839216D01*
X1088136Y848614D02*
X1115568D01*
X1041654Y807720D02*
X1042162Y807212D01*
X1014476Y875030D02*
Y883158D01*
X1032510Y910590D02*
X1101852D01*
X1103630Y908812D01*
X1001348Y729568D02*
X1010920Y739140D01*
X985440Y729568D02*
X1001348D01*
X979170Y735838D02*
X985440Y729568D01*
X979170Y735838D02*
Y874268D01*
X990600Y885698D01*
X1004951Y767969D02*
X1005078Y767842D01*
X1004951Y767969D02*
Y780415D01*
X1004824Y780542D02*
X1004951Y780415D01*
D36*
X1076706Y797306D02*
D03*
X1013460Y731266D02*
D03*
X1123950Y736600D02*
D03*
X1104900Y723900D02*
D03*
X1092200D02*
D03*
X1066800Y901700D02*
D03*
X1073150Y889000D02*
D03*
X1066800Y876300D02*
D03*
X1073150Y863600D02*
D03*
X1054100Y901700D02*
D03*
X1060450Y889000D02*
D03*
X1054100Y876300D02*
D03*
X1060450Y863600D02*
D03*
X1041400Y901700D02*
D03*
X1047750Y889000D02*
D03*
X1041400Y876300D02*
D03*
X1035050Y889000D02*
D03*
X1028700Y876300D02*
D03*
X1016000Y901700D02*
D03*
X1003300D02*
D03*
Y876300D02*
D03*
Y749300D02*
D03*
X990600Y901700D02*
D03*
X1082294Y752348D02*
D03*
X1036320Y729488D02*
D03*
X1006022Y842518D02*
D03*
X1018032D02*
D03*
X1056132Y839216D02*
D03*
X1072642Y746506D02*
D03*
X1055243Y744013D02*
D03*
X1110234Y738886D02*
D03*
X1048258Y744220D02*
D03*
X1076706Y766826D02*
D03*
X1029462Y738886D02*
D03*
X1123442Y776478D02*
D03*
X1124966Y822198D02*
D03*
X1107694Y813562D02*
D03*
X1076198D02*
D03*
X1016889Y808239D02*
D03*
X1014476Y883158D02*
D03*
X1009904Y808228D02*
D03*
X1103630Y908812D02*
D03*
X1010920Y739140D02*
D03*
X1004570Y803656D02*
D03*
X1041654Y807720D02*
D03*
X1034161Y807730D02*
D03*
X1005078Y767842D02*
D03*
X1004824Y780542D02*
D03*
M02*
