G04*
G04 #@! TF.GenerationSoftware,Altium Limited,Altium Designer,19.1.7 (138)*
G04*
G04 Layer_Color=16711935*
%FSLAX44Y44*%
%MOMM*%
G71*
G01*
G75*
%ADD37C,0.1000*%
D37*
X1025716Y758578D02*
G03*
X1025716Y758578I-5000J0D01*
G01*
X1090954Y775566D02*
G03*
X1090954Y775566I-5000J0D01*
G01*
X1004024Y851251D02*
Y927251D01*
X1063024D01*
X1063027Y851251D02*
Y927254D01*
X1053029Y851251D02*
X1063024D01*
X1053027Y851254D02*
X1053029Y851251D01*
X1053027Y851254D02*
Y867253D01*
X1004026Y851254D02*
X1014026D01*
Y867253D01*
X1053027D01*
X1011716Y749578D02*
X1062716D01*
X1011716Y800578D02*
X1062716D01*
X1011716Y749578D02*
Y800578D01*
X1062716Y749578D02*
Y800578D01*
X1076954Y766566D02*
X1107954D01*
X1076954Y797566D02*
X1107954D01*
X1076954Y766566D02*
Y797566D01*
X1107954Y766566D02*
Y797566D01*
X1121870Y764358D02*
Y775358D01*
X1115870Y764358D02*
Y775358D01*
X1121870D01*
X1115870Y764358D02*
X1121870D01*
X1095804Y807650D02*
Y818650D01*
X1101804Y807650D02*
Y818650D01*
X1095804Y807650D02*
X1101804D01*
X1095804Y818650D02*
X1101804D01*
X1115870Y797140D02*
X1121870D01*
X1115870Y786140D02*
X1121870D01*
Y797140D01*
X1115870Y786140D02*
Y797140D01*
X1047886Y845064D02*
X1064886D01*
X1047886Y814064D02*
X1064886D01*
X1047886D02*
Y845064D01*
X1064886Y814064D02*
Y845064D01*
X1019294Y725726D02*
Y731726D01*
X1030294Y725726D02*
Y731726D01*
X1019294D02*
X1030294D01*
X1019294Y725726D02*
X1030294D01*
X1018786Y826818D02*
Y832818D01*
X1029786Y826818D02*
Y832818D01*
X1018786D02*
X1029786D01*
X1018786Y826818D02*
X1029786D01*
X1018532Y814880D02*
X1029532D01*
X1018532Y820880D02*
X1029532D01*
Y814880D02*
Y820880D01*
X1018532Y814880D02*
Y820880D01*
X1086818Y809490D02*
Y820490D01*
X1080818Y809490D02*
Y820490D01*
X1086818D01*
X1080818Y809490D02*
X1086818D01*
M02*
