G04*
G04 #@! TF.GenerationSoftware,Altium Limited,Altium Designer,19.1.7 (138)*
G04*
G04 Layer_Color=255*
%FSLAX44Y44*%
%MOMM*%
G71*
G01*
G75*
%ADD15O,0.2500X0.8000*%
%ADD16O,0.8000X0.2500*%
%ADD17R,3.5000X3.5000*%
%ADD18O,0.2000X0.6500*%
%ADD19O,0.6500X0.2000*%
%ADD20R,1.5400X1.7000*%
%ADD21R,0.7000X0.6000*%
%ADD22R,1.0500X0.6000*%
%ADD23R,0.6000X0.7000*%
%ADD24C,0.7874*%
%ADD25R,1.2000X1.2000*%
%ADD26C,1.2000*%
%ADD27C,1.0000*%
%ADD28R,1.0000X1.0000*%
%ADD29R,1.0000X1.0000*%
D15*
X1019716Y751078D02*
D03*
X1024716D02*
D03*
X1029716D02*
D03*
X1034716D02*
D03*
X1039716D02*
D03*
X1044716D02*
D03*
X1049716D02*
D03*
X1054716D02*
D03*
Y799078D02*
D03*
X1049716D02*
D03*
X1044716D02*
D03*
X1039716D02*
D03*
X1034716D02*
D03*
X1029716D02*
D03*
X1024716D02*
D03*
X1019716D02*
D03*
D16*
X1061216Y757578D02*
D03*
Y762578D02*
D03*
Y767578D02*
D03*
Y772578D02*
D03*
Y777578D02*
D03*
Y782578D02*
D03*
Y787578D02*
D03*
Y792578D02*
D03*
X1013216D02*
D03*
Y787578D02*
D03*
Y782578D02*
D03*
Y777578D02*
D03*
Y772578D02*
D03*
Y767578D02*
D03*
Y762578D02*
D03*
Y757578D02*
D03*
D17*
X1037216Y775078D02*
D03*
D18*
X1082454Y766316D02*
D03*
X1086454D02*
D03*
X1090454D02*
D03*
X1094454D02*
D03*
X1098454D02*
D03*
X1102454D02*
D03*
Y797816D02*
D03*
X1098454D02*
D03*
X1094454D02*
D03*
X1090454D02*
D03*
X1086454D02*
D03*
X1082454D02*
D03*
D19*
X1108204Y772066D02*
D03*
Y776066D02*
D03*
Y780066D02*
D03*
Y784066D02*
D03*
Y788066D02*
D03*
Y792066D02*
D03*
X1076704D02*
D03*
Y788066D02*
D03*
Y784066D02*
D03*
Y780066D02*
D03*
Y776066D02*
D03*
Y772066D02*
D03*
D20*
X1092454Y782066D02*
D03*
D21*
X1118870Y773938D02*
D03*
Y763938D02*
D03*
X1098804Y809070D02*
D03*
Y819070D02*
D03*
X1118870Y797560D02*
D03*
Y787560D02*
D03*
X1083818Y819070D02*
D03*
Y809070D02*
D03*
D22*
X1042636Y820064D02*
D03*
Y829564D02*
D03*
Y839064D02*
D03*
X1070136D02*
D03*
Y829564D02*
D03*
Y820064D02*
D03*
D23*
X1018874Y728726D02*
D03*
X1028874D02*
D03*
X1018366Y829818D02*
D03*
X1028366D02*
D03*
X1028112Y817880D02*
D03*
X1018112D02*
D03*
D24*
X1122172Y850392D02*
D03*
X1109472D02*
D03*
X1122172Y863092D02*
D03*
X1109472D02*
D03*
X1122172Y875792D02*
D03*
X1109472D02*
D03*
D25*
X1043526Y864754D02*
D03*
D26*
X1023526D02*
D03*
D27*
X1088136Y835914D02*
D03*
Y848614D02*
D03*
Y861314D02*
D03*
Y874014D02*
D03*
Y886714D02*
D03*
X990600Y736092D02*
D03*
Y748792D02*
D03*
Y761492D02*
D03*
Y774192D02*
D03*
Y786892D02*
D03*
Y799592D02*
D03*
Y812292D02*
D03*
Y872998D02*
D03*
Y860298D02*
D03*
Y847598D02*
D03*
X1047750Y730504D02*
D03*
D28*
X1088136Y899414D02*
D03*
X990600Y824992D02*
D03*
Y885698D02*
D03*
D29*
X1060450Y730504D02*
D03*
M02*
