%FSTAX23Y23*%
%MOIN*%
%SFA1B1*%

%IPPOS*%
%ADD15R,0.027559X0.023622*%
%ADD16R,0.023622X0.027559*%
%ADD17R,0.013780X0.007087*%
%ADD18R,0.011811X0.037008*%
%ADD19O,0.011811X0.051181*%
%ADD20O,0.051181X0.011811*%
%ADD21R,0.053150X0.015748*%
%ADD22R,0.061024X0.059055*%
%ADD23R,0.055118X0.047244*%
%ADD24R,0.009843X0.021654*%
%ADD25R,0.066929X0.060630*%
%ADD26O,0.007874X0.025591*%
%ADD27O,0.025591X0.007874*%
%ADD28O,0.027559X0.009843*%
%ADD29O,0.009843X0.027559*%
%ADD30R,0.102362X0.102362*%
%ADD31R,0.051181X0.059055*%
%ADD32R,0.035433X0.011811*%
%ADD33R,0.033465X0.011811*%
%ADD34R,0.041339X0.039370*%
%ADD35R,0.086614X0.041339*%
%ADD69C,0.031000*%
%ADD79O,0.037401X0.049212*%
%ADD80O,0.061024X0.035433*%
%ADD81R,0.059055X0.059055*%
%ADD82C,0.059055*%
%ADD83R,0.059055X0.059055*%
%LNcore_prototype_1-1*%
%LPD*%
G54D15*
X041Y03485D03*
Y03525D03*
X03785Y0293D03*
Y0297D03*
X03628Y03096D03*
Y03135D03*
X04594Y03134D03*
Y03095D03*
X04538Y03199D03*
Y0316D03*
X0449Y03199D03*
Y0316D03*
X0455Y0272D03*
Y0268D03*
X04594Y0293D03*
Y0297D03*
X03895Y03275D03*
Y03235D03*
X0377Y03535D03*
Y03575D03*
X0387Y03535D03*
Y03574D03*
X0382Y03535D03*
Y03574D03*
X0415Y03524D03*
Y03485D03*
X042Y03524D03*
Y03485D03*
X04095Y0327D03*
Y03309D03*
Y0336D03*
Y03399D03*
X04355Y0283D03*
Y02869D03*
X04594Y02874D03*
Y02835D03*
X0377Y0316D03*
Y03199D03*
Y03114D03*
Y03075D03*
G54D16*
X0437Y026D03*
X04409D03*
X044Y0316D03*
X04439D03*
X0384Y03325D03*
X0388D03*
X03759Y03345D03*
X0372D03*
X03759Y0329D03*
X0372D03*
X03834Y03475D03*
X03795D03*
X04145Y0331D03*
X04184D03*
X04145Y0336D03*
X04184D03*
X0447Y026D03*
X04509D03*
G54D17*
X03723Y03129D03*
Y03145D03*
Y0316D03*
X03676Y03129D03*
Y03145D03*
Y0316D03*
G54D18*
X037Y03145D03*
G54D19*
X03922Y03167D03*
X03942D03*
X03961D03*
X03981D03*
X04001D03*
X0402D03*
X0404D03*
X0406D03*
X04079D03*
X04099D03*
X04119D03*
X04138D03*
X04158D03*
X04178D03*
X04197D03*
X04217D03*
Y02722D03*
X04197D03*
X04178D03*
X04158D03*
X04138D03*
X04119D03*
X04099D03*
X04079D03*
X0406D03*
X0404D03*
X0402D03*
X04001D03*
X03981D03*
X03961D03*
X03942D03*
X03922D03*
G54D20*
X04292Y03092D03*
Y03072D03*
Y03053D03*
Y03033D03*
Y03013D03*
Y02994D03*
Y02974D03*
Y02954D03*
Y02935D03*
Y02915D03*
Y02895D03*
Y02876D03*
Y02856D03*
Y02836D03*
Y02817D03*
Y02797D03*
X03847D03*
Y02817D03*
Y02836D03*
Y02856D03*
Y02876D03*
Y02895D03*
Y02915D03*
Y02935D03*
Y02954D03*
Y02974D03*
Y02994D03*
Y03013D03*
Y03033D03*
Y03053D03*
Y03072D03*
Y03092D03*
G54D21*
X03568Y03131D03*
Y03105D03*
Y0308D03*
Y03054D03*
Y03028D03*
G54D22*
X03461Y03119D03*
Y0304D03*
G54D23*
X04517Y02896D03*
Y02833D03*
X04431Y02896D03*
Y02833D03*
G54D24*
X04619Y0305D03*
X04599D03*
X04579D03*
Y03016D03*
X04599D03*
X04619D03*
G54D25*
X04445Y02705D03*
G54D26*
X04405Y02767D03*
X04421D03*
X04437D03*
X04452D03*
X04468D03*
X04484D03*
Y02642D03*
X04468D03*
X04452D03*
X04437D03*
X04421D03*
X04405D03*
G54D27*
X04507Y02744D03*
Y02728D03*
Y02712D03*
Y02697D03*
Y02681D03*
Y02665D03*
X04382D03*
Y02681D03*
Y02697D03*
Y02712D03*
Y02728D03*
Y02744D03*
G54D28*
X04402Y03082D03*
Y03062D03*
Y03042D03*
Y03023D03*
Y03003D03*
X04547D03*
Y03023D03*
Y03042D03*
Y03062D03*
Y03082D03*
G54D29*
X04435Y0297D03*
X04455D03*
X04475D03*
X04494D03*
X04514D03*
Y03115D03*
X04494D03*
X04475D03*
X04455D03*
X04435D03*
G54D30*
X04475Y03042D03*
G54D31*
X03858Y0341D03*
X03791D03*
G54D32*
X04035Y03265D03*
Y03285D03*
Y03305D03*
Y03324D03*
Y03344D03*
Y03364D03*
Y03384D03*
Y03461D03*
Y03424D03*
Y03404D03*
X03944D03*
Y03424D03*
Y03461D03*
Y03384D03*
Y03364D03*
Y03344D03*
Y03324D03*
Y03305D03*
Y03285D03*
Y03265D03*
G54D33*
X03989Y03265D03*
Y03461D03*
G54D34*
X04664Y0305D03*
G54D35*
X04715Y02991D03*
Y03108D03*
G54D69*
X04595Y03465D03*
X04645D03*
X04595Y03415D03*
X04645D03*
X04595Y03365D03*
X04645D03*
G54D79*
X03568Y02981D03*
Y03178D03*
G54D80*
X03461Y02942D03*
Y03217D03*
G54D81*
X0436Y0329D03*
G54D82*
X0436Y0339D03*
X03755Y0274D03*
G54D83*
X03655Y0274D03*
M02*