%FSTAX23Y23*%
%MOIN*%
%SFA1B1*%

%IPPOS*%
%ADD10C,0.003937*%
%LNcore_prototype_1-1*%
%LPD*%
G54D10*
X03928Y03106D02*
D01*
X03928Y03107*
X03928Y03109*
X03927Y0311*
X03927Y03111*
X03927Y03113*
X03926Y03114*
X03925Y03115*
X03925Y03116*
X03924Y03117*
X03923Y03119*
X03922Y0312*
X03921Y03121*
X0392Y03121*
X03919Y03122*
X03918Y03123*
X03917Y03124*
X03915Y03124*
X03914Y03125*
X03913Y03125*
X03912Y03125*
X0391Y03125*
X03909Y03126*
X03907*
X03906Y03125*
X03905Y03125*
X03903Y03125*
X03902Y03125*
X03901Y03124*
X03899Y03124*
X03898Y03123*
X03897Y03122*
X03896Y03121*
X03895Y03121*
X03894Y0312*
X03893Y03119*
X03892Y03117*
X03891Y03116*
X03891Y03115*
X0389Y03114*
X0389Y03113*
X03889Y03111*
X03889Y0311*
X03889Y03109*
X03888Y03107*
X03888Y03106*
X03888Y03105*
X03889Y03103*
X03889Y03102*
X03889Y031*
X0389Y03099*
X0389Y03098*
X03891Y03097*
X03891Y03095*
X03892Y03094*
X03893Y03093*
X03894Y03092*
X03895Y03091*
X03896Y0309*
X03897Y0309*
X03898Y03089*
X03899Y03088*
X03901Y03088*
X03902Y03087*
X03903Y03087*
X03905Y03087*
X03906Y03086*
X03907Y03086*
X03909*
X0391Y03086*
X03912Y03087*
X03913Y03087*
X03914Y03087*
X03915Y03088*
X03917Y03088*
X03918Y03089*
X03919Y0309*
X0392Y0309*
X03921Y03091*
X03922Y03092*
X03923Y03093*
X03924Y03094*
X03925Y03095*
X03925Y03097*
X03926Y03098*
X03927Y03099*
X03927Y031*
X03927Y03102*
X03928Y03103*
X03928Y03105*
X03928Y03106*
X04439Y0273D02*
D01*
X04439Y02731*
X04438Y02733*
X04438Y02734*
X04438Y02736*
X04437Y02737*
X04437Y02738*
X04436Y02739*
X04436Y02741*
X04435Y02742*
X04434Y02743*
X04433Y02744*
X04432Y02745*
X04431Y02746*
X0443Y02746*
X04429Y02747*
X04428Y02748*
X04426Y02748*
X04425Y02749*
X04424Y02749*
X04422Y02749*
X04421Y0275*
X0442Y0275*
X04418*
X04417Y0275*
X04415Y02749*
X04414Y02749*
X04413Y02749*
X04412Y02748*
X0441Y02748*
X04409Y02747*
X04408Y02746*
X04407Y02746*
X04406Y02745*
X04405Y02744*
X04404Y02743*
X04403Y02742*
X04402Y02741*
X04402Y02739*
X04401Y02738*
X044Y02737*
X044Y02736*
X044Y02734*
X04399Y02733*
X04399Y02731*
X04399Y0273*
X04399Y02729*
X04399Y02727*
X044Y02726*
X044Y02725*
X044Y02723*
X04401Y02722*
X04402Y02721*
X04402Y0272*
X04403Y02719*
X04404Y02717*
X04405Y02716*
X04406Y02715*
X04407Y02715*
X04408Y02714*
X04409Y02713*
X0441Y02712*
X04412Y02712*
X04413Y02711*
X04414Y02711*
X04415Y02711*
X04417Y02711*
X04418Y0271*
X0442*
X04421Y02711*
X04422Y02711*
X04424Y02711*
X04425Y02711*
X04426Y02712*
X04428Y02712*
X04429Y02713*
X0443Y02714*
X04431Y02715*
X04432Y02715*
X04433Y02716*
X04434Y02717*
X04435Y02719*
X04436Y0272*
X04436Y02721*
X04437Y02722*
X04437Y02723*
X04438Y02725*
X04438Y02726*
X04438Y02727*
X04439Y02729*
X04439Y0273*
X04451Y03086D02*
D01*
X04451Y03087*
X04451Y03088*
X0445Y0309*
X0445Y03091*
X0445Y03092*
X04449Y03094*
X04449Y03095*
X04448Y03096*
X04447Y03097*
X04446Y03098*
X04445Y03099*
X04444Y031*
X04443Y03101*
X04442Y03102*
X04441Y03103*
X0444Y03103*
X04439Y03104*
X04437Y03104*
X04436Y03105*
X04435Y03105*
X04433Y03105*
X04432Y03105*
X04431*
X04429Y03105*
X04428Y03105*
X04426Y03105*
X04425Y03104*
X04424Y03104*
X04423Y03103*
X04421Y03103*
X0442Y03102*
X04419Y03101*
X04418Y031*
X04417Y03099*
X04416Y03098*
X04415Y03097*
X04414Y03096*
X04414Y03095*
X04413Y03094*
X04413Y03092*
X04412Y03091*
X04412Y0309*
X04412Y03088*
X04412Y03087*
X04412Y03086*
X04412Y03084*
X04412Y03083*
X04412Y03082*
X04412Y0308*
X04413Y03079*
X04413Y03078*
X04414Y03076*
X04414Y03075*
X04415Y03074*
X04416Y03073*
X04417Y03072*
X04418Y03071*
X04419Y0307*
X0442Y03069*
X04421Y03069*
X04423Y03068*
X04424Y03067*
X04425Y03067*
X04426Y03067*
X04428Y03066*
X04429Y03066*
X04431Y03066*
X04432*
X04433Y03066*
X04435Y03066*
X04436Y03067*
X04437Y03067*
X04439Y03067*
X0444Y03068*
X04441Y03069*
X04442Y03069*
X04443Y0307*
X04444Y03071*
X04445Y03072*
X04446Y03073*
X04447Y03074*
X04448Y03075*
X04449Y03076*
X04449Y03078*
X0445Y03079*
X0445Y0308*
X0445Y03082*
X04451Y03083*
X04451Y03084*
X04451Y03086*
X04754Y0305D02*
D01*
X04754Y03052*
X04754Y03055*
X04754Y03058*
X04753Y0306*
X04752Y03063*
X04751Y03066*
X0475Y03068*
X04748Y0307*
X04747Y03073*
X04745Y03075*
X04743Y03077*
X04741Y03079*
X04739Y03081*
X04737Y03082*
X04735Y03084*
X04732Y03085*
X0473Y03086*
X04727Y03087*
X04725Y03088*
X04722Y03088*
X04719Y03089*
X04716Y03089*
X04714*
X04711Y03089*
X04708Y03088*
X04706Y03088*
X04703Y03087*
X047Y03086*
X04698Y03085*
X04695Y03084*
X04693Y03082*
X04691Y03081*
X04689Y03079*
X04687Y03077*
X04685Y03075*
X04683Y03073*
X04682Y0307*
X0468Y03068*
X04679Y03066*
X04678Y03063*
X04677Y0306*
X04677Y03058*
X04676Y03055*
X04676Y03052*
X04676Y0305*
X04676Y03047*
X04676Y03044*
X04677Y03041*
X04677Y03039*
X04678Y03036*
X04679Y03033*
X0468Y03031*
X04682Y03029*
X04683Y03026*
X04685Y03024*
X04687Y03022*
X04689Y0302*
X04691Y03018*
X04693Y03017*
X04695Y03015*
X04698Y03014*
X047Y03013*
X04703Y03012*
X04706Y03011*
X04708Y03011*
X04711Y0301*
X04714Y0301*
X04716*
X04719Y0301*
X04722Y03011*
X04725Y03011*
X04727Y03012*
X0473Y03013*
X04732Y03014*
X04735Y03015*
X04737Y03017*
X04739Y03018*
X04741Y0302*
X04743Y03022*
X04745Y03024*
X04747Y03026*
X04748Y03029*
X0475Y03031*
X04751Y03033*
X04752Y03036*
X04753Y03039*
X04754Y03041*
X04754Y03044*
X04754Y03047*
X04754Y0305*
X04088Y03487D02*
X04111D01*
X04088Y0353D02*
X04111D01*
X04088Y03487D02*
Y0353D01*
X04111Y03487D02*
Y0353D01*
X04371Y02588D02*
Y02611D01*
X04415Y02588D02*
Y02611D01*
X04371D02*
X04415D01*
X04371Y02588D02*
X04415D01*
X03773Y02932D02*
X03796D01*
X03773Y02975D02*
X03796D01*
X03773Y02932D02*
Y02975D01*
X03796Y02932D02*
Y02975D01*
X03616Y03098D02*
X0364D01*
X03616Y03141D02*
X0364D01*
X03616Y03098D02*
Y03141D01*
X0364Y03098D02*
Y03141D01*
X03723Y03121D02*
Y03168D01*
X03676Y03121D02*
Y03168D01*
Y03121D02*
X03723D01*
X03676Y03168D02*
X03723D01*
X03873Y02748D02*
X04266D01*
X03873Y03141D02*
X04266D01*
Y02748D02*
Y03141D01*
X03873Y02748D02*
Y03141D01*
X03377Y02942D02*
Y03217D01*
Y02942D02*
X03574D01*
X03377Y03217D02*
X03574D01*
Y02942D02*
Y03217D01*
X04582Y03133D02*
X04606D01*
X04582Y03089D02*
X04606D01*
Y03133*
X04582Y03089D02*
Y03133D01*
X04401Y03148D02*
Y03171D01*
X04444Y03148D02*
Y03171D01*
X04401D02*
X04444D01*
X04401Y03148D02*
X04444D01*
X04526Y03198D02*
X04549D01*
X04526Y03154D02*
X04549D01*
Y03198*
X04526Y03154D02*
Y03198D01*
X04478D02*
X04501D01*
X04478Y03154D02*
X04501D01*
Y03198*
X04478Y03154D02*
Y03198D01*
X04538Y02718D02*
X04561D01*
X04538Y02675D02*
X04561D01*
Y02718*
X04538Y02675D02*
Y02718D01*
X04582Y02932D02*
X04606D01*
X04582Y02975D02*
X04606D01*
X04582Y02932D02*
Y02975D01*
X04606Y02932D02*
Y02975D01*
X04409Y02814D02*
X04539D01*
X04409Y02916D02*
X04539D01*
Y02814D02*
Y02916D01*
X04409Y02814D02*
Y02916D01*
X04383Y02643D02*
X04506D01*
X04383Y02766D02*
X04506D01*
Y02643D02*
Y02766D01*
X04383Y02643D02*
Y02766D01*
X04396Y02964D02*
Y03121D01*
X04553Y02964D02*
Y03121D01*
X04396D02*
X04553D01*
X04396Y02964D02*
X04553D01*
X03883Y03273D02*
X03906D01*
X03883Y0323D02*
X03906D01*
Y03273*
X03883Y0323D02*
Y03273D01*
X03842Y03313D02*
Y03336D01*
X03885Y03313D02*
Y03336D01*
X03842D02*
X03885D01*
X03842Y03313D02*
X03885D01*
X03781Y03381D02*
X03868D01*
X03781Y03438D02*
X03868D01*
Y03381D02*
Y03438D01*
X03781Y03381D02*
Y03438D01*
X03758Y03537D02*
X03781D01*
X03758Y0358D02*
X03781D01*
X03758Y03537D02*
Y0358D01*
X03781Y03537D02*
Y0358D01*
X03721Y03333D02*
X03765D01*
X03721Y03356D02*
X03765D01*
Y03333D02*
Y03356D01*
X03721Y03333D02*
Y03356D01*
X03721Y03278D02*
X03764D01*
X03721Y03301D02*
X03764D01*
Y03278D02*
Y03301D01*
X03721Y03278D02*
Y03301D01*
X03796Y03463D02*
X0384D01*
X03796Y03486D02*
X0384D01*
Y03463D02*
Y03486D01*
X03796Y03463D02*
Y03486D01*
X03858Y03529D02*
Y03572D01*
X03881Y03529D02*
Y03572D01*
X03858Y03529D02*
X03881D01*
X03858Y03572D02*
X03881D01*
X03808Y03529D02*
Y03572D01*
X03831Y03529D02*
Y03572D01*
X03808Y03529D02*
X03831D01*
X03808Y03572D02*
X03831D01*
X04161Y03486D02*
Y0353D01*
X04138Y03486D02*
Y0353D01*
X04161*
X04138Y03486D02*
X04161D01*
X04211Y03486D02*
Y03529D01*
X04188Y03486D02*
Y03529D01*
X04211*
X04188Y03486D02*
X04211D01*
X04054Y03253D02*
Y03473D01*
X03924D02*
X04054D01*
X03924Y03253D02*
X04054D01*
X03924D02*
Y03473D01*
X04083Y03264D02*
Y03308D01*
X04106Y03264D02*
Y03308D01*
X04083Y03264D02*
X04106D01*
X04083Y03308D02*
X04106D01*
X04139Y03321D02*
X04183D01*
X04139Y03298D02*
X04183D01*
X04139D02*
Y03321D01*
X04183Y03298D02*
Y03321D01*
X04083Y03354D02*
Y03398D01*
X04106Y03354D02*
Y03398D01*
X04083Y03354D02*
X04106D01*
X04083Y03398D02*
X04106D01*
X04139Y03371D02*
X04183D01*
X04139Y03348D02*
X04183D01*
X04139D02*
Y03371D01*
X04183Y03348D02*
Y03371D01*
X04343Y02824D02*
Y02868D01*
X04366Y02824D02*
Y02868D01*
X04343Y02824D02*
X04366D01*
X04343Y02868D02*
X04366D01*
X04606Y02836D02*
Y02879D01*
X04582Y02836D02*
Y02879D01*
X04606*
X04582Y02836D02*
X04606D01*
X04664Y03101D02*
X04766D01*
X04664Y02998D02*
Y03101D01*
Y02998D02*
X04766D01*
Y03101*
X04464Y02611D02*
X04507D01*
X04464Y02588D02*
X04507D01*
X04464D02*
Y02611D01*
X04507Y02588D02*
Y02611D01*
X03758Y03154D02*
Y03197D01*
X03781Y03154D02*
Y03197D01*
X03758Y03154D02*
X03781D01*
X03758Y03197D02*
X03781D01*
Y03076D02*
Y0312D01*
X03758Y03076D02*
Y0312D01*
X03781*
X03758Y03076D02*
X03781D01*
M02*