M48
;Layer_Color=9474304
;FILE_FORMAT=2:5
INCH,LZ
;TYPE=PLATED
T1F00S00C0.00787
T2F00S00C0.01200
T5F00S00C0.02362
T6F00S00C0.03543
;TYPE=NON_PLATED
T7F00S00C0.03900
T8F00S00C0.09350
%
T01
X0445335Y0302118
Y0306449
X0449665
Y0302118
T02
X046938Y02947
X0475Y029
X0465Y031
X04577Y0308
X04365Y03045
Y03015
X04364Y02986
X04365Y02955
X04396Y02929
X04436Y0294
X0425Y029
X04235Y0274
X04297Y02762
X04341Y02718
X043Y026
X042
X0406137Y0268095
X041Y028
X04073Y02828
X04048Y02849
X04069Y02913
X041Y03
X0416Y0303
X0414Y0311
X04185
X0395Y031
Y029
X039Y02944
X03807Y02953
X038Y03
Y028
X039
X04
X0385Y027
X038Y026
X04425Y02585
X04515Y0264
X0457Y0267
X04625Y02632
X046Y032
X04504Y03161
X04416Y03125
X04322Y03131
X04313Y03232
X04261Y03231
X04263Y03278
X042Y034
X0425Y035
X0430259Y0347659
X0435Y035
X04426Y03345
X04448Y03308
X0457Y0331
X0465Y033
X04035Y03226
X039Y032
X03914Y03283
X03978Y03331
X03957Y03369
X038Y034
X03782Y03245
X04739Y03457
X0475Y035
T05
X04708Y02734
Y02784
Y02834
Y02884
X04342Y033
Y0335
Y034
Y0345
X03876Y03504
X03826
X03858Y03406
Y03356
Y03306
T06
X03892Y02629
X03992
T07
X04522Y03335
X04602
X04562Y03535
T08
X04462Y0341
Y03535
X04662
Y0341
M30
