G04*
G04 #@! TF.GenerationSoftware,Altium Limited,Altium Designer,19.1.7 (138)*
G04*
G04 Layer_Color=8421504*
%FSLAX44Y44*%
%MOMM*%
G71*
G01*
G75*
%ADD15R,0.7000X0.6000*%
%ADD16R,1.0500X0.6000*%
%ADD17O,0.7000X0.2500*%
%ADD18O,0.2500X0.7000*%
%ADD19R,2.6000X2.6000*%
%ADD20R,0.6000X0.7000*%
%ADD21O,0.3000X1.3000*%
%ADD22O,1.3000X0.3000*%
%ADD23R,0.4000X1.3500*%
%ADD24R,1.5000X1.5500*%
%ADD25R,1.4000X1.2000*%
%ADD26R,0.2500X0.5500*%
%ADD27R,1.7000X1.5400*%
%ADD28O,0.2000X0.6500*%
%ADD29O,0.6500X0.2000*%
%ADD30R,1.0500X1.0000*%
%ADD31R,2.2000X1.0500*%
%ADD32R,1.2000X1.5500*%
%ADD33R,1.2000X1.5500*%
D15*
X1179830Y741252D02*
D03*
Y751252D02*
D03*
X957834Y744808D02*
D03*
Y754808D02*
D03*
X1166970Y796210D02*
D03*
Y786210D02*
D03*
X1152660Y812720D02*
D03*
Y802720D02*
D03*
X1140460Y817292D02*
D03*
Y807292D02*
D03*
X1155700Y690880D02*
D03*
Y680880D02*
D03*
X1166970Y744380D02*
D03*
Y754380D02*
D03*
X1106170Y718900D02*
D03*
Y728900D02*
D03*
X1166970Y730090D02*
D03*
Y720090D02*
D03*
X1071626Y828374D02*
D03*
Y838374D02*
D03*
D16*
X1030190Y828446D02*
D03*
Y837946D02*
D03*
Y847446D02*
D03*
X1057690D02*
D03*
Y837946D02*
D03*
Y828446D02*
D03*
D17*
X1118150Y782880D02*
D03*
Y777880D02*
D03*
Y772880D02*
D03*
Y767880D02*
D03*
Y762880D02*
D03*
X1155150D02*
D03*
Y767880D02*
D03*
Y772880D02*
D03*
Y777880D02*
D03*
Y782880D02*
D03*
D18*
X1126650Y754380D02*
D03*
X1131650D02*
D03*
X1136650D02*
D03*
X1141650D02*
D03*
X1146650D02*
D03*
Y791380D02*
D03*
X1141650D02*
D03*
X1136650D02*
D03*
X1131650D02*
D03*
X1126650D02*
D03*
D19*
X1136650Y772880D02*
D03*
D20*
X1110060Y660400D02*
D03*
X1120060D02*
D03*
X1005920Y838454D02*
D03*
X1015920D02*
D03*
X1117600Y802640D02*
D03*
X1127600D02*
D03*
X1135380Y660400D02*
D03*
X1145380D02*
D03*
X1016174Y826008D02*
D03*
X1006174D02*
D03*
D21*
X996280Y804530D02*
D03*
X1001280D02*
D03*
X1006280D02*
D03*
X1011280D02*
D03*
X1016280D02*
D03*
X1021280D02*
D03*
X1026280D02*
D03*
X1031280D02*
D03*
X1036280D02*
D03*
X1041280D02*
D03*
X1046280D02*
D03*
X1051280D02*
D03*
X1056280D02*
D03*
X1061280D02*
D03*
X1066280D02*
D03*
X1071280D02*
D03*
Y691530D02*
D03*
X1066280D02*
D03*
X1061280D02*
D03*
X1056280D02*
D03*
X1051280D02*
D03*
X1046280D02*
D03*
X1041280D02*
D03*
X1036280D02*
D03*
X1031280D02*
D03*
X1026280D02*
D03*
X1021280D02*
D03*
X1016280D02*
D03*
X1011280D02*
D03*
X1006280D02*
D03*
X1001280D02*
D03*
X996280D02*
D03*
D22*
X1090280Y785530D02*
D03*
Y780530D02*
D03*
Y775530D02*
D03*
Y770530D02*
D03*
Y765530D02*
D03*
Y760530D02*
D03*
Y755530D02*
D03*
Y750530D02*
D03*
Y745530D02*
D03*
Y740530D02*
D03*
Y735530D02*
D03*
Y730530D02*
D03*
Y725530D02*
D03*
Y720530D02*
D03*
Y715530D02*
D03*
Y710530D02*
D03*
X977280D02*
D03*
Y715530D02*
D03*
Y720530D02*
D03*
Y725530D02*
D03*
Y730530D02*
D03*
Y735530D02*
D03*
Y740530D02*
D03*
Y745530D02*
D03*
Y750530D02*
D03*
Y755530D02*
D03*
Y760530D02*
D03*
Y765530D02*
D03*
Y770530D02*
D03*
Y775530D02*
D03*
Y780530D02*
D03*
Y785530D02*
D03*
D23*
X1052674Y872922D02*
D03*
X1046174D02*
D03*
X1039674D02*
D03*
X1033174D02*
D03*
X1026674D02*
D03*
D24*
X1049674Y899922D02*
D03*
X1029674D02*
D03*
D25*
X1147478Y735802D02*
D03*
Y719802D02*
D03*
X1125478Y735802D02*
D03*
Y719802D02*
D03*
D26*
X1177718Y774446D02*
D03*
X1172718D02*
D03*
X1167718D02*
D03*
Y765946D02*
D03*
X1172718D02*
D03*
X1177718D02*
D03*
D27*
X1129030Y687070D02*
D03*
D28*
X1119030Y702820D02*
D03*
X1123030D02*
D03*
X1127030D02*
D03*
X1131030D02*
D03*
X1135030D02*
D03*
X1139030D02*
D03*
Y671320D02*
D03*
X1135030D02*
D03*
X1131030D02*
D03*
X1127030D02*
D03*
X1123030D02*
D03*
X1119030D02*
D03*
D29*
X1144780Y697070D02*
D03*
Y693070D02*
D03*
Y689070D02*
D03*
Y685070D02*
D03*
Y681070D02*
D03*
Y677070D02*
D03*
X1113280D02*
D03*
Y681070D02*
D03*
Y685070D02*
D03*
Y689070D02*
D03*
Y693070D02*
D03*
Y697070D02*
D03*
D30*
X1187658Y774954D02*
D03*
D31*
X1200658Y760204D02*
D03*
Y789704D02*
D03*
D32*
X1068674Y899922D02*
D03*
D33*
X1010674Y899922D02*
D03*
M02*
