G04*
G04 #@! TF.GenerationSoftware,Altium Limited,Altium Designer,19.1.7 (138)*
G04*
G04 Layer_Color=16711935*
%FSLAX44Y44*%
%MOMM*%
G71*
G01*
G75*
%ADD53C,0.1000*%
D53*
X1130650Y783880D02*
G03*
X1130650Y783880I-5000J0D01*
G01*
X997780Y789030D02*
G03*
X997780Y789030I-5000J0D01*
G01*
X1127530Y693570D02*
G03*
X1127530Y693570I-5000J0D01*
G01*
X1210658Y774954D02*
G03*
X1210658Y774954I-10000J0D01*
G01*
X1176830Y739832D02*
Y750832D01*
X1182830Y739832D02*
Y750832D01*
X1176830Y739832D02*
X1182830D01*
X1176830Y750832D02*
X1182830D01*
X1035440Y853446D02*
X1052440D01*
X1035440Y822446D02*
X1052440D01*
X1035440D02*
Y853446D01*
X1052440Y822446D02*
Y853446D01*
X1116650Y752880D02*
Y792880D01*
X1156650Y752880D02*
Y792880D01*
X1116650D02*
X1156650D01*
X1116650Y752880D02*
X1156650D01*
X1110480Y657400D02*
Y663400D01*
X1121480Y657400D02*
Y663400D01*
X1110480D02*
X1121480D01*
X1110480Y657400D02*
X1121480D01*
X954834Y745228D02*
X960834D01*
X954834Y756228D02*
X960834D01*
X954834Y745228D02*
Y756228D01*
X960834Y745228D02*
Y756228D01*
X1006340Y835454D02*
Y841454D01*
X1017340Y835454D02*
Y841454D01*
X1006340D02*
X1017340D01*
X1006340Y835454D02*
X1017340D01*
X983780Y698030D02*
X1083780D01*
X983780Y798030D02*
X1083780D01*
Y698030D02*
Y798030D01*
X983780Y698030D02*
Y798030D01*
X1004674Y921422D02*
X1074674D01*
X1004674Y871422D02*
Y921422D01*
X1074674Y871422D02*
Y921422D01*
X1004674Y871422D02*
X1074674D01*
X1163970Y795790D02*
X1169970D01*
X1163970Y784790D02*
X1169970D01*
Y795790D01*
X1163970Y784790D02*
Y795790D01*
X1118020Y799640D02*
Y805640D01*
X1129020Y799640D02*
Y805640D01*
X1118020D02*
X1129020D01*
X1118020Y799640D02*
X1129020D01*
X1149660Y812300D02*
X1155660D01*
X1149660Y801300D02*
X1155660D01*
Y812300D01*
X1149660Y801300D02*
Y812300D01*
X1137460Y816872D02*
X1143460D01*
X1137460Y805872D02*
X1143460D01*
Y816872D01*
X1137460Y805872D02*
Y816872D01*
X1152700Y690460D02*
X1158700D01*
X1152700Y679460D02*
X1158700D01*
Y690460D01*
X1152700Y679460D02*
Y690460D01*
X1163970Y744800D02*
X1169970D01*
X1163970Y755800D02*
X1169970D01*
X1163970Y744800D02*
Y755800D01*
X1169970Y744800D02*
Y755800D01*
X1119978Y714802D02*
X1152978D01*
X1119978Y740802D02*
X1152978D01*
Y714802D02*
Y740802D01*
X1119978Y714802D02*
Y740802D01*
X1113530Y671570D02*
X1144530D01*
X1113530Y702570D02*
X1144530D01*
Y671570D02*
Y702570D01*
X1113530Y671570D02*
Y702570D01*
X1103170Y717480D02*
Y728480D01*
X1109170Y717480D02*
Y728480D01*
X1103170Y717480D02*
X1109170D01*
X1103170Y728480D02*
X1109170D01*
X1169970Y720510D02*
Y731510D01*
X1163970Y720510D02*
Y731510D01*
X1169970D01*
X1163970Y720510D02*
X1169970D01*
X1187658Y787954D02*
X1213658D01*
X1187658Y761954D02*
Y787954D01*
Y761954D02*
X1213658D01*
Y787954D01*
X1133960Y663400D02*
X1144960D01*
X1133960Y657400D02*
X1144960D01*
X1133960D02*
Y663400D01*
X1144960Y657400D02*
Y663400D01*
X1006594Y823008D02*
X1017594D01*
X1006594Y829008D02*
X1017594D01*
Y823008D02*
Y829008D01*
X1006594Y823008D02*
Y829008D01*
X1068626Y826954D02*
Y837954D01*
X1074626Y826954D02*
Y837954D01*
X1068626Y826954D02*
X1074626D01*
X1068626Y837954D02*
X1074626D01*
M02*
