G04*
G04 #@! TF.GenerationSoftware,Altium Limited,Altium Designer,19.1.7 (138)*
G04*
G04 Layer_Color=32768*
%FSLAX44Y44*%
%MOMM*%
G71*
G01*
G75*
%ADD53C,0.1000*%
%ADD54C,0.0500*%
D53*
X1176830Y746252D02*
X1182830D01*
X1179830Y743252D02*
Y749252D01*
X1173830Y734822D02*
Y757832D01*
X1185830Y734822D02*
Y757832D01*
X1173830Y734822D02*
X1185830D01*
X1173830Y757832D02*
X1185830D01*
X1043940Y832946D02*
Y842946D01*
X1038940Y837946D02*
X1048940D01*
X1131650Y772880D02*
X1141650D01*
X1136650Y767880D02*
Y777880D01*
X1103480Y654400D02*
Y666400D01*
X1126490Y654400D02*
Y666400D01*
X1103480D02*
X1126490D01*
X1103480Y654400D02*
X1126490D01*
X1112060Y660400D02*
X1118060D01*
X1115060Y657400D02*
Y663400D01*
X951834Y738228D02*
X963834D01*
X951834Y761238D02*
X963834D01*
X951834Y738228D02*
Y761238D01*
X963834Y738228D02*
Y761238D01*
X957834Y746808D02*
Y752808D01*
X954834Y749808D02*
X960834D01*
X999340Y832454D02*
Y844454D01*
X1022350Y832454D02*
Y844454D01*
X999340D02*
X1022350D01*
X999340Y832454D02*
X1022350D01*
X1007920Y838454D02*
X1013920D01*
X1010920Y835454D02*
Y841454D01*
X1033780Y743030D02*
Y753030D01*
X1028780Y748030D02*
X1038780D01*
X1034674Y886422D02*
X1044674D01*
X1039674Y881422D02*
Y891422D01*
X1160970Y802790D02*
X1172970D01*
X1160970Y779780D02*
X1172970D01*
Y802790D01*
X1160970Y779780D02*
Y802790D01*
X1166970Y788210D02*
Y794210D01*
X1163970Y791210D02*
X1169970D01*
X1111020Y796640D02*
Y808640D01*
X1134030Y796640D02*
Y808640D01*
X1111020D02*
X1134030D01*
X1111020Y796640D02*
X1134030D01*
X1119600Y802640D02*
X1125600D01*
X1122600Y799640D02*
Y805640D01*
X1146660Y819300D02*
X1158660D01*
X1146660Y796290D02*
X1158660D01*
Y819300D01*
X1146660Y796290D02*
Y819300D01*
X1152660Y804720D02*
Y810720D01*
X1149660Y807720D02*
X1155660D01*
X1134460Y823872D02*
X1146460D01*
X1134460Y800862D02*
X1146460D01*
Y823872D01*
X1134460Y800862D02*
Y823872D01*
X1140460Y809292D02*
Y815292D01*
X1137460Y812292D02*
X1143460D01*
X1149700Y697460D02*
X1161700D01*
X1149700Y674450D02*
X1161700D01*
Y697460D01*
X1149700Y674450D02*
Y697460D01*
X1155700Y682880D02*
Y688880D01*
X1152700Y685880D02*
X1158700D01*
X1160970Y737800D02*
X1172970D01*
X1160970Y760810D02*
X1172970D01*
X1160970Y737800D02*
Y760810D01*
X1172970Y737800D02*
Y760810D01*
X1166970Y746380D02*
Y752380D01*
X1163970Y749380D02*
X1169970D01*
X1136478Y722802D02*
Y732802D01*
X1131478Y727802D02*
X1141478D01*
X1129030Y682070D02*
Y692070D01*
X1124030Y687070D02*
X1134030D01*
X1103170Y723900D02*
X1109170D01*
X1106170Y720900D02*
Y726900D01*
X1100170Y712470D02*
Y735480D01*
X1112170Y712470D02*
Y735480D01*
X1100170Y712470D02*
X1112170D01*
X1100170Y735480D02*
X1112170D01*
X1163970Y725090D02*
X1169970D01*
X1166970Y722090D02*
Y728090D01*
X1172970Y713510D02*
Y736520D01*
X1160970Y713510D02*
Y736520D01*
X1172970D01*
X1160970Y713510D02*
X1172970D01*
X1200658Y769954D02*
Y779954D01*
X1195658Y774954D02*
X1205658D01*
X1140380Y657400D02*
Y663400D01*
X1137380Y660400D02*
X1143380D01*
X1128950Y666400D02*
X1151960D01*
X1128950Y654400D02*
X1151960D01*
X1128950D02*
Y666400D01*
X1151960Y654400D02*
Y666400D01*
X1011174Y823008D02*
Y829008D01*
X1008174Y826008D02*
X1014174D01*
X999594Y820008D02*
X1022604D01*
X999594Y832008D02*
X1022604D01*
Y820008D02*
Y832008D01*
X999594Y820008D02*
Y832008D01*
X1068626Y833374D02*
X1074626D01*
X1071626Y830374D02*
Y836374D01*
X1065626Y821944D02*
Y844954D01*
X1077626Y821944D02*
Y844954D01*
X1065626Y821944D02*
X1077626D01*
X1065626Y844954D02*
X1077626D01*
D54*
X1022690Y855946D02*
X1065190D01*
X1022690Y819946D02*
X1065190D01*
X1022690D02*
Y855946D01*
X1065190Y819946D02*
Y855946D01*
X1113400Y749630D02*
Y796130D01*
X1159900Y749630D02*
Y796130D01*
X1113400D02*
X1159900D01*
X1113400Y749630D02*
X1159900D01*
X968530Y682780D02*
X1099030D01*
X968530Y813280D02*
X1099030D01*
Y682780D02*
Y813280D01*
X968530Y682780D02*
Y813280D01*
X998424Y865172D02*
Y927722D01*
Y865172D02*
X1080924D01*
X998424Y927722D02*
X1080924D01*
Y865172D02*
Y927722D01*
X1112478Y708802D02*
X1160478D01*
X1112478Y746802D02*
X1160478D01*
Y708802D02*
Y746802D01*
X1112478Y708802D02*
Y746802D01*
X1109030Y667070D02*
X1149030D01*
X1109030Y707070D02*
X1149030D01*
Y667070D02*
Y707070D01*
X1109030Y667070D02*
Y707070D01*
M02*
