G04*
G04 #@! TF.GenerationSoftware,Altium Limited,Altium Designer,19.1.7 (138)*
G04*
G04 Layer_Color=16711935*
%FSLAX44Y44*%
%MOMM*%
G71*
G01*
G75*
%ADD43C,0.2540*%
%ADD55C,0.0254*%
G36*
X1367790Y864870D02*
D01*
D02*
G37*
G36*
X1377950Y889000D02*
D01*
D02*
G37*
D43*
X950468Y672846D02*
G03*
X975613Y647701I25145J0D01*
G01*
X1194054Y647700D02*
G03*
X1219199Y672845I0J25145D01*
G01*
X1219200Y889000D02*
G03*
X1194055Y914145I-25145J0D01*
G01*
X975360Y914146D02*
G03*
X950215Y889001I0J-25145D01*
G01*
Y673099D02*
Y889001D01*
X975361Y914145D02*
X1194055D01*
X1219199Y672845D02*
Y888999D01*
X975613Y647701D02*
X1194053D01*
D55*
X1010412Y870585D02*
Y875411D01*
X1010666Y875665D01*
X1020826D01*
X1010412Y870585D02*
X1015746D01*
X1020826Y870839D02*
Y875665D01*
X1020572Y870585D02*
X1020826Y870839D01*
X1015746Y870585D02*
X1020572D01*
X1064768D02*
X1069594D01*
X1069848Y870839D01*
Y875665D01*
X1059434Y870585D02*
X1064768D01*
X1059688Y875665D02*
X1069848D01*
X1059434Y875411D02*
X1059688Y875665D01*
X1059434Y870585D02*
Y875411D01*
X1072261Y905002D02*
X1077341D01*
Y894842D02*
Y905002D01*
X1072261Y899922D02*
Y905002D01*
X1072515Y894842D02*
X1077341D01*
X1072261Y895096D02*
X1072515Y894842D01*
X1072261Y895096D02*
Y899922D01*
X1002030Y895350D02*
Y900176D01*
Y895350D02*
X1002284Y895096D01*
X1007110D01*
X1002030Y900176D02*
Y905510D01*
X1007110Y895096D02*
Y905256D01*
X1006856Y905510D02*
X1007110Y905256D01*
X1002030Y905510D02*
X1006856D01*
M02*
