G04*
G04 #@! TF.GenerationSoftware,Altium Limited,Altium Designer,19.1.7 (138)*
G04*
G04 Layer_Color=65535*
%FSLAX44Y44*%
%MOMM*%
G71*
G01*
G75*
%ADD10C,0.2500*%
%ADD11C,0.6000*%
%ADD12C,0.2000*%
%ADD13C,0.1270*%
%ADD14C,0.1016*%
D10*
X1058940Y819946D02*
G03*
X1058940Y819946I-1250J0D01*
G01*
X1109900Y792880D02*
G03*
X1109900Y792880I-1250J0D01*
G01*
X978530Y792530D02*
G03*
X978530Y792530I-1250J0D01*
G01*
X1053924Y860672D02*
G03*
X1053924Y860672I-1250J0D01*
G01*
X1106780Y702570D02*
G03*
X1106780Y702570I-1250J0D01*
G01*
X1183908Y783954D02*
G03*
X1183908Y783954I-1250J0D01*
G01*
D11*
X1000780Y784030D02*
G03*
X1000780Y784030I-3000J0D01*
G01*
D12*
X1115400Y711200D02*
G03*
X1115400Y711200I-500J0D01*
G01*
X962804Y881016D02*
X993504D01*
X962804D02*
Y899016D01*
X993504D01*
Y881016D02*
Y899016D01*
X970932Y830724D02*
X988932D01*
Y874124D01*
X970932D02*
X988932D01*
X970932Y830724D02*
Y874124D01*
X1111868Y829200D02*
Y885300D01*
X1093868Y829200D02*
X1111868D01*
X1093868D02*
Y885300D01*
X1111868D01*
X1039440Y822446D02*
Y853446D01*
X1048440Y822446D02*
Y853446D01*
X1039440D02*
X1048440D01*
X1039440Y822446D02*
X1048440D01*
X1186832Y685436D02*
X1204832D01*
Y741536D01*
X1186832D02*
X1204832D01*
X1186832Y685436D02*
Y741536D01*
X1115150Y788130D02*
Y794380D01*
X1121400D01*
X1151900D02*
X1158150D01*
Y788130D02*
Y794380D01*
Y751380D02*
Y757630D01*
X1151900Y751380D02*
X1158150D01*
X1115150D02*
Y757630D01*
Y751380D02*
X1121400D01*
X987780Y702030D02*
X1079780D01*
X987780Y794030D02*
X1079780D01*
Y702030D02*
Y794030D01*
X987780Y702030D02*
Y794030D01*
X1074674Y912172D02*
Y921422D01*
Y875122D02*
Y887672D01*
X1004674Y921422D02*
X1074674D01*
X1004674Y912172D02*
Y921422D01*
Y875122D02*
Y887672D01*
X1112030Y670070D02*
X1114030D01*
X1112030D02*
Y672070D01*
X1144030Y670070D02*
X1146030D01*
Y672070D01*
Y702070D02*
Y704070D01*
X1144030D02*
X1146030D01*
X1112030D02*
X1114030D01*
X1112030Y702070D02*
Y704070D01*
X975868Y680466D02*
X1026668D01*
X975868Y655066D02*
Y680466D01*
Y655066D02*
X1026668D01*
Y680466D01*
D13*
X957410Y871888D02*
X956563Y872734D01*
X954870D01*
X954024Y871888D01*
Y871042D01*
X954870Y870195D01*
X956563D01*
X957410Y869349D01*
Y868503D01*
X956563Y867656D01*
X954870D01*
X954024Y868503D01*
X959102Y872734D02*
Y867656D01*
X961641D01*
X962488Y868503D01*
Y871888D01*
X961641Y872734D01*
X959102D01*
X964181Y867656D02*
Y871042D01*
X965873Y872734D01*
X967566Y871042D01*
Y867656D01*
Y870195D01*
X964181D01*
X957410Y853604D02*
X956563Y854450D01*
X954870D01*
X954024Y853604D01*
Y852758D01*
X954870Y851911D01*
X956563D01*
X957410Y851065D01*
Y850218D01*
X956563Y849372D01*
X954870D01*
X954024Y850218D01*
X962488Y853604D02*
X961641Y854450D01*
X959949D01*
X959102Y853604D01*
Y850218D01*
X959949Y849372D01*
X961641D01*
X962488Y850218D01*
X964181Y854450D02*
Y849372D01*
X967566D01*
X954024Y835320D02*
X954870Y836166D01*
X956563D01*
X957410Y835320D01*
Y834474D01*
X956563Y833627D01*
X955717D01*
X956563D01*
X957410Y832781D01*
Y831934D01*
X956563Y831088D01*
X954870D01*
X954024Y831934D01*
X959102Y836166D02*
Y832781D01*
X960795Y831088D01*
X962488Y832781D01*
Y836166D01*
X964181Y835320D02*
X965027Y836166D01*
X966720D01*
X967566Y835320D01*
Y834474D01*
X966720Y833627D01*
X965873D01*
X966720D01*
X967566Y832781D01*
Y831934D01*
X966720Y831088D01*
X965027D01*
X964181Y831934D01*
X1030224Y656590D02*
Y661668D01*
X1032763D01*
X1033610Y660822D01*
Y659129D01*
X1032763Y658283D01*
X1030224D01*
X1031917D02*
X1033610Y656590D01*
X1035302Y661668D02*
X1038688Y656590D01*
Y661668D02*
X1035302Y656590D01*
X1045459Y661668D02*
X1048845D01*
X1047152D01*
Y656590D01*
X1050537Y661668D02*
X1053923Y656590D01*
Y661668D02*
X1050537Y656590D01*
X1118954Y854364D02*
X1118107Y855210D01*
X1116414D01*
X1115568Y854364D01*
Y850978D01*
X1116414Y850132D01*
X1118107D01*
X1118954Y850978D01*
X1124032Y854364D02*
X1123186Y855210D01*
X1121493D01*
X1120646Y854364D01*
Y853518D01*
X1121493Y852671D01*
X1123186D01*
X1124032Y851825D01*
Y850978D01*
X1123186Y850132D01*
X1121493D01*
X1120646Y850978D01*
X1115568Y840990D02*
Y846068D01*
X1117261Y844376D01*
X1118954Y846068D01*
Y840990D01*
X1120646Y846068D02*
X1122339D01*
X1121493D01*
Y840990D01*
X1120646D01*
X1122339D01*
X1128264Y845222D02*
X1127418Y846068D01*
X1125725D01*
X1124878Y845222D01*
Y844376D01*
X1125725Y843529D01*
X1127418D01*
X1128264Y842683D01*
Y841836D01*
X1127418Y840990D01*
X1125725D01*
X1124878Y841836D01*
X1132496Y846068D02*
X1130803D01*
X1129957Y845222D01*
Y841836D01*
X1130803Y840990D01*
X1132496D01*
X1133342Y841836D01*
Y845222D01*
X1132496Y846068D01*
X1115568Y831848D02*
Y836926D01*
X1117261Y835234D01*
X1118954Y836926D01*
Y831848D01*
X1123186Y836926D02*
X1121493D01*
X1120646Y836080D01*
Y832694D01*
X1121493Y831848D01*
X1123186D01*
X1124032Y832694D01*
Y836080D01*
X1123186Y836926D01*
X1129110Y836080D02*
X1128264Y836926D01*
X1126571D01*
X1125725Y836080D01*
Y835234D01*
X1126571Y834387D01*
X1128264D01*
X1129110Y833541D01*
Y832694D01*
X1128264Y831848D01*
X1126571D01*
X1125725Y832694D01*
X1130803Y836926D02*
X1132496D01*
X1131649D01*
Y831848D01*
X1130803D01*
X1132496D01*
X1118954Y826938D02*
X1118107Y827784D01*
X1116414D01*
X1115568Y826938D01*
Y823552D01*
X1116414Y822706D01*
X1118107D01*
X1118954Y823552D01*
X1120646Y827784D02*
Y822706D01*
X1124032D01*
X1125725Y827784D02*
Y822706D01*
Y824399D01*
X1129110Y827784D01*
X1126571Y825245D01*
X1129110Y822706D01*
X963930Y902208D02*
X965623D01*
X964776D01*
Y907286D01*
X963930Y906440D01*
X968162Y907286D02*
Y903901D01*
X969855Y902208D01*
X971547Y903901D01*
Y907286D01*
X973240Y906440D02*
X974087Y907286D01*
X975779D01*
X976626Y906440D01*
Y905594D01*
X975779Y904747D01*
X976626Y903901D01*
Y903054D01*
X975779Y902208D01*
X974087D01*
X973240Y903054D01*
Y903901D01*
X974087Y904747D01*
X973240Y905594D01*
Y906440D01*
X974087Y904747D02*
X975779D01*
X986783Y907286D02*
X983397D01*
Y904747D01*
X985090Y905594D01*
X985936D01*
X986783Y904747D01*
Y903054D01*
X985936Y902208D01*
X984243D01*
X983397Y903054D01*
X988475Y907286D02*
Y903901D01*
X990168Y902208D01*
X991861Y903901D01*
Y907286D01*
X1160864Y710600D02*
X1160017Y711446D01*
X1158324D01*
X1157478Y710600D01*
Y707215D01*
X1158324Y706368D01*
X1160017D01*
X1160864Y707215D01*
X1165942Y710600D02*
X1165096Y711446D01*
X1163403D01*
X1162556Y710600D01*
Y709754D01*
X1163403Y708907D01*
X1165096D01*
X1165942Y708061D01*
Y707215D01*
X1165096Y706368D01*
X1163403D01*
X1162556Y707215D01*
X1157478Y697226D02*
Y702304D01*
X1159171Y700612D01*
X1160864Y702304D01*
Y697226D01*
X1162556Y702304D02*
X1164249D01*
X1163403D01*
Y697226D01*
X1162556D01*
X1164249D01*
X1170174Y701458D02*
X1169327Y702304D01*
X1167635D01*
X1166788Y701458D01*
Y700612D01*
X1167635Y699765D01*
X1169327D01*
X1170174Y698919D01*
Y698072D01*
X1169327Y697226D01*
X1167635D01*
X1166788Y698072D01*
X1174406Y702304D02*
X1172713D01*
X1171867Y701458D01*
Y698072D01*
X1172713Y697226D01*
X1174406D01*
X1175252Y698072D01*
Y701458D01*
X1174406Y702304D01*
X1157478Y688084D02*
Y693162D01*
X1159171Y691470D01*
X1160864Y693162D01*
Y688084D01*
X1165096Y693162D02*
X1163403D01*
X1162556Y692316D01*
Y688930D01*
X1163403Y688084D01*
X1165096D01*
X1165942Y688930D01*
Y692316D01*
X1165096Y693162D01*
X1171020Y692316D02*
X1170174Y693162D01*
X1168481D01*
X1167635Y692316D01*
Y691470D01*
X1168481Y690623D01*
X1170174D01*
X1171020Y689777D01*
Y688930D01*
X1170174Y688084D01*
X1168481D01*
X1167635Y688930D01*
X1172713Y693162D02*
X1174406D01*
X1173559D01*
Y688084D01*
X1172713D01*
X1174406D01*
X1160864Y683174D02*
X1160017Y684020D01*
X1158324D01*
X1157478Y683174D01*
Y679788D01*
X1158324Y678942D01*
X1160017D01*
X1160864Y679788D01*
X1162556Y684020D02*
Y678942D01*
X1165942D01*
X1167635Y684020D02*
Y678942D01*
Y680635D01*
X1171020Y684020D01*
X1168481Y681481D01*
X1171020Y678942D01*
D14*
X1177544Y731774D02*
Y735583D01*
X1179448D01*
X1180083Y734948D01*
Y733678D01*
X1179448Y733044D01*
X1177544D01*
X1178814D02*
X1180083Y731774D01*
X1181353D02*
X1182622D01*
X1181988D01*
Y735583D01*
X1181353Y734948D01*
X953770Y883158D02*
Y886967D01*
X955674D01*
X956309Y886332D01*
Y885062D01*
X955674Y884428D01*
X953770D01*
X957579Y886967D02*
X960118D01*
Y886332D01*
X957579Y883793D01*
Y883158D01*
X993394Y860298D02*
Y864107D01*
X995298D01*
X995933Y863472D01*
Y862202D01*
X995298Y861568D01*
X993394D01*
X999742Y864107D02*
X998472Y863472D01*
X997203Y862202D01*
Y860933D01*
X997838Y860298D01*
X999107D01*
X999742Y860933D01*
Y861568D01*
X999107Y862202D01*
X997203D01*
X1093724Y889000D02*
Y892809D01*
X1095628D01*
X1096263Y892174D01*
Y890904D01*
X1095628Y890270D01*
X1093724D01*
X1100072Y892809D02*
X1097533D01*
Y890904D01*
X1098802Y891539D01*
X1099437D01*
X1100072Y890904D01*
Y889635D01*
X1099437Y889000D01*
X1098168D01*
X1097533Y889635D01*
X1107186Y806195D02*
Y803021D01*
X1107821Y802386D01*
X1109090D01*
X1109725Y803021D01*
Y806195D01*
X1112899Y802386D02*
Y806195D01*
X1110995Y804290D01*
X1113534D01*
X1104900Y748029D02*
Y747394D01*
X1106170Y746124D01*
X1107439Y747394D01*
Y748029D01*
X1106170Y746124D02*
Y744220D01*
X1108709D02*
X1109978D01*
X1109344D01*
Y748029D01*
X1108709Y747394D01*
X1183039Y757936D02*
X1186213D01*
X1186848Y758571D01*
Y759840D01*
X1186213Y760475D01*
X1183039D01*
Y764284D02*
X1183674Y763014D01*
X1184944Y761745D01*
X1186213D01*
X1186848Y762380D01*
Y763649D01*
X1186213Y764284D01*
X1185578D01*
X1184944Y763649D01*
Y761745D01*
X1097280Y695959D02*
Y692785D01*
X1097915Y692150D01*
X1099184D01*
X1099819Y692785D01*
Y695959D01*
X1101089Y695324D02*
X1101724Y695959D01*
X1102993D01*
X1103628Y695324D01*
Y694689D01*
X1102993Y694054D01*
X1102358D01*
X1102993D01*
X1103628Y693420D01*
Y692785D01*
X1102993Y692150D01*
X1101724D01*
X1101089Y692785D01*
X980440Y807719D02*
Y804545D01*
X981075Y803910D01*
X982344D01*
X982979Y804545D01*
Y807719D01*
X986788Y803910D02*
X984249D01*
X986788Y806449D01*
Y807084D01*
X986153Y807719D01*
X984884D01*
X984249Y807084D01*
X1041400Y861059D02*
Y857885D01*
X1042035Y857250D01*
X1043304D01*
X1043939Y857885D01*
Y861059D01*
X1045209Y857250D02*
X1046478D01*
X1045844D01*
Y861059D01*
X1045209Y860424D01*
X1149010Y821690D02*
Y825499D01*
X1150914D01*
X1151549Y824864D01*
Y823594D01*
X1150914Y822960D01*
X1149010D01*
X1150280D02*
X1151549Y821690D01*
X1152819Y824864D02*
X1153454Y825499D01*
X1154723D01*
X1155358Y824864D01*
Y824229D01*
X1154723Y823594D01*
X1155358Y822960D01*
Y822325D01*
X1154723Y821690D01*
X1153454D01*
X1152819Y822325D01*
Y822960D01*
X1153454Y823594D01*
X1152819Y824229D01*
Y824864D01*
X1153454Y823594D02*
X1154723D01*
X1196708Y797814D02*
Y801623D01*
X1198612D01*
X1199247Y800988D01*
Y799718D01*
X1198612Y799084D01*
X1196708D01*
X1202421Y797814D02*
Y801623D01*
X1200517Y799718D01*
X1203056D01*
X1187958Y744474D02*
Y748283D01*
X1189862D01*
X1190497Y747648D01*
Y746378D01*
X1189862Y745744D01*
X1187958D01*
X1191767Y747648D02*
X1192402Y748283D01*
X1193671D01*
X1194306Y747648D01*
Y747013D01*
X1193671Y746378D01*
X1193036D01*
X1193671D01*
X1194306Y745744D01*
Y745109D01*
X1193671Y744474D01*
X1192402D01*
X1191767Y745109D01*
X976884Y684276D02*
Y688085D01*
X978788D01*
X979423Y687450D01*
Y686180D01*
X978788Y685546D01*
X976884D01*
X983232Y684276D02*
X980693D01*
X983232Y686815D01*
Y687450D01*
X982597Y688085D01*
X981328D01*
X980693Y687450D01*
X1113028Y901700D02*
Y905509D01*
X1114932D01*
X1115567Y904874D01*
Y903604D01*
X1114932Y902970D01*
X1113028D01*
X1116837Y901700D02*
X1118106D01*
X1117472D01*
Y905509D01*
X1116837Y904874D01*
X1087881Y908557D02*
X1086612D01*
X1087246D01*
Y905383D01*
X1086612Y904748D01*
X1085977D01*
X1085342Y905383D01*
X1089151Y904748D02*
X1090420D01*
X1089786D01*
Y908557D01*
X1089151Y907922D01*
X1122679Y813434D02*
X1122044Y814069D01*
X1120775D01*
X1120140Y813434D01*
Y810895D01*
X1120775Y810260D01*
X1122044D01*
X1122679Y810895D01*
X1126488Y810260D02*
X1123949D01*
X1126488Y812799D01*
Y813434D01*
X1125853Y814069D01*
X1124584D01*
X1123949Y813434D01*
X1127758Y810260D02*
X1129027D01*
X1128392D01*
Y814069D01*
X1127758Y813434D01*
X1164589Y808354D02*
X1163954Y808989D01*
X1162685D01*
X1162050Y808354D01*
Y805815D01*
X1162685Y805180D01*
X1163954D01*
X1164589Y805815D01*
X1168398Y805180D02*
X1165859D01*
X1168398Y807719D01*
Y808354D01*
X1167763Y808989D01*
X1166494D01*
X1165859Y808354D01*
X1169668D02*
X1170302Y808989D01*
X1171572D01*
X1172207Y808354D01*
Y805815D01*
X1171572Y805180D01*
X1170302D01*
X1169668Y805815D01*
Y808354D01*
X1138935Y829436D02*
X1138300Y830071D01*
X1137031D01*
X1136396Y829436D01*
Y826897D01*
X1137031Y826262D01*
X1138300D01*
X1138935Y826897D01*
X1140205Y826262D02*
X1141474D01*
X1140840D01*
Y830071D01*
X1140205Y829436D01*
X1143379Y826897D02*
X1144014Y826262D01*
X1145283D01*
X1145918Y826897D01*
Y829436D01*
X1145283Y830071D01*
X1144014D01*
X1143379Y829436D01*
Y828801D01*
X1144014Y828166D01*
X1145918D01*
X1176910Y716279D02*
X1176275Y715644D01*
Y714375D01*
X1176910Y713740D01*
X1179449D01*
X1180084Y714375D01*
Y715644D01*
X1179449Y716279D01*
X1180084Y717549D02*
Y718818D01*
Y718184D01*
X1176275D01*
X1176910Y717549D01*
Y720723D02*
X1176275Y721358D01*
Y722627D01*
X1176910Y723262D01*
X1177545D01*
X1178180Y722627D01*
X1178814Y723262D01*
X1179449D01*
X1180084Y722627D01*
Y721358D01*
X1179449Y720723D01*
X1178814D01*
X1178180Y721358D01*
X1177545Y720723D01*
X1176910D01*
X1178180Y721358D02*
Y722627D01*
X1102359Y741044D02*
X1101724Y741679D01*
X1100455D01*
X1099820Y741044D01*
Y738505D01*
X1100455Y737870D01*
X1101724D01*
X1102359Y738505D01*
X1103629Y737870D02*
X1104898D01*
X1104264D01*
Y741679D01*
X1103629Y741044D01*
X1106803Y741679D02*
X1109342D01*
Y741044D01*
X1106803Y738505D01*
Y737870D01*
X1156082Y742695D02*
X1155447Y742060D01*
Y740791D01*
X1156082Y740156D01*
X1158621D01*
X1159256Y740791D01*
Y742060D01*
X1158621Y742695D01*
X1159256Y743965D02*
Y745234D01*
Y744600D01*
X1155447D01*
X1156082Y743965D01*
X1155447Y749678D02*
X1156082Y748408D01*
X1157352Y747139D01*
X1158621D01*
X1159256Y747774D01*
Y749043D01*
X1158621Y749678D01*
X1157986D01*
X1157352Y749043D01*
Y747139D01*
X1008887Y818514D02*
X1008252Y819149D01*
X1006983D01*
X1006348Y818514D01*
Y815975D01*
X1006983Y815340D01*
X1008252D01*
X1008887Y815975D01*
X1010157Y815340D02*
X1011426D01*
X1010792D01*
Y819149D01*
X1010157Y818514D01*
X1015870Y819149D02*
X1013331D01*
Y817244D01*
X1014600Y817879D01*
X1015235D01*
X1015870Y817244D01*
Y815975D01*
X1015235Y815340D01*
X1013966D01*
X1013331Y815975D01*
X1079882Y831341D02*
X1079247Y830706D01*
Y829437D01*
X1079882Y828802D01*
X1082421D01*
X1083056Y829437D01*
Y830706D01*
X1082421Y831341D01*
X1083056Y832611D02*
Y833880D01*
Y833246D01*
X1079247D01*
X1079882Y832611D01*
X1083056Y837689D02*
X1079247D01*
X1081152Y835785D01*
Y838324D01*
X1098549Y671194D02*
X1097914Y671829D01*
X1096645D01*
X1096010Y671194D01*
Y668655D01*
X1096645Y668020D01*
X1097914D01*
X1098549Y668655D01*
X1099819Y668020D02*
X1101088D01*
X1100454D01*
Y671829D01*
X1099819Y671194D01*
X1102993D02*
X1103628Y671829D01*
X1104897D01*
X1105532Y671194D01*
Y670559D01*
X1104897Y669924D01*
X1104262D01*
X1104897D01*
X1105532Y669290D01*
Y668655D01*
X1104897Y668020D01*
X1103628D01*
X1102993Y668655D01*
X1153159Y702944D02*
X1152524Y703579D01*
X1151255D01*
X1150620Y702944D01*
Y700405D01*
X1151255Y699770D01*
X1152524D01*
X1153159Y700405D01*
X1154429Y699770D02*
X1155698D01*
X1155064D01*
Y703579D01*
X1154429Y702944D01*
X1160142Y699770D02*
X1157603D01*
X1160142Y702309D01*
Y702944D01*
X1159507Y703579D01*
X1158238D01*
X1157603Y702944D01*
X1154429Y671194D02*
X1153794Y671829D01*
X1152525D01*
X1151890Y671194D01*
Y668655D01*
X1152525Y668020D01*
X1153794D01*
X1154429Y668655D01*
X1155699Y668020D02*
X1156968D01*
X1156334D01*
Y671829D01*
X1155699Y671194D01*
X1158873Y668020D02*
X1160142D01*
X1159508D01*
Y671829D01*
X1158873Y671194D01*
X1010411Y848486D02*
X1009776Y849121D01*
X1008507D01*
X1007872Y848486D01*
Y845947D01*
X1008507Y845312D01*
X1009776D01*
X1010411Y845947D01*
X1014220Y845312D02*
X1011681D01*
X1014220Y847851D01*
Y848486D01*
X1013585Y849121D01*
X1012316D01*
X1011681Y848486D01*
X957325Y734440D02*
X956690Y735075D01*
X955421D01*
X954786Y734440D01*
Y731901D01*
X955421Y731266D01*
X956690D01*
X957325Y731901D01*
X958595Y731266D02*
X959864D01*
X959230D01*
Y735075D01*
X958595Y734440D01*
M02*
