G04*
G04 #@! TF.GenerationSoftware,Altium Limited,Altium Designer,19.1.7 (138)*
G04*
G04 Layer_Physical_Order=1*
G04 Layer_Color=255*
%FSLAX44Y44*%
%MOMM*%
G71*
G01*
G75*
%ADD13C,0.1270*%
%ADD15R,0.7000X0.6000*%
%ADD16R,1.0500X0.6000*%
%ADD17O,0.7000X0.2500*%
%ADD18O,0.2500X0.7000*%
%ADD19R,2.6000X2.6000*%
%ADD20R,0.6000X0.7000*%
%ADD21O,0.3000X1.3000*%
%ADD22O,1.3000X0.3000*%
%ADD23R,0.4000X1.3500*%
%ADD24R,1.5000X1.5500*%
%ADD25R,1.4000X1.2000*%
%ADD26R,0.2500X0.5500*%
%ADD27R,1.7000X1.5400*%
%ADD28O,0.2000X0.6500*%
%ADD29O,0.6500X0.2000*%
%ADD30R,1.0500X1.0000*%
%ADD31R,2.2000X1.0500*%
%ADD32R,1.2000X1.5500*%
%ADD33R,1.2000X1.5500*%
%ADD34C,0.7874*%
%ADD35R,1.0000X1.0000*%
%ADD36C,1.0000*%
%ADD37R,1.0000X1.0000*%
%ADD38O,1.2500X0.9500*%
%ADD39O,0.9000X1.5500*%
%ADD40C,1.5000*%
%ADD41R,1.5000X1.5000*%
%ADD42C,0.5000*%
%ADD43C,0.2540*%
%ADD44C,0.2032*%
%ADD45C,0.3810*%
%ADD46C,0.5080*%
%ADD47C,0.3048*%
%ADD48C,0.1524*%
%ADD49C,0.6350*%
%ADD50C,0.6096*%
G36*
X1183463Y910673D02*
X1180816Y910325D01*
X1177711Y909039D01*
X1175045Y906993D01*
X1172999Y904327D01*
X1171713Y901222D01*
X1171274Y897890D01*
X1171713Y894558D01*
X1172079Y893673D01*
X1171003Y892954D01*
X1170535Y893421D01*
X1169905Y893842D01*
X1169162Y893990D01*
X1165000D01*
X1164999Y893990D01*
X1164649Y893921D01*
X1163816Y894960D01*
X1164251Y895611D01*
X1164705Y897890D01*
X1164251Y900169D01*
X1162960Y902102D01*
X1161027Y903393D01*
X1158748Y903847D01*
X1156469Y903393D01*
X1154536Y902102D01*
X1153245Y900169D01*
X1152792Y897890D01*
X1153245Y895611D01*
X1154536Y893678D01*
X1155619Y892954D01*
X1155787Y891326D01*
X1154211Y889750D01*
X1152398Y890110D01*
X1150515Y889736D01*
X1148919Y888669D01*
X1147852Y887073D01*
X1147477Y885190D01*
X1147852Y883307D01*
X1148919Y881711D01*
X1150515Y880644D01*
X1152398Y880269D01*
X1154281Y880644D01*
X1155877Y881711D01*
X1156944Y883307D01*
X1157318Y885190D01*
X1156958Y887003D01*
X1159044Y889090D01*
X1160372D01*
X1161051Y887820D01*
X1160552Y887073D01*
X1160178Y885190D01*
X1160552Y883307D01*
X1161619Y881711D01*
X1163215Y880644D01*
X1165098Y880269D01*
X1166981Y880644D01*
X1167179Y880776D01*
X1169100Y878855D01*
Y877148D01*
X1167830Y876469D01*
X1166981Y877036D01*
X1165098Y877411D01*
X1163215Y877036D01*
X1161619Y875969D01*
X1160552Y874373D01*
X1160178Y872490D01*
X1160552Y870607D01*
X1160684Y870409D01*
X1157328Y867052D01*
X1156844Y865886D01*
Y845603D01*
X1154746Y843504D01*
X1153759Y844314D01*
X1154091Y844811D01*
X1154545Y847090D01*
X1154091Y849369D01*
X1152800Y851302D01*
X1150867Y852593D01*
X1148588Y853046D01*
X1146309Y852593D01*
X1144376Y851302D01*
X1143085Y849369D01*
X1142632Y847090D01*
X1143085Y844811D01*
X1144376Y842878D01*
X1146309Y841587D01*
X1148588Y841133D01*
X1150867Y841587D01*
X1151364Y841919D01*
X1152174Y840932D01*
X1148297Y837056D01*
X1133932D01*
X1133253Y838326D01*
X1133501Y838696D01*
X1133806Y840232D01*
X1133501Y841768D01*
X1132630Y843070D01*
X1131328Y843941D01*
X1129792Y844246D01*
X1128256Y843941D01*
X1126954Y843070D01*
X1126083Y841768D01*
X1125778Y840232D01*
X1125929Y839470D01*
X1109292Y822832D01*
X1098965D01*
X1098340Y823766D01*
X1097038Y824637D01*
X1095502Y824942D01*
X1094358Y824715D01*
X1093088Y825461D01*
Y861157D01*
X1093881Y861950D01*
X1097192D01*
X1097321Y861302D01*
X1098622Y859354D01*
X1100570Y858053D01*
X1101351Y857897D01*
Y856603D01*
X1100570Y856447D01*
X1098622Y855146D01*
X1097321Y853198D01*
X1096864Y850900D01*
X1097321Y848602D01*
X1098622Y846654D01*
X1100570Y845353D01*
X1100414Y844089D01*
X1096979D01*
Y832311D01*
X1108757D01*
Y844089D01*
X1105322D01*
X1105166Y845353D01*
X1107114Y846654D01*
X1108415Y848602D01*
X1108872Y850900D01*
X1108415Y853198D01*
X1107114Y855146D01*
X1105166Y856447D01*
X1104385Y856603D01*
Y857897D01*
X1105166Y858053D01*
X1107114Y859354D01*
X1108415Y861302D01*
X1108872Y863600D01*
X1108415Y865898D01*
X1107114Y867846D01*
X1105166Y869147D01*
X1104385Y869303D01*
Y870597D01*
X1105166Y870753D01*
X1107114Y872054D01*
X1108415Y874002D01*
X1108872Y876300D01*
X1108415Y878598D01*
X1107483Y879993D01*
X1108153Y881263D01*
X1140878D01*
X1147838Y874303D01*
X1147477Y872490D01*
X1147852Y870607D01*
X1148919Y869011D01*
X1150515Y867944D01*
X1152398Y867570D01*
X1154281Y867944D01*
X1155877Y869011D01*
X1156944Y870607D01*
X1157318Y872490D01*
X1156944Y874373D01*
X1155877Y875969D01*
X1154281Y877036D01*
X1152398Y877411D01*
X1150585Y877050D01*
X1143056Y884578D01*
X1142426Y884999D01*
X1141683Y885147D01*
X1139256D01*
X1139003Y886417D01*
X1139785Y886741D01*
X1142451Y888787D01*
X1144497Y891453D01*
X1145783Y894558D01*
X1146222Y897890D01*
X1145783Y901222D01*
X1144497Y904327D01*
X1142451Y906993D01*
X1139785Y909039D01*
X1136680Y910325D01*
X1134033Y910673D01*
X1134117Y911943D01*
X1183379D01*
X1183463Y910673D01*
D02*
G37*
G36*
X975361Y911943D02*
X1132579D01*
X1132663Y910673D01*
X1130016Y910325D01*
X1126911Y909039D01*
X1124245Y906993D01*
X1122199Y904327D01*
X1120913Y901222D01*
X1120474Y897890D01*
X1120913Y894558D01*
X1122199Y891453D01*
X1124245Y888787D01*
X1126911Y886741D01*
X1127693Y886417D01*
X1127440Y885147D01*
X1096195D01*
X1095697Y885893D01*
X1094395Y886763D01*
X1092859Y887069D01*
X1091322Y886763D01*
X1090020Y885893D01*
X1089150Y884591D01*
X1088844Y883055D01*
X1089150Y881518D01*
X1090020Y880216D01*
X1091322Y879346D01*
X1092859Y879040D01*
X1094395Y879346D01*
X1095697Y880216D01*
X1096396Y881263D01*
X1097583D01*
X1098253Y879993D01*
X1097321Y878598D01*
X1096864Y876300D01*
X1097321Y874002D01*
X1098622Y872054D01*
X1100570Y870753D01*
X1101351Y870597D01*
Y869303D01*
X1100570Y869147D01*
X1098622Y867846D01*
X1097321Y865898D01*
X1097192Y865250D01*
X1093198D01*
X1092031Y864766D01*
X1090272Y863007D01*
X1089788Y861840D01*
Y824013D01*
X1087412Y821636D01*
X1086034Y822054D01*
X1086003Y822210D01*
X1085132Y823512D01*
X1083830Y824383D01*
X1082294Y824688D01*
X1080758Y824383D01*
X1079456Y823512D01*
X1078585Y822210D01*
X1078280Y820674D01*
X1078312Y820511D01*
X1077506Y819530D01*
X1074420D01*
X1073254Y819046D01*
X1072721Y818514D01*
X1048614D01*
X1047448Y818030D01*
X1041366Y811949D01*
X1041280Y811966D01*
X1040348Y811780D01*
X1039558Y811252D01*
X1039544Y811232D01*
X1038016D01*
X1038002Y811252D01*
X1037212Y811780D01*
X1036280Y811966D01*
X1035348Y811780D01*
X1034558Y811252D01*
X1034544Y811232D01*
X1033016D01*
X1033002Y811252D01*
X1032212Y811780D01*
X1031280Y811966D01*
X1030348Y811780D01*
X1029558Y811252D01*
X1029544Y811232D01*
X1028016D01*
X1028002Y811252D01*
X1027212Y811780D01*
X1026280Y811966D01*
X1025348Y811780D01*
X1024558Y811252D01*
X1024544Y811232D01*
X1023016D01*
X1023002Y811252D01*
X1022212Y811780D01*
X1021280Y811966D01*
X1020348Y811780D01*
X1019558Y811252D01*
X1019030Y810462D01*
X1018844Y809530D01*
Y799530D01*
X1019030Y798598D01*
X1019558Y797808D01*
X1020348Y797280D01*
X1021280Y797094D01*
X1022212Y797280D01*
X1023002Y797808D01*
X1023016Y797829D01*
X1024544D01*
X1024558Y797808D01*
X1025348Y797280D01*
X1026280Y797094D01*
X1027212Y797280D01*
X1028002Y797808D01*
X1028016Y797828D01*
X1029544D01*
X1029558Y797808D01*
X1030348Y797280D01*
X1031280Y797094D01*
X1032212Y797280D01*
X1033002Y797808D01*
X1033016Y797829D01*
X1034544D01*
X1034558Y797808D01*
X1035348Y797280D01*
X1036280Y797094D01*
X1037212Y797280D01*
X1038002Y797808D01*
X1038016Y797828D01*
X1039544D01*
X1039558Y797808D01*
X1040348Y797280D01*
X1041280Y797094D01*
X1042212Y797280D01*
X1043002Y797808D01*
X1043016Y797828D01*
X1044544D01*
X1044558Y797808D01*
X1045348Y797280D01*
X1046280Y797094D01*
X1047212Y797280D01*
X1048002Y797808D01*
X1049108Y797301D01*
X1049770Y796652D01*
Y793479D01*
X1048722Y792778D01*
X1047851Y791476D01*
X1047546Y789940D01*
X1047851Y788404D01*
X1048722Y787102D01*
X1050024Y786231D01*
X1051560Y785926D01*
X1053096Y786231D01*
X1053540Y786528D01*
X1054810Y785849D01*
Y773132D01*
X1053802Y772458D01*
X1052931Y771156D01*
X1052626Y769620D01*
X1052931Y768084D01*
X1053802Y766782D01*
X1055104Y765911D01*
X1055671Y765799D01*
X1056089Y764420D01*
X1035192Y743524D01*
X1035062Y743611D01*
X1033526Y743916D01*
X1031990Y743611D01*
X1030688Y742740D01*
X1029817Y741438D01*
X1029512Y739902D01*
X1029601Y739456D01*
X1018135Y727990D01*
X977280D01*
X977157Y727966D01*
X972280D01*
X971348Y727780D01*
X970558Y727252D01*
X970030Y726462D01*
X969844Y725530D01*
X970030Y724598D01*
X970558Y723808D01*
X970579Y723794D01*
Y722266D01*
X970558Y722252D01*
X970030Y721462D01*
X969844Y720530D01*
X970030Y719598D01*
X970558Y718808D01*
X970579Y718794D01*
Y717266D01*
X970558Y717252D01*
X970030Y716462D01*
X969844Y715530D01*
X970030Y714598D01*
X970558Y713808D01*
X970579Y713794D01*
Y712266D01*
X970558Y712252D01*
X970030Y711462D01*
X969844Y710530D01*
X970030Y709598D01*
X970558Y708808D01*
X971348Y708280D01*
X972280Y708094D01*
X982280D01*
X983212Y708280D01*
X984002Y708808D01*
X984530Y709598D01*
X984716Y710530D01*
X984530Y711462D01*
X984002Y712252D01*
X983982Y712266D01*
Y713794D01*
X984002Y713808D01*
X984530Y714598D01*
X984716Y715530D01*
X984530Y716462D01*
X984002Y717252D01*
X983982Y717266D01*
Y718794D01*
X984002Y718808D01*
X984530Y719598D01*
X984716Y720530D01*
X984530Y721462D01*
X984305Y721800D01*
X984891Y723070D01*
X1011809D01*
X1012295Y721896D01*
X1004540Y714142D01*
X1004007Y713344D01*
X1003820Y712402D01*
Y691530D01*
X1003844Y691407D01*
Y686530D01*
X1004030Y685598D01*
X1004558Y684808D01*
X1005348Y684280D01*
X1006280Y684094D01*
X1007212Y684280D01*
X1008002Y684808D01*
X1008016Y684828D01*
X1009544D01*
X1009558Y684808D01*
X1010348Y684280D01*
X1011280Y684094D01*
X1012212Y684280D01*
X1013002Y684808D01*
X1013016Y684828D01*
X1014544D01*
X1014558Y684808D01*
X1015348Y684280D01*
X1016280Y684094D01*
X1017212Y684280D01*
X1018002Y684808D01*
X1019090Y684212D01*
X1019430Y683953D01*
Y680720D01*
X1019914Y679554D01*
X1048295Y651173D01*
X1047768Y649903D01*
X975613D01*
X975526Y649885D01*
X971132Y650318D01*
X966823Y651625D01*
X962852Y653748D01*
X959371Y656604D01*
X956514Y660085D01*
X954392Y664056D01*
X953085Y668365D01*
X952765Y671615D01*
X952669Y672846D01*
X952502Y673688D01*
X952417Y673816D01*
Y750336D01*
X953445Y750919D01*
X953687Y750919D01*
X961839D01*
X962815Y750175D01*
X962983Y749964D01*
X963269Y748526D01*
X964140Y747224D01*
X965442Y746353D01*
X966978Y746048D01*
X968514Y746353D01*
X968744Y746507D01*
X969887Y745743D01*
X969844Y745530D01*
X970030Y744598D01*
X970558Y743808D01*
X970579Y743794D01*
Y742266D01*
X970558Y742252D01*
X970030Y741462D01*
X969844Y740530D01*
X970030Y739598D01*
X970558Y738808D01*
X970579Y738794D01*
Y737266D01*
X970558Y737252D01*
X970030Y736462D01*
X969844Y735530D01*
X970030Y734598D01*
X970558Y733808D01*
X971348Y733280D01*
X972280Y733094D01*
X982280D01*
X983212Y733280D01*
X984002Y733808D01*
X984530Y734598D01*
X984716Y735530D01*
X984530Y736462D01*
X984002Y737252D01*
X983982Y737266D01*
Y738794D01*
X984002Y738808D01*
X984530Y739598D01*
X984716Y740530D01*
X984530Y741462D01*
X984002Y742252D01*
X983982Y742266D01*
X983941Y742439D01*
X984290Y743588D01*
X987254D01*
X987998Y743736D01*
X988628Y744157D01*
X988749Y744278D01*
X989064Y744067D01*
X990600Y743762D01*
X992136Y744067D01*
X993438Y744938D01*
X994309Y746240D01*
X994614Y747776D01*
X994309Y749312D01*
X993438Y750614D01*
X992136Y751485D01*
X990600Y751790D01*
X989064Y751485D01*
X987762Y750614D01*
X986891Y749312D01*
X986586Y747776D01*
X985351Y747472D01*
X984290D01*
X983941Y748621D01*
X983981Y748794D01*
X984002Y748808D01*
X984530Y749598D01*
X984716Y750530D01*
X984530Y751462D01*
X984002Y752252D01*
X983982Y752266D01*
Y753794D01*
X984002Y753808D01*
X984530Y754598D01*
X984716Y755530D01*
X984530Y756462D01*
X984002Y757252D01*
X983981Y757266D01*
Y758794D01*
X984002Y758808D01*
X984530Y759598D01*
X984716Y760530D01*
X984530Y761462D01*
X984002Y762252D01*
X983982Y762266D01*
Y763794D01*
X984002Y763808D01*
X984530Y764598D01*
X984716Y765530D01*
X984530Y766462D01*
X984002Y767252D01*
X983982Y767266D01*
Y768794D01*
X984002Y768808D01*
X984530Y769598D01*
X984716Y770530D01*
X984530Y771462D01*
X984002Y772252D01*
X983981Y772266D01*
Y773794D01*
X984002Y773808D01*
X984530Y774598D01*
X984716Y775530D01*
X984530Y776462D01*
X984002Y777252D01*
X983982Y777266D01*
Y778794D01*
X984002Y778808D01*
X984530Y779598D01*
X984716Y780530D01*
X984530Y781462D01*
X984073Y782147D01*
X984195Y782665D01*
X984546Y783417D01*
X986064D01*
X986907Y783584D01*
X987621Y784061D01*
X989109Y785549D01*
X989586Y786264D01*
X989753Y787106D01*
Y787250D01*
X991335Y788832D01*
X991461Y788857D01*
X992260Y789390D01*
X997996Y795126D01*
X998529Y795925D01*
X998716Y796866D01*
Y804409D01*
X998740Y804530D01*
X998716Y804653D01*
Y809530D01*
X998569Y810267D01*
Y810290D01*
X1002180Y813901D01*
X1006768D01*
X1007610Y814068D01*
X1008325Y814546D01*
X1014976Y821196D01*
X1019698Y816474D01*
X1021042Y815576D01*
X1022628Y815260D01*
X1024890D01*
X1026476Y815576D01*
X1027820Y816474D01*
X1028718Y817818D01*
X1029034Y819404D01*
X1028718Y820990D01*
X1027820Y822334D01*
X1026476Y823232D01*
X1026663Y824490D01*
X1029730D01*
X1030068Y824557D01*
X1036329D01*
Y832335D01*
X1024051D01*
Y832230D01*
X1023058Y831482D01*
X1021720Y831216D01*
X1020595Y830464D01*
X1016634D01*
X1016296Y830397D01*
X1012285D01*
Y827288D01*
X1012030Y826008D01*
Y825858D01*
X1012259Y824706D01*
X1005856Y818303D01*
X1001268D01*
X1000426Y818136D01*
X999712Y817659D01*
X994811Y812758D01*
X994334Y812044D01*
X994167Y811202D01*
Y810667D01*
X994030Y810462D01*
X993844Y809530D01*
Y804750D01*
X993796Y804506D01*
Y797885D01*
X988780Y792870D01*
X988247Y792072D01*
X988222Y791945D01*
X985995Y789718D01*
X985518Y789004D01*
X985351Y788162D01*
Y788018D01*
X985152Y787819D01*
X983017D01*
X982280Y787966D01*
X972280D01*
X971348Y787780D01*
X970558Y787252D01*
X970030Y786462D01*
X969844Y785530D01*
X970030Y784598D01*
X970558Y783808D01*
X970579Y783794D01*
Y782266D01*
X970558Y782252D01*
X970030Y781462D01*
X969844Y780530D01*
X970030Y779598D01*
X970558Y778808D01*
X970579Y778794D01*
Y777266D01*
X970558Y777252D01*
X970030Y776462D01*
X969844Y775530D01*
X970030Y774598D01*
X970558Y773808D01*
X970579Y773794D01*
Y772266D01*
X970558Y772252D01*
X970030Y771462D01*
X969844Y770530D01*
X970030Y769598D01*
X970558Y768808D01*
X970579Y768794D01*
Y767266D01*
X970558Y767252D01*
X970030Y766462D01*
X969844Y765530D01*
X970030Y764598D01*
X970558Y763808D01*
X970579Y763794D01*
Y762266D01*
X970558Y762252D01*
X970030Y761462D01*
X969844Y760530D01*
X970030Y759598D01*
X970558Y758808D01*
X970099Y757693D01*
X969702Y757287D01*
X962223D01*
Y758697D01*
X959776D01*
Y807056D01*
X1004539Y851819D01*
X1005078Y851712D01*
X1006614Y852017D01*
X1007916Y852888D01*
X1008787Y854190D01*
X1009092Y855726D01*
X1008787Y857262D01*
X1008662Y857449D01*
X1009340Y858719D01*
X1017877D01*
X1018363Y857546D01*
X1013906Y853088D01*
X1013288Y852164D01*
X1013071Y851074D01*
X1013071Y851074D01*
Y850379D01*
X1012217Y849923D01*
X1011801Y849812D01*
X1010412Y850088D01*
X1008876Y849783D01*
X1007574Y848912D01*
X1006859Y847843D01*
X1003554D01*
X1002712Y847675D01*
X1001998Y847198D01*
X992471Y837671D01*
X992253Y837346D01*
X991318Y836720D01*
X990447Y835418D01*
X990142Y833882D01*
X990447Y832346D01*
X991318Y831044D01*
X992620Y830173D01*
X994156Y829868D01*
X995692Y830173D01*
X996994Y831044D01*
X997865Y832346D01*
X998170Y833882D01*
X997865Y835418D01*
X997296Y836270D01*
X1004466Y843440D01*
X1007437D01*
X1007574Y843236D01*
X1008876Y842365D01*
X1010412Y842060D01*
X1010761Y842129D01*
X1012031Y841087D01*
Y834065D01*
X1019809D01*
Y835351D01*
X1024051D01*
Y834057D01*
X1036329D01*
Y841835D01*
X1024051D01*
Y841049D01*
X1019809D01*
Y842843D01*
X1019103D01*
Y844820D01*
X1019225Y844920D01*
X1019225Y844920D01*
X1024051D01*
Y843557D01*
X1036329D01*
Y851335D01*
X1024051D01*
Y850618D01*
X1021289D01*
X1020762Y851888D01*
X1026578Y857703D01*
X1049528D01*
X1049528Y857703D01*
X1050235Y857123D01*
Y852052D01*
X1050235Y852052D01*
X1050452Y850962D01*
X1051070Y850038D01*
X1051496Y849611D01*
Y848541D01*
X1051496Y848541D01*
X1051551Y848266D01*
Y843557D01*
X1063829D01*
Y851335D01*
X1057830D01*
X1057484Y851680D01*
X1057484Y851680D01*
X1055933Y853232D01*
Y864108D01*
X1055716Y865198D01*
X1055563Y865427D01*
Y880561D01*
X1049424Y880561D01*
X1048515Y880561D01*
X1042924Y880561D01*
X1042015Y880561D01*
X1036424Y880561D01*
X1035515Y880561D01*
X1030285D01*
Y865283D01*
X1036424Y865283D01*
X1037333Y865283D01*
X1042924Y865283D01*
X1043833Y865283D01*
X1047766D01*
X1048383Y864013D01*
X1047913Y863401D01*
X1026578D01*
X1026396Y863582D01*
X1025472Y864200D01*
X1024382Y864417D01*
X1024382Y864417D01*
X1001178D01*
X986591Y879004D01*
Y884427D01*
X986802Y884469D01*
X988750Y885770D01*
X990051Y887718D01*
X990508Y890016D01*
X990051Y892314D01*
X988750Y894262D01*
X986802Y895563D01*
X984504Y896020D01*
X982206Y895563D01*
X980258Y894262D01*
X978957Y892314D01*
X977693Y892470D01*
Y895905D01*
X965915D01*
Y884127D01*
X977693D01*
Y887561D01*
X978957Y887718D01*
X980258Y885770D01*
X980893Y885346D01*
Y877824D01*
X980893Y877824D01*
X981110Y876734D01*
X981728Y875810D01*
X985254Y872283D01*
X984728Y871013D01*
X974043D01*
Y861982D01*
X959255Y847193D01*
X958833Y846563D01*
X958686Y845820D01*
Y827667D01*
X957790Y827068D01*
X956919Y825766D01*
X956614Y824230D01*
X956919Y822694D01*
X957790Y821392D01*
X959092Y820521D01*
X960628Y820216D01*
X962164Y820521D01*
X963466Y821392D01*
X964337Y822694D01*
X964642Y824230D01*
X964337Y825766D01*
X963466Y827068D01*
X962570Y827667D01*
Y845015D01*
X974027Y856472D01*
X975013Y855662D01*
X974385Y854722D01*
X973928Y852424D01*
X974385Y850126D01*
X975686Y848178D01*
X977634Y846877D01*
X978415Y846721D01*
Y845427D01*
X977634Y845271D01*
X975686Y843970D01*
X974385Y842022D01*
X973928Y839724D01*
X974385Y837426D01*
X975686Y835478D01*
X977634Y834177D01*
X979280Y833849D01*
X979704Y832478D01*
X956461Y809234D01*
X956040Y808604D01*
X955892Y807861D01*
Y758697D01*
X953687D01*
X953445Y758697D01*
X952417Y759280D01*
Y889001D01*
X952399Y889088D01*
X952832Y893482D01*
X954139Y897791D01*
X956262Y901762D01*
X959118Y905243D01*
X962599Y908100D01*
X966570Y910222D01*
X970879Y911529D01*
X975269Y911962D01*
X975361Y911943D01*
D02*
G37*
G36*
X1198536Y911528D02*
X1202845Y910221D01*
X1206816Y908098D01*
X1210297Y905242D01*
X1213154Y901761D01*
X1215276Y897790D01*
X1216583Y893481D01*
X1217016Y889090D01*
X1216997Y888999D01*
Y672845D01*
X1217015Y672758D01*
X1216582Y668364D01*
X1215275Y664055D01*
X1213152Y660084D01*
X1210296Y656603D01*
X1206815Y653746D01*
X1202844Y651624D01*
X1198535Y650317D01*
X1194145Y649884D01*
X1194053Y649903D01*
X1181336D01*
X1180809Y651173D01*
X1210206Y680570D01*
X1210690Y681736D01*
Y706628D01*
X1210206Y707794D01*
X1201012Y716989D01*
X1201379Y717538D01*
X1201836Y719836D01*
X1201379Y722134D01*
X1200078Y724082D01*
X1198130Y725383D01*
X1198287Y726647D01*
X1201721D01*
Y738425D01*
X1189943D01*
Y734186D01*
X1178814D01*
X1177648Y733702D01*
X1175362Y731416D01*
X1174878Y730250D01*
Y716709D01*
X1169826Y711657D01*
X1133400D01*
X1133367Y712913D01*
X1133367Y712927D01*
Y723364D01*
X1138070Y728068D01*
X1138370Y728790D01*
X1139589Y728913D01*
X1139589Y728913D01*
X1139589Y728913D01*
X1155367D01*
Y736692D01*
X1157535D01*
X1162581Y731646D01*
Y726201D01*
X1171359D01*
Y733979D01*
X1164914D01*
X1159384Y739508D01*
X1158218Y739992D01*
X1155367D01*
Y742691D01*
X1148300D01*
Y750749D01*
X1148665Y751295D01*
X1148831Y752130D01*
Y756630D01*
X1148665Y757465D01*
X1148192Y758172D01*
X1147485Y758645D01*
X1146650Y758811D01*
X1145815Y758645D01*
X1145108Y758172D01*
X1144856Y757795D01*
X1144606Y757725D01*
X1143694D01*
X1143444Y757795D01*
X1143192Y758172D01*
X1142485Y758645D01*
X1141650Y758811D01*
X1140815Y758645D01*
X1140108Y758172D01*
X1139635Y757465D01*
X1139469Y756630D01*
Y752130D01*
X1139635Y751295D01*
X1140000Y750749D01*
Y745813D01*
X1135738Y741550D01*
X1135254Y740383D01*
Y729917D01*
X1132028Y726691D01*
X1117589D01*
Y722915D01*
X1108535D01*
X1108232Y722789D01*
X1101781D01*
Y715011D01*
X1110559D01*
Y719615D01*
X1117589D01*
Y712927D01*
X1117589Y712913D01*
X1117556Y711657D01*
X1104977D01*
X1103811Y711173D01*
X1100661Y708024D01*
X1097941D01*
X1097327Y709294D01*
X1097530Y709598D01*
X1097716Y710530D01*
X1097530Y711462D01*
X1097002Y712252D01*
X1096982Y712266D01*
Y713794D01*
X1097002Y713808D01*
X1097530Y714598D01*
X1097716Y715530D01*
X1097530Y716462D01*
X1097002Y717252D01*
X1096982Y717266D01*
Y718794D01*
X1097002Y718808D01*
X1097530Y719598D01*
X1097716Y720530D01*
X1097530Y721462D01*
X1097002Y722252D01*
X1096982Y722266D01*
Y723794D01*
X1097002Y723808D01*
X1097530Y724598D01*
X1097716Y725530D01*
X1097530Y726462D01*
X1097002Y727252D01*
X1096982Y727266D01*
Y728794D01*
X1097002Y728808D01*
X1097530Y729598D01*
X1097716Y730530D01*
X1097530Y731462D01*
X1097002Y732252D01*
X1097665Y733327D01*
X1098216Y733880D01*
X1101290D01*
X1102456Y734364D01*
X1119208Y751115D01*
X1123890D01*
X1124272Y749855D01*
X1124218Y749807D01*
X1123906Y749598D01*
X1123035Y748296D01*
X1122730Y746760D01*
X1123035Y745224D01*
X1123906Y743922D01*
X1125208Y743051D01*
X1126744Y742746D01*
X1128280Y743051D01*
X1129582Y743922D01*
X1130453Y745224D01*
X1130758Y746760D01*
X1130492Y748098D01*
X1132557Y750163D01*
X1133192Y750588D01*
X1133665Y751295D01*
X1133831Y752130D01*
Y756630D01*
X1133665Y757465D01*
X1133192Y758172D01*
X1132485Y758645D01*
X1131650Y758811D01*
X1130815Y758645D01*
X1130108Y758172D01*
X1129856Y757795D01*
X1129606Y757725D01*
X1128694D01*
X1128444Y757795D01*
X1128192Y758172D01*
X1127485Y758645D01*
X1126650Y758811D01*
X1125815Y758645D01*
X1125108Y758172D01*
X1124635Y757465D01*
X1124469Y756630D01*
Y754415D01*
X1118525D01*
X1117359Y753931D01*
X1113933Y750506D01*
X1113811Y750512D01*
X1112637Y751006D01*
X1112419Y752106D01*
X1111548Y753408D01*
X1110920Y753828D01*
X1110903Y755344D01*
X1111294Y755606D01*
X1112165Y756908D01*
X1112233Y757251D01*
X1112298Y757278D01*
X1115749Y760729D01*
X1115900Y760699D01*
X1120400D01*
X1121235Y760865D01*
X1121942Y761338D01*
X1122415Y762045D01*
X1122581Y762880D01*
X1122415Y763715D01*
X1121942Y764422D01*
X1121565Y764674D01*
X1121495Y764924D01*
Y765836D01*
X1121565Y766086D01*
X1121942Y766338D01*
X1122415Y767045D01*
X1122581Y767880D01*
X1122415Y768715D01*
X1121942Y769422D01*
X1121564Y769674D01*
X1121495Y769924D01*
Y770836D01*
X1121564Y771086D01*
X1121942Y771338D01*
X1122415Y772045D01*
X1122581Y772880D01*
X1122415Y773715D01*
X1121942Y774422D01*
X1121565Y774674D01*
X1121495Y774924D01*
Y775836D01*
X1121565Y776086D01*
X1121942Y776338D01*
X1122415Y777045D01*
X1122581Y777880D01*
X1122415Y778715D01*
X1121942Y779422D01*
X1121565Y779674D01*
X1121495Y779924D01*
Y780836D01*
X1121565Y781086D01*
X1121942Y781338D01*
X1122415Y782045D01*
X1122581Y782880D01*
X1122415Y783715D01*
X1121942Y784422D01*
X1121235Y784895D01*
X1120400Y785061D01*
X1115900D01*
X1115065Y784895D01*
X1114519Y784530D01*
X1108641D01*
X1107977Y784255D01*
X1107818Y784302D01*
X1106808Y785031D01*
X1106804Y785039D01*
Y808307D01*
X1129713Y831216D01*
X1165606D01*
X1166772Y831700D01*
X1176678Y841606D01*
X1177162Y842772D01*
Y853881D01*
X1178432Y854693D01*
X1180816Y853705D01*
X1184148Y853266D01*
X1187480Y853705D01*
X1190585Y854991D01*
X1193251Y857037D01*
X1195297Y859703D01*
X1196583Y862808D01*
X1197022Y866140D01*
X1196583Y869472D01*
X1195297Y872577D01*
X1193251Y875243D01*
X1190585Y877289D01*
X1187480Y878575D01*
X1184148Y879014D01*
X1180816Y878575D01*
X1177711Y877289D01*
X1175045Y875243D01*
X1173669Y873450D01*
X1172399Y873881D01*
Y879538D01*
X1171916Y880705D01*
X1169512Y883109D01*
X1169644Y883307D01*
X1170018Y885190D01*
X1169656Y887011D01*
X1169711Y887091D01*
X1170796Y887667D01*
X1175726Y882737D01*
X1176356Y882316D01*
X1177100Y882168D01*
X1177100Y882168D01*
X1196869D01*
X1199902Y879135D01*
X1199692Y878078D01*
X1199997Y876542D01*
X1200868Y875240D01*
X1202170Y874369D01*
X1203706Y874064D01*
X1205242Y874369D01*
X1206544Y875240D01*
X1207415Y876542D01*
X1207720Y878078D01*
X1207415Y879614D01*
X1206544Y880916D01*
X1205242Y881787D01*
X1203706Y882092D01*
X1202649Y881882D01*
X1199047Y885484D01*
X1198417Y885905D01*
X1197673Y886053D01*
X1191774D01*
X1191343Y887323D01*
X1193251Y888787D01*
X1195297Y891453D01*
X1196583Y894558D01*
X1197022Y897890D01*
X1196583Y901222D01*
X1195297Y904327D01*
X1193251Y906993D01*
X1190585Y909039D01*
X1187480Y910325D01*
X1184833Y910673D01*
X1184917Y911943D01*
X1194055D01*
X1194142Y911961D01*
X1198536Y911528D01*
D02*
G37*
G36*
X997984Y859554D02*
X997984Y859554D01*
X998908Y858936D01*
X999998Y858719D01*
X999998Y858719D01*
X1000816D01*
X1001494Y857449D01*
X1001369Y857262D01*
X1001064Y855726D01*
X1001369Y854190D01*
X1001388Y854162D01*
X987178Y839952D01*
X985807Y840376D01*
X985479Y842022D01*
X984178Y843970D01*
X982230Y845271D01*
X981449Y845427D01*
Y846721D01*
X982230Y846877D01*
X984178Y848178D01*
X985479Y850126D01*
X985936Y852424D01*
X985479Y854722D01*
X984178Y856670D01*
X982230Y857971D01*
X982386Y859235D01*
X985821D01*
Y869920D01*
X987091Y870446D01*
X997984Y859554D01*
D02*
G37*
G36*
X1091766Y819529D02*
X1091793Y819392D01*
X1092664Y818090D01*
X1093966Y817219D01*
X1095502Y816914D01*
X1097038Y817219D01*
X1098340Y818090D01*
X1099211Y819392D01*
X1099239Y819532D01*
X1107386D01*
X1107872Y818359D01*
X1095693Y806180D01*
X1073716D01*
Y809530D01*
X1073530Y810462D01*
X1073034Y811205D01*
X1073089Y811486D01*
X1073459Y812475D01*
X1082233D01*
X1083399Y812958D01*
X1090388Y819947D01*
X1091766Y819529D01*
D02*
G37*
G36*
X1103504Y807530D02*
Y785289D01*
X1096886Y778671D01*
X1095971Y778291D01*
X1095584Y777905D01*
X1095280Y777966D01*
X1085280D01*
X1084348Y777780D01*
X1083558Y777252D01*
X1083030Y776462D01*
X1082844Y775530D01*
X1083030Y774598D01*
X1083558Y773808D01*
X1083578Y773794D01*
Y772266D01*
X1083558Y772252D01*
X1083030Y771462D01*
X1082844Y770530D01*
X1083030Y769598D01*
X1083558Y768808D01*
X1083578Y768794D01*
Y767266D01*
X1083558Y767252D01*
X1083030Y766462D01*
X1082844Y765530D01*
X1083030Y764598D01*
X1083558Y763808D01*
X1083578Y763794D01*
X1083619Y763621D01*
X1083270Y762472D01*
X1065330D01*
X1064587Y762325D01*
X1063957Y761903D01*
X1029461Y727408D01*
X1028192Y727660D01*
X1026656Y727355D01*
X1025354Y726484D01*
X1024483Y725182D01*
X1024178Y723646D01*
X1024483Y722110D01*
X1025354Y720808D01*
X1026656Y719937D01*
X1028192Y719632D01*
X1029549Y719902D01*
X1030197Y719493D01*
X1030673Y719041D01*
X1030528Y718312D01*
X1030833Y716776D01*
X1031704Y715474D01*
X1033006Y714603D01*
X1034542Y714298D01*
X1036078Y714603D01*
X1037380Y715474D01*
X1038251Y716776D01*
X1038556Y718312D01*
X1038404Y719079D01*
X1073325Y754000D01*
X1083429D01*
X1083558Y753808D01*
X1083578Y753794D01*
Y752266D01*
X1083558Y752252D01*
X1083030Y751462D01*
X1082844Y750530D01*
X1083030Y749598D01*
X1083558Y748808D01*
X1083578Y748794D01*
Y747266D01*
X1083558Y747252D01*
X1083030Y746462D01*
X1082844Y745530D01*
X1083030Y744598D01*
X1083558Y743808D01*
X1083578Y743794D01*
Y742266D01*
X1083558Y742252D01*
X1083030Y741462D01*
X1082844Y740530D01*
X1083030Y739598D01*
X1083558Y738808D01*
X1083578Y738794D01*
Y737266D01*
X1083558Y737252D01*
X1083030Y736462D01*
X1082844Y735530D01*
X1083030Y734598D01*
X1083558Y733808D01*
X1083578Y733794D01*
Y732266D01*
X1083558Y732252D01*
X1083030Y731462D01*
X1082844Y730530D01*
X1083030Y729598D01*
X1083558Y728808D01*
X1083578Y728794D01*
Y727266D01*
X1083558Y727252D01*
X1083030Y726462D01*
X1082844Y725530D01*
X1083030Y724598D01*
X1083558Y723808D01*
X1083578Y723794D01*
Y722266D01*
X1083558Y722252D01*
X1083030Y721462D01*
X1082844Y720530D01*
X1083030Y719598D01*
X1083558Y718808D01*
X1083578Y718794D01*
Y717266D01*
X1083558Y717252D01*
X1083030Y716462D01*
X1082844Y715530D01*
X1083030Y714598D01*
X1083558Y713808D01*
X1083578Y713794D01*
Y712266D01*
X1083558Y712252D01*
X1083030Y711462D01*
X1082844Y710530D01*
X1083030Y709598D01*
X1083233Y709294D01*
X1082619Y708024D01*
X1021124D01*
X1019958Y707540D01*
X1011366Y698949D01*
X1011280Y698966D01*
X1010348Y698780D01*
X1010010Y698555D01*
X1008740Y699141D01*
Y711383D01*
X1022513Y725156D01*
X1023025Y725921D01*
X1033080Y735977D01*
X1033526Y735888D01*
X1035062Y736193D01*
X1036364Y737064D01*
X1037235Y738366D01*
X1037294Y738667D01*
X1081673Y783046D01*
X1090256D01*
X1090500Y783094D01*
X1095280D01*
X1096212Y783280D01*
X1097002Y783808D01*
X1097530Y784598D01*
X1097716Y785530D01*
X1097530Y786462D01*
X1097002Y787252D01*
X1096212Y787780D01*
X1095280Y787966D01*
X1090403D01*
X1090280Y787990D01*
X1090159Y787966D01*
X1080654D01*
X1079713Y787779D01*
X1078914Y787246D01*
X1061840Y770171D01*
X1060461Y770589D01*
X1060349Y771156D01*
X1059478Y772458D01*
X1058176Y773329D01*
X1058110Y773342D01*
Y787303D01*
X1058356Y787503D01*
X1060056Y787244D01*
X1060152Y787102D01*
X1061454Y786231D01*
X1062990Y785926D01*
X1064526Y786231D01*
X1065828Y787102D01*
X1066699Y788404D01*
X1067004Y789940D01*
X1066699Y791476D01*
X1065828Y792778D01*
X1064526Y793649D01*
X1064162Y793721D01*
Y794893D01*
X1063678Y796059D01*
X1063179Y796558D01*
X1063184Y796657D01*
X1063562Y797062D01*
X1064558Y797808D01*
X1065348Y797280D01*
X1066280Y797094D01*
X1067212Y797280D01*
X1068002Y797808D01*
X1068016Y797828D01*
X1069544D01*
X1069558Y797808D01*
X1070348Y797280D01*
X1071280Y797094D01*
X1072212Y797280D01*
X1073002Y797808D01*
X1073530Y798598D01*
X1073716Y799530D01*
Y802880D01*
X1096376D01*
X1097542Y803364D01*
X1102234Y808056D01*
X1103504Y807530D01*
D02*
G37*
G36*
X1082347Y757318D02*
X1082334Y757300D01*
X1072642D01*
X1071476Y756816D01*
X1036439Y721780D01*
X1036078Y722021D01*
X1034542Y722326D01*
X1033185Y722056D01*
X1032537Y722465D01*
X1032061Y722917D01*
X1032206Y723646D01*
X1032038Y724491D01*
X1066134Y758588D01*
X1081708D01*
X1082347Y757318D01*
D02*
G37*
G36*
X1117104Y700570D02*
X1117251Y699833D01*
X1117387Y699628D01*
X1116472Y698713D01*
X1116267Y698849D01*
X1115530Y698996D01*
X1111030D01*
X1110293Y698849D01*
X1109668Y698432D01*
X1109251Y697807D01*
X1109104Y697070D01*
X1109251Y696333D01*
X1109552Y695882D01*
X1109668Y695708D01*
Y694432D01*
X1109552Y694258D01*
X1109251Y693807D01*
X1109104Y693070D01*
X1109251Y692333D01*
X1109552Y691882D01*
X1109668Y691708D01*
Y690432D01*
X1109552Y690258D01*
X1109251Y689807D01*
X1109104Y689070D01*
X1109251Y688333D01*
X1109552Y687882D01*
X1109668Y687708D01*
Y686432D01*
X1109552Y686258D01*
X1109251Y685807D01*
X1109104Y685070D01*
X1109251Y684333D01*
X1109552Y683882D01*
X1109668Y683708D01*
Y682432D01*
X1109552Y682258D01*
X1109251Y681807D01*
X1109104Y681070D01*
X1109251Y680333D01*
X1109552Y679882D01*
X1109668Y679708D01*
Y678432D01*
X1109552Y678258D01*
X1109251Y677807D01*
X1109104Y677070D01*
X1109251Y676333D01*
X1109668Y675708D01*
X1110293Y675291D01*
X1111030Y675144D01*
X1115530D01*
X1116267Y675291D01*
X1116472Y675427D01*
X1117387Y674512D01*
X1117251Y674307D01*
X1117104Y673570D01*
Y669070D01*
X1117251Y668333D01*
X1117668Y667708D01*
X1118293Y667291D01*
X1119030Y667144D01*
X1119767Y667291D01*
X1120110Y667520D01*
X1121092Y667177D01*
X1121380Y666957D01*
Y664789D01*
X1116171D01*
Y656011D01*
X1120051D01*
X1120241Y655054D01*
X1120498Y654670D01*
X1119819Y653400D01*
X1050733D01*
X1022730Y681403D01*
Y684625D01*
X1023002Y684808D01*
X1023016Y684828D01*
X1024544D01*
X1024558Y684808D01*
X1025348Y684280D01*
X1026280Y684094D01*
X1027212Y684280D01*
X1028028Y683949D01*
X1028269Y683082D01*
X1027878Y682497D01*
X1027572Y680961D01*
X1027878Y679425D01*
X1028748Y678122D01*
X1030051Y677252D01*
X1031587Y676947D01*
X1033123Y677252D01*
X1034425Y678122D01*
X1035295Y679425D01*
X1035601Y680961D01*
X1035295Y682497D01*
X1034835Y683185D01*
X1034916Y683358D01*
X1035675Y684214D01*
X1036280Y684094D01*
X1037212Y684280D01*
X1038002Y684808D01*
X1038016Y684828D01*
X1039544D01*
X1039558Y684808D01*
X1040348Y684280D01*
X1041280Y684094D01*
X1042212Y684280D01*
X1043002Y684808D01*
X1043016Y684828D01*
X1044544D01*
X1044558Y684808D01*
X1045348Y684280D01*
X1046280Y684094D01*
X1047212Y684280D01*
X1048002Y684808D01*
X1048016Y684828D01*
X1049544D01*
X1049558Y684808D01*
X1050348Y684280D01*
X1051280Y684094D01*
X1052212Y684280D01*
X1053002Y684808D01*
X1053016Y684828D01*
X1054544D01*
X1054558Y684808D01*
X1055348Y684280D01*
X1056280Y684094D01*
X1057212Y684280D01*
X1058002Y684808D01*
X1058016Y684828D01*
X1059544D01*
X1059558Y684808D01*
X1060348Y684280D01*
X1061280Y684094D01*
X1062212Y684280D01*
X1063002Y684808D01*
X1063530Y685598D01*
X1063716Y686530D01*
Y696530D01*
X1063530Y697462D01*
X1063368Y697706D01*
X1064032Y698976D01*
X1068528D01*
X1069192Y697706D01*
X1069030Y697462D01*
X1068844Y696530D01*
Y686530D01*
X1069030Y685598D01*
X1069558Y684808D01*
X1070348Y684280D01*
X1071280Y684094D01*
X1072212Y684280D01*
X1073002Y684808D01*
X1073530Y685598D01*
X1073716Y686530D01*
Y691133D01*
X1074986Y692086D01*
X1075690Y691946D01*
X1077226Y692251D01*
X1078528Y693122D01*
X1079399Y694424D01*
X1079448Y694671D01*
X1080826Y695089D01*
X1083210Y692705D01*
X1083756Y692340D01*
X1084400Y692212D01*
X1097697D01*
X1098713Y690942D01*
X1098600Y690372D01*
X1098905Y688836D01*
X1099776Y687534D01*
X1101078Y686663D01*
X1102614Y686358D01*
X1104150Y686663D01*
X1105452Y687534D01*
X1106323Y688836D01*
X1106628Y690372D01*
X1106323Y691908D01*
X1105452Y693210D01*
X1104606Y693776D01*
X1104285Y695250D01*
X1110171Y701137D01*
X1117104D01*
Y700570D01*
D02*
G37*
G36*
X1189943Y726647D02*
X1193378D01*
X1193534Y725383D01*
X1191586Y724082D01*
X1190285Y722134D01*
X1189828Y719836D01*
X1190285Y717538D01*
X1191586Y715590D01*
X1193534Y714289D01*
X1194315Y714133D01*
Y712839D01*
X1193534Y712683D01*
X1191586Y711382D01*
X1190285Y709434D01*
X1189828Y707136D01*
X1190285Y704838D01*
X1191586Y702890D01*
X1193534Y701589D01*
X1194315Y701433D01*
Y700139D01*
X1193534Y699983D01*
X1191586Y698682D01*
X1190285Y696734D01*
X1189828Y694436D01*
X1190285Y692138D01*
X1191586Y690190D01*
X1193534Y688889D01*
X1195832Y688432D01*
X1198130Y688889D01*
X1200078Y690190D01*
X1201379Y692138D01*
X1201836Y694436D01*
X1201379Y696734D01*
X1200078Y698682D01*
X1198130Y699983D01*
X1197349Y700139D01*
Y701433D01*
X1198130Y701589D01*
X1200078Y702890D01*
X1201379Y704838D01*
X1201836Y707136D01*
X1201379Y709434D01*
X1200078Y711382D01*
X1198130Y712683D01*
X1197349Y712839D01*
Y714133D01*
X1198130Y714289D01*
X1198679Y714656D01*
X1207390Y705945D01*
Y682419D01*
X1178371Y653400D01*
X1131477D01*
X1131406Y653436D01*
X1130628Y654670D01*
X1130680Y654794D01*
Y655077D01*
X1131491Y656011D01*
X1131950Y656011D01*
X1139269D01*
Y664789D01*
X1133824D01*
X1132680Y665933D01*
Y668139D01*
X1132809Y668333D01*
X1132956Y669070D01*
Y673570D01*
X1132809Y674307D01*
X1132392Y674932D01*
X1131767Y675349D01*
X1131030Y675496D01*
X1130293Y675349D01*
X1129842Y675048D01*
X1129668Y674932D01*
X1128392D01*
X1128218Y675048D01*
X1127767Y675349D01*
X1127030Y675496D01*
X1126293Y675349D01*
X1125668Y674932D01*
X1124392D01*
X1123767Y675349D01*
X1123030Y675496D01*
X1122293Y675349D01*
X1121842Y675048D01*
X1121668Y674932D01*
X1120392D01*
X1120218Y675048D01*
X1119767Y675349D01*
X1119030Y675496D01*
X1118293Y675349D01*
X1118088Y675213D01*
X1117173Y676128D01*
X1117309Y676333D01*
X1117456Y677070D01*
X1117309Y677807D01*
X1117008Y678258D01*
X1116892Y678432D01*
Y679708D01*
X1117008Y679882D01*
X1117309Y680333D01*
X1117456Y681070D01*
X1117309Y681807D01*
X1117008Y682258D01*
X1116892Y682432D01*
Y683708D01*
X1117008Y683882D01*
X1117309Y684333D01*
X1117456Y685070D01*
X1117309Y685807D01*
X1117008Y686258D01*
X1116892Y686432D01*
Y687708D01*
X1117008Y687882D01*
X1117309Y688333D01*
X1117456Y689070D01*
X1117309Y689807D01*
X1117008Y690258D01*
X1116892Y690432D01*
Y691708D01*
X1117008Y691882D01*
X1117309Y692333D01*
X1117456Y693070D01*
X1117309Y693807D01*
X1117008Y694258D01*
X1116892Y694432D01*
Y695708D01*
X1117008Y695882D01*
X1117309Y696333D01*
X1117456Y697070D01*
X1117309Y697807D01*
X1117173Y698012D01*
X1118088Y698927D01*
X1118293Y698791D01*
X1119030Y698644D01*
X1119767Y698791D01*
X1120392Y699208D01*
X1121668D01*
X1122293Y698791D01*
X1123030Y698644D01*
X1123767Y698791D01*
X1124392Y699208D01*
X1125668D01*
X1126293Y698791D01*
X1127030Y698644D01*
X1127767Y698791D01*
X1128218Y699092D01*
X1128392Y699208D01*
X1129668D01*
X1129842Y699092D01*
X1130293Y698791D01*
X1131030Y698644D01*
X1131767Y698791D01*
X1132392Y699208D01*
X1132809Y699833D01*
X1132956Y700570D01*
Y705070D01*
X1132809Y705807D01*
X1132392Y706432D01*
X1131767Y706849D01*
X1131030Y706996D01*
X1130293Y706849D01*
X1129842Y706548D01*
X1129668Y706432D01*
X1128392D01*
X1128218Y706548D01*
X1127767Y706849D01*
X1127742Y707087D01*
X1128834Y708357D01*
X1170509D01*
X1171675Y708841D01*
X1177694Y714860D01*
X1178178Y716026D01*
Y729567D01*
X1179497Y730886D01*
X1189943D01*
Y726647D01*
D02*
G37*
%LPC*%
G36*
X1133348Y879014D02*
X1130016Y878575D01*
X1126911Y877289D01*
X1124245Y875243D01*
X1122199Y872577D01*
X1120913Y869472D01*
X1120474Y866140D01*
X1120913Y862808D01*
X1122199Y859703D01*
X1124245Y857037D01*
X1126911Y854991D01*
X1130016Y853705D01*
X1133348Y853266D01*
X1136680Y853705D01*
X1139785Y854991D01*
X1142451Y857037D01*
X1144497Y859703D01*
X1145783Y862808D01*
X1146222Y866140D01*
X1145783Y869472D01*
X1144497Y872577D01*
X1142451Y875243D01*
X1139785Y877289D01*
X1136680Y878575D01*
X1133348Y879014D01*
D02*
G37*
G36*
X1058063Y908561D02*
X1041285D01*
Y891283D01*
X1058063D01*
Y908561D01*
D02*
G37*
G36*
X1038063D02*
X1021285D01*
Y891283D01*
X1038063D01*
Y908561D01*
D02*
G37*
G36*
X1074674Y908667D02*
X1074511Y908634D01*
X1062674D01*
X1061993Y908352D01*
X1061712Y907672D01*
Y892172D01*
X1061993Y891492D01*
X1062674Y891210D01*
X1074511D01*
X1074674Y891177D01*
X1076777Y891596D01*
X1078559Y892787D01*
X1079750Y894569D01*
X1080169Y896672D01*
Y903172D01*
X1079750Y905275D01*
X1078559Y907057D01*
X1076777Y908248D01*
X1074674Y908667D01*
D02*
G37*
G36*
X1004674D02*
X1002571Y908248D01*
X1000789Y907057D01*
X999598Y905275D01*
X999179Y903172D01*
Y896672D01*
X999598Y894569D01*
X1000789Y892787D01*
X1002571Y891596D01*
X1004674Y891177D01*
X1004836Y891210D01*
X1016674D01*
X1017354Y891491D01*
X1017636Y892172D01*
Y907672D01*
X1017354Y908352D01*
X1016674Y908634D01*
X1004837D01*
X1004674Y908667D01*
D02*
G37*
G36*
X1066174Y878671D02*
X1063174D01*
X1060974Y878234D01*
X1059109Y876988D01*
X1057862Y875122D01*
X1057424Y872922D01*
X1057862Y870722D01*
X1059109Y868857D01*
X1060974Y867610D01*
X1063174Y867172D01*
X1066174D01*
X1068374Y867610D01*
X1070239Y868857D01*
X1071486Y870722D01*
X1071924Y872922D01*
X1071486Y875122D01*
X1070662Y876356D01*
X1070626Y876443D01*
X1070595Y876455D01*
X1070239Y876988D01*
X1068374Y878234D01*
X1066174Y878671D01*
D02*
G37*
G36*
X1016174D02*
X1013174D01*
X1010974Y878234D01*
X1009109Y876988D01*
X1007862Y875122D01*
X1007424Y872922D01*
X1007862Y870722D01*
X1009109Y868857D01*
X1010974Y867610D01*
X1013174Y867172D01*
X1016174D01*
X1018374Y867610D01*
X1020239Y868857D01*
X1020693Y869536D01*
X1021350Y869807D01*
X1021604Y870061D01*
X1021926Y870839D01*
Y875665D01*
X1021604Y876443D01*
X1020826Y876765D01*
X1020388D01*
X1020239Y876988D01*
X1018374Y878234D01*
X1016174Y878671D01*
D02*
G37*
G36*
X1082802Y836626D02*
X1081266Y836321D01*
X1079964Y835450D01*
X1079093Y834148D01*
X1079087Y834116D01*
X1077301Y832330D01*
X1072086D01*
X1071748Y832263D01*
X1067237D01*
Y831906D01*
X1063829D01*
Y832335D01*
X1051551D01*
Y824557D01*
X1063829D01*
Y824914D01*
X1067237D01*
Y824485D01*
X1076015D01*
Y825338D01*
X1078749D01*
X1080087Y825604D01*
X1081221Y826362D01*
X1083620Y828761D01*
X1084338Y828903D01*
X1085640Y829774D01*
X1086511Y831076D01*
X1086816Y832612D01*
X1086511Y834148D01*
X1085640Y835450D01*
X1084338Y836321D01*
X1082802Y836626D01*
D02*
G37*
G36*
X1011280Y811966D02*
X1010348Y811780D01*
X1009558Y811252D01*
X1009544Y811232D01*
X1008016D01*
X1008002Y811252D01*
X1007212Y811780D01*
X1006280Y811966D01*
X1005348Y811780D01*
X1004558Y811252D01*
X1004030Y810462D01*
X1003844Y809530D01*
Y799530D01*
X1004030Y798598D01*
X1004558Y797808D01*
X1005348Y797280D01*
X1006280Y797094D01*
X1007212Y797280D01*
X1008002Y797808D01*
X1008016Y797829D01*
X1009544D01*
X1009558Y797808D01*
X1010348Y797280D01*
X1011280Y797094D01*
X1012212Y797280D01*
X1013002Y797808D01*
X1013530Y798598D01*
X1013716Y799530D01*
Y809530D01*
X1013530Y810462D01*
X1013002Y811252D01*
X1012212Y811780D01*
X1011280Y811966D01*
D02*
G37*
G36*
X996280Y698966D02*
X995348Y698780D01*
X994558Y698252D01*
X994030Y697462D01*
X993844Y696530D01*
Y686530D01*
X994030Y685598D01*
X994558Y684808D01*
X995348Y684280D01*
X996280Y684094D01*
X997212Y684280D01*
X998002Y684808D01*
X998530Y685598D01*
X998716Y686530D01*
Y696530D01*
X998530Y697462D01*
X998002Y698252D01*
X997212Y698780D01*
X996280Y698966D01*
D02*
G37*
G36*
X996957Y676155D02*
X980179D01*
Y659377D01*
X996957D01*
Y676155D01*
D02*
G37*
G36*
X1013968Y676227D02*
X1011778Y675939D01*
X1009737Y675094D01*
X1007985Y673749D01*
X1006640Y671997D01*
X1005795Y669956D01*
X1005507Y667766D01*
X1005795Y665576D01*
X1006640Y663535D01*
X1007985Y661783D01*
X1009737Y660438D01*
X1011778Y659593D01*
X1013968Y659305D01*
X1016158Y659593D01*
X1018199Y660438D01*
X1019951Y661783D01*
X1021296Y663535D01*
X1022141Y665576D01*
X1022429Y667766D01*
X1022141Y669956D01*
X1021296Y671997D01*
X1019951Y673749D01*
X1018199Y675094D01*
X1016158Y675939D01*
X1013968Y676227D01*
D02*
G37*
G36*
X1144849Y811181D02*
X1136071D01*
Y806516D01*
X1135093Y805538D01*
X1134616Y804824D01*
X1134449Y803982D01*
Y797767D01*
X1133179Y797250D01*
X1133060Y797372D01*
Y798330D01*
X1132576Y799496D01*
X1131489Y800584D01*
Y807029D01*
X1123711D01*
Y798251D01*
X1129156D01*
X1129760Y797647D01*
Y796290D01*
X1129911Y795927D01*
Y794877D01*
X1129635Y794465D01*
X1129469Y793630D01*
Y789130D01*
X1129635Y788295D01*
X1130108Y787588D01*
X1130815Y787115D01*
X1131650Y786949D01*
X1132485Y787115D01*
X1133192Y787588D01*
X1133444Y787965D01*
X1133694Y788035D01*
X1134606D01*
X1134856Y787965D01*
X1135108Y787588D01*
X1135815Y787115D01*
X1136650Y786949D01*
X1137485Y787115D01*
X1138192Y787588D01*
X1138665Y788295D01*
X1138831Y789130D01*
Y791277D01*
X1138851Y791380D01*
Y802169D01*
X1140121Y802294D01*
X1140307Y801358D01*
X1141178Y800056D01*
X1142480Y799185D01*
X1144016Y798880D01*
X1144858Y799047D01*
X1145400Y798200D01*
X1145532Y797886D01*
X1145075Y796785D01*
Y795124D01*
X1144635Y794465D01*
X1144469Y793630D01*
Y789130D01*
X1144635Y788295D01*
X1145108Y787588D01*
X1145815Y787115D01*
X1146650Y786949D01*
X1147485Y787115D01*
X1148192Y787588D01*
X1148665Y788295D01*
X1148831Y789130D01*
Y793630D01*
X1148665Y794465D01*
X1148375Y794899D01*
Y796102D01*
X1151104Y798831D01*
X1157049D01*
Y806609D01*
X1148271D01*
Y805898D01*
X1147001Y805513D01*
X1146854Y805732D01*
X1145552Y806603D01*
X1144849Y806742D01*
Y811181D01*
D02*
G37*
G36*
X1171359Y790099D02*
X1162581D01*
Y786353D01*
X1162558Y786334D01*
X1161022Y786029D01*
X1159720Y785158D01*
X1159435Y784733D01*
X1158477D01*
X1158235Y784895D01*
X1157400Y785061D01*
X1152900D01*
X1152065Y784895D01*
X1151358Y784422D01*
X1150885Y783715D01*
X1150719Y782880D01*
X1150885Y782045D01*
X1151358Y781338D01*
X1152065Y780865D01*
X1152900Y780699D01*
X1157400D01*
X1157619Y780743D01*
X1158849Y780784D01*
X1159720Y779482D01*
X1161022Y778611D01*
X1162558Y778306D01*
X1164094Y778611D01*
X1165396Y779482D01*
X1166267Y780784D01*
X1166572Y782320D01*
X1166573Y782321D01*
X1171359D01*
Y790099D01*
D02*
G37*
G36*
X1193797Y780843D02*
X1181519D01*
Y776604D01*
X1179857D01*
Y778085D01*
X1175579D01*
Y770855D01*
X1175579Y770807D01*
Y769585D01*
X1174309Y769585D01*
X1169857Y769585D01*
Y770807D01*
X1169857Y770855D01*
Y778085D01*
X1165579D01*
Y774912D01*
X1158149D01*
X1157400Y775061D01*
X1152900D01*
X1152065Y774895D01*
X1151358Y774422D01*
X1150885Y773715D01*
X1150719Y772880D01*
X1150885Y772045D01*
X1151358Y771338D01*
X1151735Y771086D01*
X1151805Y770836D01*
Y769924D01*
X1151735Y769674D01*
X1151358Y769422D01*
X1150885Y768715D01*
X1150719Y767880D01*
X1150885Y767045D01*
X1151358Y766338D01*
X1151735Y766086D01*
X1151805Y765836D01*
Y764924D01*
X1151735Y764674D01*
X1151358Y764422D01*
X1150885Y763715D01*
X1150719Y762880D01*
X1150885Y762045D01*
X1151358Y761338D01*
X1152065Y760865D01*
X1152900Y760699D01*
X1157248D01*
X1162581Y755366D01*
Y750491D01*
X1171359D01*
Y750874D01*
X1175441D01*
Y747363D01*
X1184219D01*
Y755141D01*
X1175441D01*
Y754758D01*
X1172391D01*
X1171865Y756028D01*
X1174091Y758255D01*
X1174512Y758885D01*
X1174660Y759628D01*
Y761459D01*
X1175579Y762307D01*
X1176127Y762307D01*
X1179857D01*
Y769537D01*
X1179857Y769585D01*
Y770807D01*
X1179857Y770855D01*
Y773304D01*
X1181519D01*
Y769065D01*
X1193797D01*
Y780843D01*
D02*
G37*
G36*
X1192226Y752552D02*
X1190690Y752247D01*
X1189388Y751376D01*
X1188518Y750074D01*
X1188212Y748538D01*
X1188362Y747786D01*
X1185278Y744703D01*
X1184219Y745141D01*
Y745141D01*
X1175441D01*
Y737363D01*
X1184219D01*
Y738971D01*
X1184860D01*
X1185703Y739138D01*
X1186417Y739615D01*
X1191475Y744673D01*
X1192226Y744524D01*
X1193762Y744829D01*
X1195065Y745700D01*
X1195935Y747002D01*
X1196240Y748538D01*
X1195935Y750074D01*
X1195065Y751376D01*
X1193762Y752247D01*
X1192226Y752552D01*
D02*
G37*
G36*
X1139030Y706996D02*
X1138293Y706849D01*
X1137668Y706432D01*
X1137251Y705807D01*
X1137104Y705070D01*
Y700570D01*
X1137251Y699833D01*
X1137668Y699208D01*
X1138293Y698791D01*
X1139030Y698644D01*
X1139767Y698791D01*
X1140392Y699208D01*
X1140809Y699833D01*
X1140956Y700570D01*
Y705070D01*
X1140809Y705807D01*
X1140392Y706432D01*
X1139767Y706849D01*
X1139030Y706996D01*
D02*
G37*
G36*
X1147030Y694996D02*
X1142530D01*
X1141793Y694849D01*
X1141168Y694432D01*
X1140751Y693807D01*
X1140604Y693070D01*
X1140751Y692333D01*
X1141052Y691882D01*
X1141168Y691708D01*
Y690432D01*
X1141052Y690258D01*
X1140751Y689807D01*
X1140604Y689070D01*
X1140751Y688333D01*
X1141052Y687882D01*
X1141168Y687708D01*
Y686432D01*
X1141052Y686258D01*
X1140751Y685807D01*
X1140604Y685070D01*
X1140751Y684333D01*
X1141052Y683882D01*
X1141168Y683708D01*
Y682432D01*
X1141052Y682258D01*
X1140751Y681807D01*
X1140604Y681070D01*
X1140751Y680333D01*
X1141052Y679882D01*
X1141168Y679708D01*
Y678432D01*
X1141052Y678258D01*
X1140751Y677807D01*
X1140604Y677070D01*
X1140751Y676333D01*
X1140887Y676128D01*
X1139972Y675213D01*
X1139767Y675349D01*
X1139030Y675496D01*
X1138293Y675349D01*
X1137668Y674932D01*
X1137251Y674307D01*
X1137104Y673570D01*
Y669070D01*
X1137251Y668333D01*
X1137668Y667708D01*
X1138293Y667291D01*
X1139030Y667144D01*
X1139767Y667291D01*
X1140392Y667708D01*
X1140485Y667848D01*
X1143887D01*
X1143972Y667722D01*
X1145274Y666851D01*
X1146810Y666546D01*
X1148346Y666851D01*
X1149648Y667722D01*
X1150519Y669024D01*
X1150824Y670560D01*
X1150519Y672096D01*
X1149648Y673398D01*
X1148523Y674150D01*
X1148550Y674872D01*
X1148734Y675420D01*
X1151390D01*
X1152556Y675904D01*
X1153644Y676991D01*
X1157002D01*
X1157071Y676644D01*
X1157942Y675342D01*
X1159244Y674471D01*
X1160780Y674166D01*
X1162316Y674471D01*
X1163618Y675342D01*
X1164489Y676644D01*
X1164794Y678180D01*
X1164489Y679716D01*
X1163618Y681018D01*
X1162316Y681889D01*
X1160780Y682194D01*
X1160089Y682761D01*
Y684769D01*
X1151311D01*
Y679324D01*
X1150707Y678720D01*
X1149143D01*
X1148923Y679008D01*
X1148580Y679990D01*
X1148809Y680333D01*
X1148956Y681070D01*
X1148809Y681807D01*
X1148508Y682258D01*
X1148392Y682432D01*
Y683708D01*
X1148508Y683882D01*
X1148809Y684333D01*
X1148956Y685070D01*
X1148809Y685807D01*
X1148508Y686258D01*
X1148392Y686432D01*
Y687708D01*
X1148508Y687882D01*
X1148809Y688333D01*
X1148956Y689070D01*
X1148809Y689807D01*
X1148508Y690258D01*
X1148392Y690432D01*
Y691708D01*
X1148508Y691882D01*
X1148809Y692333D01*
X1148956Y693070D01*
X1148809Y693807D01*
X1148392Y694432D01*
X1147767Y694849D01*
X1147030Y694996D01*
D02*
G37*
%LPD*%
D13*
X1079500Y817880D02*
X1082294Y820674D01*
X1074420Y817880D02*
X1079500D01*
X1073404Y816864D02*
X1074420Y817880D01*
X1048614Y816864D02*
X1073404D01*
X1178814Y732536D02*
X1195832D01*
X1176528Y716026D02*
Y730250D01*
X1178814Y732536D01*
X1166682Y719802D02*
X1166970Y720090D01*
X1147478Y719802D02*
X1166682D01*
X1124748Y735802D02*
X1125478D01*
X1116584Y743966D02*
X1124748Y735802D01*
X1101290Y735530D02*
X1118525Y752765D01*
X1090280Y735530D02*
X1101290D01*
X1118525Y752765D02*
X1126082D01*
X1111575Y728900D02*
X1113112Y730437D01*
X1120113D01*
X1125478Y735802D01*
X1106170Y728900D02*
X1111575D01*
X1131843Y742167D02*
X1136650Y746974D01*
X1131843Y741167D02*
Y742167D01*
X1126478Y735802D02*
X1131843Y741167D01*
X1125478Y735802D02*
X1126478D01*
X1136904Y729234D02*
Y740383D01*
X1141650Y745129D01*
Y754380D01*
X1136650Y746974D02*
Y754380D01*
X1098314Y795274D02*
X1101090Y792498D01*
X1097788Y795274D02*
X1098314D01*
X1101090Y786340D02*
Y792498D01*
X1095280Y780530D02*
X1101090Y786340D01*
X1090280Y780530D02*
X1095280D01*
X1105154Y784606D02*
Y808990D01*
X1097673Y777125D02*
X1105154Y784606D01*
Y808990D02*
X1129030Y832866D01*
X1095542Y775530D02*
X1097137Y777125D01*
X1097673D01*
X1090280Y775530D02*
X1095542D01*
X1096376Y804530D02*
X1127252Y835406D01*
X1109975Y821182D02*
X1129025Y840232D01*
X1129030Y832866D02*
X1165606D01*
X1095502Y820928D02*
X1095756Y821182D01*
X1127252Y835406D02*
X1148980D01*
X1071280Y804530D02*
X1096376D01*
X1129025Y840232D02*
X1129792D01*
X1095756Y821182D02*
X1109975D01*
X1160780Y840740D02*
Y853999D01*
X1165098Y858317D01*
Y859790D01*
X1082233Y814125D02*
X1091438Y823330D01*
X1060874Y814125D02*
X1082233D01*
X1091438Y823330D02*
Y861840D01*
X1093198Y863600D01*
X1102868D01*
X1056280Y809530D02*
X1060874Y814125D01*
X1072642Y755650D02*
X1090160D01*
X1090280Y755530D01*
X1035304Y718312D02*
X1072642Y755650D01*
X1034542Y718312D02*
X1035304D01*
X1158494Y865886D02*
X1165098Y872490D01*
X1158494Y844920D02*
Y865886D01*
X1170750Y860590D02*
Y879538D01*
Y860590D02*
X1175512Y855828D01*
X1148980Y835406D02*
X1158494Y844920D01*
X1056280Y804530D02*
Y809530D01*
X1041280D02*
X1048614Y816864D01*
X1041280Y804530D02*
Y809530D01*
X1165098Y885190D02*
X1170750Y879538D01*
X1175512Y842772D02*
Y855828D01*
X1165606Y832866D02*
X1175512Y842772D01*
X1100709Y774948D02*
X1108641Y782880D01*
X1106816Y778002D02*
X1118028D01*
X1102868Y774054D02*
X1106816Y778002D01*
X1100709Y750959D02*
Y774948D01*
X1108641Y782880D02*
X1118150D01*
X1130012Y722342D02*
X1136904Y729234D01*
X1146725Y796785D02*
X1152660Y802720D01*
X1146725Y791455D02*
Y796785D01*
X1146650Y791380D02*
X1146725Y791455D01*
X1152660Y802720D02*
X1153160D01*
X1108710Y773430D02*
X1109025Y773115D01*
X1102868Y748118D02*
Y774054D01*
X1021124Y706374D02*
X1101344D01*
X1104977Y710007D01*
X1011280Y696530D02*
X1021124Y706374D01*
X1011280Y691530D02*
Y696530D01*
X1108456Y758444D02*
X1111131D01*
X1115567Y762880D01*
X1051280Y804530D02*
Y809530D01*
X1062512Y790418D02*
Y794893D01*
X1061280Y796125D02*
X1062512Y794893D01*
X1061280Y796125D02*
Y804530D01*
X1062512Y790418D02*
X1062990Y789940D01*
X1102868Y748118D02*
X1104952D01*
X1107404Y750570D01*
X1108710D01*
X1056460Y769800D02*
Y804350D01*
X1056280Y804530D02*
X1056460Y804350D01*
Y769800D02*
X1056640Y769620D01*
X1051420Y790080D02*
X1051560Y789940D01*
X1051420Y790080D02*
Y804390D01*
X1178226Y774954D02*
X1187658D01*
X1177718Y774446D02*
X1178226Y774954D01*
X1170509Y710007D02*
X1176528Y716026D01*
X1122093Y710007D02*
X1170509D01*
X1031280Y683125D02*
Y691530D01*
Y683125D02*
X1031587Y682818D01*
Y680961D02*
Y682818D01*
X1051280Y804530D02*
X1051420Y804390D01*
X1195832Y719836D02*
X1209040Y706628D01*
Y681736D02*
Y706628D01*
X1179054Y651750D02*
X1209040Y681736D01*
X1125986Y651750D02*
X1179054D01*
X1125986D02*
X1129030Y654794D01*
X1115567Y762880D02*
X1118150D01*
X1112086Y767880D02*
X1118150D01*
X1108710Y765810D02*
X1110016D01*
X1112086Y767880D01*
X1109025Y773115D02*
X1117915D01*
X1118150Y772880D01*
X1021080Y680720D02*
X1050050Y651750D01*
X1125986D01*
X1129030Y654794D02*
Y660461D01*
X1127030Y662461D02*
X1129030Y660461D01*
X1127030Y662461D02*
Y671320D01*
X1125478Y722342D02*
X1130012D01*
X1145748Y669498D02*
X1146810Y670560D01*
X1139367Y669498D02*
X1145748D01*
X1139030Y669835D02*
X1139367Y669498D01*
X1139030Y669835D02*
Y671320D01*
X1131030Y665250D02*
X1135380Y660900D01*
X1131030Y665250D02*
Y671320D01*
X1135380Y660400D02*
Y660900D01*
X1104977Y710007D02*
X1122093D01*
X1127030Y705070D01*
Y702820D02*
Y705070D01*
X1148205Y733265D02*
X1152459D01*
X1142840Y738630D02*
X1148205Y733265D01*
X1021080Y680720D02*
Y691330D01*
X1021280Y691530D01*
X1144780Y677070D02*
X1151390D01*
X1155200Y680880D01*
X1123030Y663870D02*
Y671320D01*
X1120060Y660900D02*
X1123030Y663870D01*
X1120060Y660400D02*
Y660900D01*
X1155200Y680880D02*
X1155700D01*
X1124401Y721265D02*
X1125478Y722342D01*
X1106170Y718900D02*
X1108535Y721265D01*
X1124401D01*
X1095280Y740530D02*
X1102868Y748118D01*
X1095280Y745530D02*
X1100709Y750959D01*
X1118028Y778002D02*
X1118150Y777880D01*
X1090280Y740530D02*
X1095280D01*
X1090280Y745530D02*
X1095280D01*
X1126650Y753333D02*
Y754380D01*
X1126082Y752765D02*
X1126650Y753333D01*
X1147478Y738342D02*
X1158218D01*
X1166470Y730090D01*
X1166970D01*
X1146650Y739170D02*
Y754380D01*
Y739170D02*
X1147478Y738342D01*
X1164986Y756364D02*
X1166970Y754380D01*
X1163916Y756364D02*
X1164986D01*
X1157400Y762880D02*
X1163916Y756364D01*
X1155150Y762880D02*
X1157400D01*
X1131410Y796290D02*
X1131560Y796140D01*
Y791469D02*
Y796140D01*
Y791469D02*
X1131650Y791380D01*
X1131410Y796290D02*
Y798330D01*
X1127600Y802140D02*
X1131410Y798330D01*
X1127600Y802140D02*
Y802640D01*
X1041280Y691530D02*
X1041340Y691590D01*
D15*
X1179830Y741252D02*
D03*
Y751252D02*
D03*
X957834Y744808D02*
D03*
Y754808D02*
D03*
X1166970Y796210D02*
D03*
Y786210D02*
D03*
X1152660Y812720D02*
D03*
Y802720D02*
D03*
X1140460Y817292D02*
D03*
Y807292D02*
D03*
X1155700Y690880D02*
D03*
Y680880D02*
D03*
X1166970Y744380D02*
D03*
Y754380D02*
D03*
X1106170Y718900D02*
D03*
Y728900D02*
D03*
X1166970Y730090D02*
D03*
Y720090D02*
D03*
X1071626Y828374D02*
D03*
Y838374D02*
D03*
D16*
X1030190Y828446D02*
D03*
Y837946D02*
D03*
Y847446D02*
D03*
X1057690D02*
D03*
Y837946D02*
D03*
Y828446D02*
D03*
D17*
X1118150Y782880D02*
D03*
Y777880D02*
D03*
Y772880D02*
D03*
Y767880D02*
D03*
Y762880D02*
D03*
X1155150D02*
D03*
Y767880D02*
D03*
Y772880D02*
D03*
Y777880D02*
D03*
Y782880D02*
D03*
D18*
X1126650Y754380D02*
D03*
X1131650D02*
D03*
X1136650D02*
D03*
X1141650D02*
D03*
X1146650D02*
D03*
Y791380D02*
D03*
X1141650D02*
D03*
X1136650D02*
D03*
X1131650D02*
D03*
X1126650D02*
D03*
D19*
X1136650Y772880D02*
D03*
D20*
X1110060Y660400D02*
D03*
X1120060D02*
D03*
X1005920Y838454D02*
D03*
X1015920D02*
D03*
X1117600Y802640D02*
D03*
X1127600D02*
D03*
X1135380Y660400D02*
D03*
X1145380D02*
D03*
X1016174Y826008D02*
D03*
X1006174D02*
D03*
D21*
X996280Y804530D02*
D03*
X1001280D02*
D03*
X1006280D02*
D03*
X1011280D02*
D03*
X1016280D02*
D03*
X1021280D02*
D03*
X1026280D02*
D03*
X1031280D02*
D03*
X1036280D02*
D03*
X1041280D02*
D03*
X1046280D02*
D03*
X1051280D02*
D03*
X1056280D02*
D03*
X1061280D02*
D03*
X1066280D02*
D03*
X1071280D02*
D03*
Y691530D02*
D03*
X1066280D02*
D03*
X1061280D02*
D03*
X1056280D02*
D03*
X1051280D02*
D03*
X1046280D02*
D03*
X1041280D02*
D03*
X1036280D02*
D03*
X1031280D02*
D03*
X1026280D02*
D03*
X1021280D02*
D03*
X1016280D02*
D03*
X1011280D02*
D03*
X1006280D02*
D03*
X1001280D02*
D03*
X996280D02*
D03*
D22*
X1090280Y785530D02*
D03*
Y780530D02*
D03*
Y775530D02*
D03*
Y770530D02*
D03*
Y765530D02*
D03*
Y760530D02*
D03*
Y755530D02*
D03*
Y750530D02*
D03*
Y745530D02*
D03*
Y740530D02*
D03*
Y735530D02*
D03*
Y730530D02*
D03*
Y725530D02*
D03*
Y720530D02*
D03*
Y715530D02*
D03*
Y710530D02*
D03*
X977280D02*
D03*
Y715530D02*
D03*
Y720530D02*
D03*
Y725530D02*
D03*
Y730530D02*
D03*
Y735530D02*
D03*
Y740530D02*
D03*
Y745530D02*
D03*
Y750530D02*
D03*
Y755530D02*
D03*
Y760530D02*
D03*
Y765530D02*
D03*
Y770530D02*
D03*
Y775530D02*
D03*
Y780530D02*
D03*
Y785530D02*
D03*
D23*
X1052674Y872922D02*
D03*
X1046174D02*
D03*
X1039674D02*
D03*
X1033174D02*
D03*
X1026674D02*
D03*
D24*
X1049674Y899922D02*
D03*
X1029674D02*
D03*
D25*
X1147478Y735802D02*
D03*
Y719802D02*
D03*
X1125478Y735802D02*
D03*
Y719802D02*
D03*
D26*
X1177718Y774446D02*
D03*
X1172718D02*
D03*
X1167718D02*
D03*
Y765946D02*
D03*
X1172718D02*
D03*
X1177718D02*
D03*
D27*
X1129030Y687070D02*
D03*
D28*
X1119030Y702820D02*
D03*
X1123030D02*
D03*
X1127030D02*
D03*
X1131030D02*
D03*
X1135030D02*
D03*
X1139030D02*
D03*
Y671320D02*
D03*
X1135030D02*
D03*
X1131030D02*
D03*
X1127030D02*
D03*
X1123030D02*
D03*
X1119030D02*
D03*
D29*
X1144780Y697070D02*
D03*
Y693070D02*
D03*
Y689070D02*
D03*
Y685070D02*
D03*
Y681070D02*
D03*
Y677070D02*
D03*
X1113280D02*
D03*
Y681070D02*
D03*
Y685070D02*
D03*
Y689070D02*
D03*
Y693070D02*
D03*
Y697070D02*
D03*
D30*
X1187658Y774954D02*
D03*
D31*
X1200658Y760204D02*
D03*
Y789704D02*
D03*
D32*
X1068674Y899922D02*
D03*
D33*
X1010674Y899922D02*
D03*
D34*
X1165098Y859790D02*
D03*
X1152398D02*
D03*
X1165098Y872490D02*
D03*
X1152398D02*
D03*
X1165098Y885190D02*
D03*
X1152398D02*
D03*
D35*
X971804Y890016D02*
D03*
D36*
X984504D02*
D03*
X979932Y839724D02*
D03*
Y852424D02*
D03*
X1102868Y850900D02*
D03*
Y863600D02*
D03*
Y876300D02*
D03*
X1195832Y694436D02*
D03*
Y707136D02*
D03*
Y719836D02*
D03*
D37*
X979932Y865124D02*
D03*
X1102868Y838200D02*
D03*
X1195832Y732536D02*
D03*
D38*
X1014674Y872922D02*
D03*
X1064674D02*
D03*
D39*
X1004674Y899922D02*
D03*
X1074674D02*
D03*
D40*
X1013968Y667766D02*
D03*
D41*
X988568D02*
D03*
D42*
X1131150Y778380D02*
D03*
X1142150D02*
D03*
X1131150Y767380D02*
D03*
X1142150D02*
D03*
D43*
X1184860Y741172D02*
X1192226Y748538D01*
X1179910Y741172D02*
X1184860D01*
X1179830Y741252D02*
X1179910Y741172D01*
X994027Y834010D02*
Y836115D01*
Y834010D02*
X994156Y833882D01*
X994027Y836115D02*
X1003554Y845641D01*
X1009979D01*
X1010412Y846074D01*
X1001268Y816102D02*
X1006768D01*
X996368Y811202D02*
X1001268Y816102D01*
X996368Y804618D02*
Y811202D01*
X996280Y804530D02*
X996368Y804618D01*
X1140960Y807292D02*
X1143336Y804916D01*
X1140460Y807292D02*
X1140960D01*
X1139960D02*
X1140460D01*
X1136650Y803982D02*
X1139960Y807292D01*
X1136650Y791380D02*
Y803982D01*
X1016174Y825508D02*
Y825858D01*
X987552Y788162D02*
X990520Y791130D01*
X977280Y785530D02*
X977368Y785618D01*
X986064D01*
X987552Y787106D01*
Y788162D01*
X1006768Y816102D02*
X1016174Y825508D01*
D44*
X1166970Y754380D02*
X1168534Y752816D01*
X1178266D01*
X1179830Y751252D01*
X1126744Y746760D02*
Y747097D01*
X1131650Y752003D01*
Y754380D01*
X1164999Y892048D02*
X1169162D01*
X1163983Y891032D02*
X1164999Y892048D01*
X1158240Y891032D02*
X1163983D01*
X1152398Y885190D02*
X1158240Y891032D01*
X1169162Y892048D02*
X1177100Y884110D01*
X1197673D01*
X1203706Y878078D01*
X957834Y807861D02*
X1005078Y855105D01*
X957834Y754808D02*
Y807861D01*
X1005078Y855105D02*
Y855726D01*
X960628Y845820D02*
X979932Y865124D01*
X960628Y824230D02*
Y845820D01*
X989500Y747776D02*
X990600D01*
X987254Y745530D02*
X989500Y747776D01*
X977280Y745530D02*
X987254D01*
X966978Y750062D02*
X967261Y750345D01*
X977095D01*
X977280Y750530D01*
X957834Y754808D02*
X958371Y755345D01*
X977095D01*
X977280Y755530D01*
X1028192Y723646D02*
X1028446D01*
X1065330Y760530D01*
X1090280D01*
X1093009Y883205D02*
X1141683D01*
X1092859Y883055D02*
X1093009Y883205D01*
X1141683D02*
X1152398Y872490D01*
X1162558Y782320D02*
X1162580D01*
X1166470Y786210D01*
X1166970D01*
X1162087Y782791D02*
X1162558Y782320D01*
X1155239Y782791D02*
X1162087D01*
X1155150Y782880D02*
X1155239Y782791D01*
X1166970Y754380D02*
X1167470D01*
X1172718Y759628D01*
Y765946D01*
X1167718Y773204D02*
Y774446D01*
X1167484Y772970D02*
X1167718Y773204D01*
X1155239Y772970D02*
X1167484D01*
X1155150Y772880D02*
X1155239Y772970D01*
X1167718Y765946D02*
Y767446D01*
X1167284Y767880D02*
X1167718Y767446D01*
X1155150Y767880D02*
X1167284D01*
D45*
X1131150Y778380D02*
X1136650Y772880D01*
X1122101Y787429D02*
X1131150Y778380D01*
X1121664Y793750D02*
X1122101Y793313D01*
Y787429D02*
Y793313D01*
X1016254Y838788D02*
Y848494D01*
X1015920Y838454D02*
X1016254Y838788D01*
X999998Y861568D02*
X1024382D01*
X1025398Y860552D01*
X983742Y877824D02*
X999998Y861568D01*
X1055470Y849666D02*
X1056565Y848571D01*
X1057690Y847446D01*
X1054345Y850791D02*
X1055470Y849666D01*
X1017504Y849490D02*
X1019225Y847769D01*
X1015920Y848828D02*
Y851074D01*
Y848828D02*
X1016254Y848494D01*
X983742Y889254D02*
X984504Y890016D01*
X983742Y877824D02*
Y889254D01*
X1052579Y863603D02*
X1053084Y864108D01*
X1049528Y860552D02*
X1052579Y863603D01*
X1053084Y852052D02*
Y864108D01*
Y852052D02*
X1054345Y850791D01*
Y848541D02*
Y850791D01*
Y848541D02*
X1055440Y847446D01*
X1057690D01*
X1019225Y847769D02*
X1029867D01*
X1030190Y847446D01*
X1052579Y863603D02*
Y872827D01*
X1052674Y872922D01*
X1025398Y860552D02*
X1049528D01*
X1015920Y851074D02*
X1025398Y860552D01*
X1029936Y838200D02*
X1030190Y837946D01*
X1016174Y838200D02*
X1029936D01*
X1015920Y838454D02*
X1016174Y838200D01*
D46*
X1082527Y832612D02*
X1082802D01*
X1078749Y828834D02*
X1082527Y832612D01*
X1072086Y828834D02*
X1078749D01*
X1071626Y828374D02*
X1072086Y828834D01*
X1071590Y828410D02*
X1071626Y828374D01*
X1057726Y828410D02*
X1071590D01*
X1057690Y828446D02*
X1057726Y828410D01*
X1022040Y826968D02*
X1023058Y827986D01*
X1016634Y826968D02*
X1022040D01*
X1016174Y826508D02*
X1016634Y826968D01*
X1016174Y826008D02*
Y826508D01*
X1023058Y827986D02*
X1029730D01*
X1030190Y828446D01*
D47*
X1019154Y725530D02*
X1033526Y739902D01*
X977280Y725530D02*
X1019154D01*
X1006280Y712402D02*
X1020774Y726896D01*
X1006280Y691530D02*
Y712402D01*
X1033526Y739902D02*
X1035050D01*
X1080654Y785506D01*
X1090256D01*
X1090280Y785530D01*
X996256Y804506D02*
X996280Y804530D01*
X996256Y796866D02*
Y804506D01*
X990520Y791130D02*
X996256Y796866D01*
D48*
X1030409Y700659D02*
X1077636D01*
X1022822Y703072D02*
X1078636D01*
X1016280Y696530D02*
X1022822Y703072D01*
X1026280Y696530D02*
X1030409Y700659D01*
X1077636D02*
X1084400Y693895D01*
X1078636Y703072D02*
X1080414Y701294D01*
X1026280Y691530D02*
Y696530D01*
X1084400Y693895D02*
X1100328D01*
Y694563D02*
X1101217D01*
X1100328Y693895D02*
X1102614Y691609D01*
Y690372D02*
Y691609D01*
X1091438Y701294D02*
X1101344D01*
X1107771Y707721D01*
X1080414Y701294D02*
X1091438D01*
X1109474Y702820D02*
X1119030D01*
X1101217Y694563D02*
X1109474Y702820D01*
X1016280Y691530D02*
Y696530D01*
X1107771Y707721D02*
X1120379D01*
X1123030Y705070D01*
Y702820D02*
Y705070D01*
D49*
X1022628Y819404D02*
X1024890D01*
X1016174Y825858D02*
X1022628Y819404D01*
X1016174Y825858D02*
Y826008D01*
D50*
X1082294Y820674D02*
D03*
X1124204Y849630D02*
D03*
X1192226Y748538D02*
D03*
X1174750Y668528D02*
D03*
X1206500Y889000D02*
D03*
Y736600D02*
D03*
X1181100Y838200D02*
D03*
X1168400Y812800D02*
D03*
X1181100Y787400D02*
D03*
X1104900Y889000D02*
D03*
X1092200Y660400D02*
D03*
X1079500Y889000D02*
D03*
X1066800Y863600D02*
D03*
X1079500Y736600D02*
D03*
X1066800Y660400D02*
D03*
X1041400Y762000D02*
D03*
Y711200D02*
D03*
X1016000D02*
D03*
X990600Y812800D02*
D03*
X1003300Y787400D02*
D03*
Y736600D02*
D03*
X990600Y711200D02*
D03*
X965200Y863600D02*
D03*
Y762000D02*
D03*
Y711200D02*
D03*
X977900Y685800D02*
D03*
X965200Y660400D02*
D03*
X1116584Y743966D02*
D03*
X1126744Y746760D02*
D03*
X1097788Y795274D02*
D03*
X1121664Y793750D02*
D03*
X1203706Y878078D02*
D03*
X1129792Y840232D02*
D03*
X994156Y833882D02*
D03*
X1010412Y846074D02*
D03*
X1005078Y855726D02*
D03*
X1095502Y820928D02*
D03*
X1082802Y832612D02*
D03*
X960628Y824230D02*
D03*
X990600Y747776D02*
D03*
X966978Y750062D02*
D03*
X1034542Y718312D02*
D03*
X1028192Y723646D02*
D03*
X1033526Y739902D02*
D03*
X1092859Y883055D02*
D03*
X1160780Y840740D02*
D03*
X1162558Y782320D02*
D03*
X1144016Y802894D02*
D03*
X1108710Y773430D02*
D03*
X1024890Y819404D02*
D03*
X1108456Y758444D02*
D03*
X1062990Y789940D02*
D03*
X1108710Y750570D02*
D03*
X1051560Y789940D02*
D03*
X1102614Y690372D02*
D03*
X1091438Y701548D02*
D03*
X1075690Y695960D02*
D03*
X1031587Y680961D02*
D03*
X1056640Y769620D02*
D03*
X1108710Y765810D02*
D03*
X1123950Y656590D02*
D03*
X1160780Y678180D02*
D03*
X1146810Y670560D02*
D03*
M02*
