G04*
G04 #@! TF.GenerationSoftware,Altium Limited,Altium Designer,19.1.7 (138)*
G04*
G04 Layer_Physical_Order=2*
G04 Layer_Color=16711680*
%FSLAX44Y44*%
%MOMM*%
G71*
G01*
G75*
%ADD13C,0.1270*%
%ADD35R,1.0000X1.0000*%
%ADD36C,1.0000*%
%ADD37R,1.0000X1.0000*%
%ADD38O,1.2500X0.9500*%
%ADD39O,0.9000X1.5500*%
%ADD40C,1.5000*%
%ADD41R,1.5000X1.5000*%
%ADD42C,0.5000*%
%ADD43C,0.2540*%
%ADD44C,0.2032*%
%ADD46C,0.5080*%
%ADD48C,0.1524*%
%ADD50C,0.6096*%
%ADD51C,1.1430*%
%ADD52C,1.2700*%
G36*
X988882Y867994D02*
Y850278D01*
X989148Y848941D01*
X989906Y847806D01*
X1012271Y825441D01*
X1012271Y825441D01*
X1013406Y824683D01*
X1014743Y824417D01*
X1014743Y824417D01*
X1014933D01*
X1017901Y821448D01*
X1017837Y821294D01*
X1017589Y819404D01*
Y748284D01*
X1017837Y746394D01*
X1018567Y744633D01*
X1019727Y743121D01*
X1046667Y716181D01*
X1047505Y715090D01*
X1061637Y700957D01*
X1063149Y699797D01*
X1064095Y699405D01*
X1087490Y676010D01*
X1087490Y676010D01*
X1088869Y674951D01*
X1090476Y674286D01*
X1092200Y674059D01*
X1092200Y674059D01*
X1142072D01*
X1142786Y672789D01*
X1142434Y672210D01*
X1042671D01*
X1035322Y679558D01*
X1035601Y680961D01*
X1035295Y682497D01*
X1034425Y683799D01*
X1033123Y684669D01*
X1031587Y684975D01*
X1030051Y684669D01*
X1028748Y683799D01*
X1027878Y682497D01*
X1027572Y680961D01*
X1027878Y679425D01*
X1028748Y678122D01*
X1030051Y677252D01*
X1031587Y676947D01*
X1032989Y677226D01*
X1040821Y669394D01*
X1041988Y668910D01*
X1143177D01*
X1143972Y667722D01*
X1145274Y666851D01*
X1146810Y666546D01*
X1148346Y666851D01*
X1149648Y667722D01*
X1150519Y669024D01*
X1150824Y670560D01*
X1150519Y672096D01*
X1150056Y672789D01*
X1150734Y674059D01*
X1154119D01*
Y666045D01*
X1151325Y663251D01*
X1123950D01*
X1122226Y663024D01*
X1120620Y662359D01*
X1119240Y661300D01*
X1118181Y659921D01*
X1117516Y658314D01*
X1117289Y656590D01*
X1117516Y654866D01*
X1118181Y653260D01*
X1119240Y651880D01*
X1120162Y651173D01*
X1119731Y649903D01*
X975613D01*
X975526Y649885D01*
X971132Y650318D01*
X966823Y651625D01*
X962852Y653748D01*
X959371Y656604D01*
X956514Y660085D01*
X954392Y664056D01*
X953085Y668365D01*
X952765Y671615D01*
X952669Y672846D01*
X952502Y673688D01*
X952417Y673816D01*
Y760080D01*
X953687Y760607D01*
X963174Y751119D01*
X962964Y750062D01*
X963269Y748526D01*
X964140Y747224D01*
X965442Y746353D01*
X966978Y746048D01*
X968514Y746353D01*
X969816Y747224D01*
X970687Y748526D01*
X970992Y750062D01*
X970687Y751598D01*
X969816Y752900D01*
X968514Y753771D01*
X966978Y754076D01*
X965921Y753866D01*
X956220Y763567D01*
Y821454D01*
X957490Y821840D01*
X957790Y821392D01*
X959092Y820521D01*
X960628Y820216D01*
X961685Y820426D01*
X988658Y793454D01*
Y751213D01*
X987762Y750614D01*
X986891Y749312D01*
X986586Y747776D01*
X986891Y746240D01*
X987762Y744938D01*
X989064Y744067D01*
X990600Y743762D01*
X992136Y744067D01*
X993438Y744938D01*
X994309Y746240D01*
X994614Y747776D01*
X994309Y749312D01*
X993438Y750614D01*
X992542Y751213D01*
Y794258D01*
X992394Y795001D01*
X991973Y795631D01*
X964432Y823173D01*
X964642Y824230D01*
X964337Y825766D01*
X963466Y827068D01*
X962164Y827939D01*
X960628Y828244D01*
X960212Y828161D01*
X959587Y829332D01*
X974027Y843772D01*
X975013Y842962D01*
X974385Y842022D01*
X973928Y839724D01*
X974385Y837426D01*
X975686Y835478D01*
X977634Y834177D01*
X979932Y833720D01*
X982230Y834177D01*
X983522Y835040D01*
X985741Y832820D01*
X986456Y832343D01*
X987298Y832175D01*
X990561D01*
X991318Y831044D01*
X992620Y830173D01*
X994156Y829868D01*
X995692Y830173D01*
X996994Y831044D01*
X997865Y832346D01*
X998170Y833882D01*
X997865Y835418D01*
X996994Y836720D01*
X995692Y837591D01*
X994156Y837896D01*
X992620Y837591D01*
X991318Y836720D01*
X991222Y836578D01*
X988210D01*
X985792Y838996D01*
X985936Y839724D01*
X985479Y842022D01*
X984178Y843970D01*
X982230Y845271D01*
X981449Y845427D01*
Y846721D01*
X982230Y846877D01*
X984178Y848178D01*
X985479Y850126D01*
X985936Y852424D01*
X985479Y854722D01*
X984178Y856670D01*
X982230Y857971D01*
X982386Y859235D01*
X985821D01*
Y869259D01*
X987091Y869785D01*
X988882Y867994D01*
D02*
G37*
G36*
X975361Y911943D02*
X1132579D01*
X1132663Y910673D01*
X1130016Y910325D01*
X1126911Y909039D01*
X1124245Y906993D01*
X1122199Y904327D01*
X1120913Y901222D01*
X1120474Y897890D01*
X1120913Y894558D01*
X1122199Y891453D01*
X1124245Y888787D01*
X1126911Y886741D01*
X1130016Y885455D01*
X1133348Y885016D01*
X1136680Y885455D01*
X1139785Y886741D01*
X1142451Y888787D01*
X1144497Y891453D01*
X1145783Y894558D01*
X1146222Y897890D01*
X1145783Y901222D01*
X1144497Y904327D01*
X1142451Y906993D01*
X1139785Y909039D01*
X1136680Y910325D01*
X1134033Y910673D01*
X1134117Y911943D01*
X1183379D01*
X1183463Y910673D01*
X1180816Y910325D01*
X1177711Y909039D01*
X1175045Y906993D01*
X1172999Y904327D01*
X1171713Y901222D01*
X1171274Y897890D01*
X1171713Y894558D01*
X1172999Y891453D01*
X1175045Y888787D01*
X1177711Y886741D01*
X1180816Y885455D01*
X1184148Y885016D01*
X1187480Y885455D01*
X1190585Y886741D01*
X1193251Y888787D01*
X1195297Y891453D01*
X1196583Y894558D01*
X1197022Y897890D01*
X1196583Y901222D01*
X1195297Y904327D01*
X1193251Y906993D01*
X1190585Y909039D01*
X1187480Y910325D01*
X1184833Y910673D01*
X1184917Y911943D01*
X1194055D01*
X1194142Y911961D01*
X1198536Y911528D01*
X1202845Y910221D01*
X1206816Y908098D01*
X1210297Y905242D01*
X1213154Y901761D01*
X1215276Y897790D01*
X1216583Y893481D01*
X1217016Y889090D01*
X1216997Y888999D01*
Y672845D01*
X1217015Y672758D01*
X1216582Y668364D01*
X1215275Y664055D01*
X1213152Y660084D01*
X1210296Y656603D01*
X1206815Y653746D01*
X1202844Y651624D01*
X1198535Y650317D01*
X1194145Y649884D01*
X1194053Y649903D01*
X1158304D01*
X1157873Y651173D01*
X1158794Y651880D01*
X1165490Y658575D01*
X1165490Y658576D01*
X1166549Y659955D01*
X1167214Y661562D01*
X1167441Y663286D01*
Y678180D01*
X1167214Y679904D01*
X1166549Y681510D01*
X1165490Y682890D01*
X1165490Y682890D01*
X1162950Y685430D01*
X1161571Y686489D01*
X1159964Y687154D01*
X1158240Y687381D01*
X1158240Y687381D01*
X1108316D01*
X1107596Y688651D01*
X1107619Y688689D01*
X1163131D01*
X1166448Y685372D01*
X1166994Y685007D01*
X1167638Y684879D01*
X1200658D01*
X1201302Y685007D01*
X1201848Y685372D01*
X1206928Y690452D01*
X1207293Y690998D01*
X1207421Y691642D01*
Y701802D01*
X1207293Y702446D01*
X1206928Y702992D01*
X1201601Y708320D01*
X1201379Y709434D01*
X1200078Y711382D01*
X1198130Y712683D01*
X1197349Y712839D01*
Y714133D01*
X1198130Y714289D01*
X1200078Y715590D01*
X1201379Y717538D01*
X1201836Y719836D01*
X1201379Y722134D01*
X1200078Y724082D01*
X1198130Y725383D01*
X1198287Y726647D01*
X1201721D01*
Y738425D01*
X1189943D01*
Y726647D01*
X1193378D01*
X1193534Y725383D01*
X1191586Y724082D01*
X1190285Y722134D01*
X1189828Y719836D01*
X1190285Y717538D01*
X1191586Y715590D01*
X1193534Y714289D01*
X1194315Y714133D01*
Y712839D01*
X1193534Y712683D01*
X1191586Y711382D01*
X1190285Y709434D01*
X1189828Y707136D01*
X1190285Y704838D01*
X1191586Y702890D01*
X1193534Y701589D01*
X1194315Y701433D01*
Y700139D01*
X1193534Y699983D01*
X1191586Y698682D01*
X1190298Y696754D01*
X1098612D01*
X1095181Y700185D01*
X1095452Y701548D01*
X1095147Y703084D01*
X1094276Y704386D01*
X1092974Y705257D01*
X1092756Y705300D01*
X1092338Y706678D01*
X1111535Y725875D01*
X1120181D01*
X1120181Y725875D01*
X1121905Y726102D01*
X1123512Y726767D01*
X1124891Y727826D01*
X1139810Y742746D01*
X1188953D01*
X1190502Y742104D01*
X1192226Y741877D01*
X1193950Y742104D01*
X1195557Y742769D01*
X1196936Y743828D01*
X1197995Y745208D01*
X1198660Y746814D01*
X1198887Y748538D01*
X1198660Y750262D01*
X1197995Y751869D01*
X1196936Y753248D01*
X1196068Y754117D01*
X1194688Y755175D01*
X1193082Y755841D01*
X1191358Y756068D01*
X1191357Y756068D01*
X1154792D01*
X1154306Y757241D01*
X1165490Y768425D01*
X1165490Y768425D01*
X1166549Y769805D01*
X1167214Y771411D01*
X1167441Y773135D01*
X1167441Y773135D01*
Y778799D01*
X1208670Y820028D01*
X1208670Y820028D01*
X1209729Y821407D01*
X1210394Y823014D01*
X1210621Y824738D01*
X1210621Y824738D01*
Y877824D01*
X1210621Y877824D01*
X1210394Y879548D01*
X1209729Y881154D01*
X1208670Y882534D01*
X1208670Y882534D01*
X1208416Y882788D01*
X1207037Y883847D01*
X1205430Y884512D01*
X1203706Y884739D01*
X1201982Y884512D01*
X1200376Y883847D01*
X1198996Y882788D01*
X1197937Y881408D01*
X1197272Y879802D01*
X1197045Y878078D01*
X1197272Y876354D01*
X1197299Y876289D01*
Y871062D01*
X1196029Y870809D01*
X1195297Y872577D01*
X1193251Y875243D01*
X1190585Y877289D01*
X1187480Y878575D01*
X1184148Y879014D01*
X1180816Y878575D01*
X1177711Y877289D01*
X1175045Y875243D01*
X1172999Y872577D01*
X1171713Y869472D01*
X1171274Y866140D01*
X1171713Y862808D01*
X1172999Y859703D01*
X1175045Y857037D01*
X1177711Y854991D01*
X1180816Y853705D01*
X1184148Y853266D01*
X1187480Y853705D01*
X1190585Y854991D01*
X1193251Y857037D01*
X1195297Y859703D01*
X1196029Y861471D01*
X1197299Y861218D01*
Y827497D01*
X1162304Y792502D01*
X1150490Y804316D01*
X1150450Y804618D01*
X1149785Y806225D01*
X1148726Y807604D01*
X1147346Y808663D01*
X1145740Y809328D01*
X1144016Y809555D01*
X1142292Y809328D01*
X1140686Y808663D01*
X1139306Y807604D01*
X1138247Y806225D01*
X1137582Y804618D01*
X1137355Y802894D01*
Y801370D01*
X1137355Y801370D01*
X1137582Y799646D01*
X1138247Y798039D01*
X1139306Y796660D01*
X1154153Y781813D01*
X1154119Y781558D01*
X1154119Y781558D01*
Y775894D01*
X1132341Y754117D01*
X1132341Y754116D01*
X1128528Y750303D01*
X1128280Y750469D01*
X1126744Y750774D01*
X1125208Y750469D01*
X1123906Y749598D01*
X1123035Y748296D01*
X1122730Y746760D01*
X1123035Y745224D01*
X1123201Y744976D01*
X1117422Y739197D01*
X1108776D01*
X1108776Y739197D01*
X1107052Y738970D01*
X1105445Y738305D01*
X1104066Y737246D01*
X1104066Y737246D01*
X1079601Y712781D01*
X1070465D01*
X1058668Y724578D01*
X1057830Y725669D01*
X1032191Y751308D01*
Y819404D01*
X1031943Y821294D01*
X1031213Y823055D01*
X1030053Y824567D01*
X1028541Y825727D01*
X1026780Y826457D01*
X1024890Y826705D01*
X1023000Y826457D01*
X1022846Y826393D01*
X1020118Y829120D01*
X1020644Y830390D01*
X1074698D01*
X1077639Y827449D01*
X1079151Y826289D01*
X1080669Y825660D01*
X1080751Y824682D01*
X1080686Y824335D01*
X1079456Y823512D01*
X1078585Y822210D01*
X1078280Y820674D01*
X1078585Y819138D01*
X1079456Y817836D01*
X1080758Y816965D01*
X1082294Y816660D01*
X1083830Y816965D01*
X1085132Y817836D01*
X1086003Y819138D01*
X1086031Y819278D01*
X1091869D01*
X1092664Y818090D01*
X1093966Y817219D01*
X1095502Y816914D01*
X1097038Y817219D01*
X1098340Y818090D01*
X1099211Y819392D01*
X1099516Y820928D01*
X1099211Y822464D01*
X1098340Y823766D01*
X1097038Y824637D01*
X1095502Y824942D01*
X1093966Y824637D01*
X1092664Y823766D01*
X1091869Y822578D01*
X1085757D01*
X1085132Y823512D01*
X1084102Y824201D01*
X1084222Y825392D01*
X1084265Y825503D01*
X1084692Y825559D01*
X1086453Y826289D01*
X1087965Y827449D01*
X1089125Y828961D01*
X1089855Y830722D01*
X1090104Y832612D01*
X1089855Y834502D01*
X1089125Y836263D01*
X1087965Y837775D01*
X1082885Y842855D01*
X1081373Y844015D01*
X1079612Y844745D01*
X1077722Y844994D01*
X1021818D01*
X1015575Y851237D01*
X1014063Y852397D01*
X1012302Y853127D01*
X1010412Y853375D01*
X1009708Y853283D01*
X1009347Y853638D01*
X1008838Y854449D01*
X1009092Y855726D01*
X1009166Y855816D01*
X1078230D01*
X1078973Y855964D01*
X1079603Y856385D01*
X1089763Y866544D01*
X1089763Y866545D01*
X1090184Y867175D01*
X1090332Y867918D01*
Y877782D01*
X1091802Y879251D01*
X1092859Y879040D01*
X1094395Y879346D01*
X1095697Y880216D01*
X1096567Y881518D01*
X1096873Y883055D01*
X1096567Y884591D01*
X1095697Y885893D01*
X1094395Y886763D01*
X1092859Y887069D01*
X1091322Y886763D01*
X1090020Y885893D01*
X1089150Y884591D01*
X1088844Y883055D01*
X1089055Y881998D01*
X1087017Y879959D01*
X1086596Y879329D01*
X1086448Y878586D01*
Y868723D01*
X1077426Y859700D01*
X1008210D01*
X1007466Y859553D01*
X1006952Y859209D01*
X1006614Y859435D01*
X1005078Y859740D01*
X1003542Y859435D01*
X1002240Y858564D01*
X1001369Y857262D01*
X1001064Y855726D01*
X1001369Y854190D01*
X1002240Y852888D01*
X1003542Y852017D01*
X1004154Y851896D01*
X1004681Y850496D01*
X1004089Y849725D01*
X1003359Y847964D01*
X1003135Y846262D01*
X1002031Y845570D01*
X995874Y851727D01*
Y869442D01*
X995608Y870780D01*
X994850Y871914D01*
X983865Y882900D01*
X984185Y883498D01*
X984541Y884019D01*
X986802Y884469D01*
X988750Y885770D01*
X990051Y887718D01*
X990508Y890016D01*
X990051Y892314D01*
X988750Y894262D01*
X986802Y895563D01*
X984504Y896020D01*
X982206Y895563D01*
X980258Y894262D01*
X978957Y892314D01*
X977693Y892470D01*
Y895905D01*
X965915D01*
Y884127D01*
X972749D01*
X984593Y872283D01*
X984067Y871013D01*
X974043D01*
Y859235D01*
X977477D01*
X977634Y857971D01*
X975686Y856670D01*
X974385Y854722D01*
X973928Y852424D01*
X974385Y850126D01*
X974586Y849825D01*
X953687Y828925D01*
X952417Y829452D01*
Y889001D01*
X952399Y889088D01*
X952832Y893482D01*
X954139Y897791D01*
X956262Y901762D01*
X959118Y905243D01*
X962599Y908100D01*
X966570Y910222D01*
X970879Y911529D01*
X975269Y911962D01*
X975361Y911943D01*
D02*
G37*
G36*
X1190285Y692138D02*
X1191586Y690190D01*
X1192596Y689515D01*
X1192211Y688245D01*
X1168335D01*
X1165018Y691562D01*
X1164472Y691927D01*
X1163828Y692055D01*
X1107589D01*
X1107552Y692118D01*
X1108271Y693388D01*
X1190036D01*
X1190285Y692138D01*
D02*
G37*
%LPC*%
G36*
X1028192Y727660D02*
X1026656Y727355D01*
X1025354Y726484D01*
X1024559Y725296D01*
X1017524D01*
X1016358Y724812D01*
X987402Y695856D01*
X986918Y694690D01*
Y676155D01*
X980179D01*
Y659377D01*
X996957D01*
Y676155D01*
X990218D01*
Y694007D01*
X1018207Y721996D01*
X1024559D01*
X1025354Y720808D01*
X1026656Y719937D01*
X1028192Y719632D01*
X1029549Y719902D01*
X1030197Y719493D01*
X1030673Y719041D01*
X1030528Y718312D01*
X1030807Y716910D01*
X1012802Y698904D01*
X1012318Y697738D01*
Y676010D01*
X1011778Y675939D01*
X1009737Y675094D01*
X1007985Y673749D01*
X1006640Y671997D01*
X1005795Y669956D01*
X1005507Y667766D01*
X1005795Y665576D01*
X1006640Y663535D01*
X1007985Y661783D01*
X1009737Y660438D01*
X1011778Y659593D01*
X1013968Y659305D01*
X1016158Y659593D01*
X1018199Y660438D01*
X1019951Y661783D01*
X1021296Y663535D01*
X1022141Y665576D01*
X1022429Y667766D01*
X1022141Y669956D01*
X1021296Y671997D01*
X1019951Y673749D01*
X1018199Y675094D01*
X1016158Y675939D01*
X1015618Y676010D01*
Y697055D01*
X1033140Y714577D01*
X1034542Y714298D01*
X1036078Y714603D01*
X1037380Y715474D01*
X1038251Y716776D01*
X1038556Y718312D01*
X1038251Y719848D01*
X1037380Y721150D01*
X1036078Y722021D01*
X1034542Y722326D01*
X1033185Y722056D01*
X1032537Y722465D01*
X1032061Y722917D01*
X1032206Y723646D01*
X1031901Y725182D01*
X1031030Y726484D01*
X1029728Y727355D01*
X1028192Y727660D01*
D02*
G37*
G36*
X1158748Y903847D02*
X1156469Y903393D01*
X1154536Y902102D01*
X1153245Y900169D01*
X1152792Y897890D01*
X1153245Y895611D01*
X1154536Y893678D01*
X1156469Y892387D01*
X1158748Y891934D01*
X1161027Y892387D01*
X1162960Y893678D01*
X1164251Y895611D01*
X1164705Y897890D01*
X1164251Y900169D01*
X1162960Y902102D01*
X1161027Y903393D01*
X1158748Y903847D01*
D02*
G37*
G36*
X1074674Y908667D02*
X1072571Y908248D01*
X1070789Y907057D01*
X1069598Y905275D01*
X1069179Y903172D01*
Y896672D01*
X1069598Y894569D01*
X1070789Y892787D01*
X1072571Y891596D01*
X1074674Y891177D01*
X1076777Y891596D01*
X1078559Y892787D01*
X1079750Y894569D01*
X1080169Y896672D01*
Y903172D01*
X1079750Y905275D01*
X1078559Y907057D01*
X1076777Y908248D01*
X1074674Y908667D01*
D02*
G37*
G36*
X1004674D02*
X1002571Y908248D01*
X1000789Y907057D01*
X999598Y905275D01*
X999179Y903172D01*
Y896672D01*
X999598Y894569D01*
X1000789Y892787D01*
X1002571Y891596D01*
X1004674Y891177D01*
X1006777Y891596D01*
X1008559Y892787D01*
X1009750Y894569D01*
X1010169Y896672D01*
Y903172D01*
X1009750Y905275D01*
X1008559Y907057D01*
X1006777Y908248D01*
X1004674Y908667D01*
D02*
G37*
G36*
X1066174Y878671D02*
X1063174D01*
X1060974Y878234D01*
X1059109Y876988D01*
X1057862Y875122D01*
X1057424Y872922D01*
X1057862Y870722D01*
X1059109Y868857D01*
X1060974Y867610D01*
X1063174Y867172D01*
X1066174D01*
X1068374Y867610D01*
X1070239Y868857D01*
X1071486Y870722D01*
X1071924Y872922D01*
X1071486Y875122D01*
X1070662Y876356D01*
X1070626Y876443D01*
X1070595Y876455D01*
X1070239Y876988D01*
X1068374Y878234D01*
X1066174Y878671D01*
D02*
G37*
G36*
X1016174D02*
X1013174D01*
X1010974Y878234D01*
X1009109Y876988D01*
X1007862Y875122D01*
X1007424Y872922D01*
X1007862Y870722D01*
X1009109Y868857D01*
X1010974Y867610D01*
X1013174Y867172D01*
X1016174D01*
X1018374Y867610D01*
X1020239Y868857D01*
X1020693Y869536D01*
X1021350Y869807D01*
X1021604Y870061D01*
X1021926Y870839D01*
Y875665D01*
X1021604Y876443D01*
X1020826Y876765D01*
X1020388D01*
X1020239Y876988D01*
X1018374Y878234D01*
X1016174Y878671D01*
D02*
G37*
G36*
X1133348Y879014D02*
X1130016Y878575D01*
X1126911Y877289D01*
X1124245Y875243D01*
X1122199Y872577D01*
X1120913Y869472D01*
X1120474Y866140D01*
X1120913Y862808D01*
X1122199Y859703D01*
X1124245Y857037D01*
X1126911Y854991D01*
X1130016Y853705D01*
X1133348Y853266D01*
X1136680Y853705D01*
X1139785Y854991D01*
X1142451Y857037D01*
X1144497Y859703D01*
X1145783Y862808D01*
X1146222Y866140D01*
X1145783Y869472D01*
X1144497Y872577D01*
X1142451Y875243D01*
X1139785Y877289D01*
X1136680Y878575D01*
X1133348Y879014D01*
D02*
G37*
G36*
X1168908Y853046D02*
X1166629Y852593D01*
X1164696Y851302D01*
X1163405Y849369D01*
X1162952Y847090D01*
X1163305Y845316D01*
X1162653Y844744D01*
X1162223Y844467D01*
X1160780Y844754D01*
X1159244Y844449D01*
X1157942Y843578D01*
X1157071Y842276D01*
X1157044Y842136D01*
X1153801D01*
X1153152Y843406D01*
X1154091Y844811D01*
X1154545Y847090D01*
X1154091Y849369D01*
X1152800Y851302D01*
X1150867Y852593D01*
X1148588Y853046D01*
X1146309Y852593D01*
X1144376Y851302D01*
X1143085Y849369D01*
X1142632Y847090D01*
X1143085Y844811D01*
X1144024Y843406D01*
X1143375Y842136D01*
X1133255D01*
X1132630Y843070D01*
X1131328Y843941D01*
X1129792Y844246D01*
X1128256Y843941D01*
X1126954Y843070D01*
X1126083Y841768D01*
X1125778Y840232D01*
X1126083Y838696D01*
X1126954Y837394D01*
X1128256Y836523D01*
X1129792Y836218D01*
X1131328Y836523D01*
X1132630Y837394D01*
X1133501Y838696D01*
X1133529Y838836D01*
X1157317D01*
X1157942Y837902D01*
X1159244Y837031D01*
X1160780Y836726D01*
X1162316Y837031D01*
X1163618Y837902D01*
X1164489Y839204D01*
X1164794Y840740D01*
X1164669Y841369D01*
X1165812Y842132D01*
X1166629Y841587D01*
X1168908Y841133D01*
X1171187Y841587D01*
X1173120Y842878D01*
X1174411Y844811D01*
X1174865Y847090D01*
X1174411Y849369D01*
X1173120Y851302D01*
X1171187Y852593D01*
X1168908Y853046D01*
D02*
G37*
G36*
X1102868Y882304D02*
X1100570Y881847D01*
X1098622Y880546D01*
X1097321Y878598D01*
X1096864Y876300D01*
X1097321Y874002D01*
X1098622Y872054D01*
X1100570Y870753D01*
X1101351Y870597D01*
Y869303D01*
X1100570Y869147D01*
X1098622Y867846D01*
X1097321Y865898D01*
X1096864Y863600D01*
X1097321Y861302D01*
X1098622Y859354D01*
X1100570Y858053D01*
X1101351Y857897D01*
Y856603D01*
X1100570Y856447D01*
X1098622Y855146D01*
X1097321Y853198D01*
X1096864Y850900D01*
X1097321Y848602D01*
X1098622Y846654D01*
X1100570Y845353D01*
X1100414Y844089D01*
X1096979D01*
Y832311D01*
X1101218D01*
Y818817D01*
X1073991Y791590D01*
X1066623D01*
X1065828Y792778D01*
X1064526Y793649D01*
X1062990Y793954D01*
X1061454Y793649D01*
X1060152Y792778D01*
X1059281Y791476D01*
X1058976Y789940D01*
X1059281Y788404D01*
X1060152Y787102D01*
X1061454Y786231D01*
X1062990Y785926D01*
X1064392Y786205D01*
X1078334Y772264D01*
X1079500Y771780D01*
X1105077D01*
X1105872Y770592D01*
X1106183Y770384D01*
Y768856D01*
X1105872Y768648D01*
X1105077Y767460D01*
X1068753D01*
X1053210Y783003D01*
Y786307D01*
X1054398Y787102D01*
X1055269Y788404D01*
X1055574Y789940D01*
X1055269Y791476D01*
X1054398Y792778D01*
X1053096Y793649D01*
X1051560Y793954D01*
X1050024Y793649D01*
X1048722Y792778D01*
X1047851Y791476D01*
X1047546Y789940D01*
X1047851Y788404D01*
X1048722Y787102D01*
X1049910Y786307D01*
Y782320D01*
X1050394Y781154D01*
X1056704Y774843D01*
X1056697Y774721D01*
X1056204Y773547D01*
X1055104Y773329D01*
X1053802Y772458D01*
X1052931Y771156D01*
X1052626Y769620D01*
X1052931Y768084D01*
X1053802Y766782D01*
X1055104Y765911D01*
X1056640Y765606D01*
X1058042Y765885D01*
X1066650Y757278D01*
X1067816Y756794D01*
X1104823D01*
X1105618Y755606D01*
X1106246Y755186D01*
X1106263Y753670D01*
X1105872Y753408D01*
X1105001Y752106D01*
X1104696Y750570D01*
X1105001Y749034D01*
X1105872Y747732D01*
X1107174Y746861D01*
X1108710Y746556D01*
X1110246Y746861D01*
X1111548Y747732D01*
X1112419Y749034D01*
X1112724Y750570D01*
X1112445Y751972D01*
X1117496Y757024D01*
X1117980Y758190D01*
Y872254D01*
X1117496Y873420D01*
X1113450Y877466D01*
X1112284Y877950D01*
X1108544D01*
X1108415Y878598D01*
X1107114Y880546D01*
X1105166Y881847D01*
X1102868Y882304D01*
D02*
G37*
%LPD*%
G36*
X1114680Y871571D02*
Y843216D01*
X1113410Y842690D01*
X1108048Y848053D01*
X1108415Y848602D01*
X1108872Y850900D01*
X1108415Y853198D01*
X1107114Y855146D01*
X1105166Y856447D01*
X1104385Y856603D01*
Y857897D01*
X1105166Y858053D01*
X1107114Y859354D01*
X1108415Y861302D01*
X1108872Y863600D01*
X1108415Y865898D01*
X1107114Y867846D01*
X1105166Y869147D01*
X1104385Y869303D01*
Y870597D01*
X1105166Y870753D01*
X1107114Y872054D01*
X1108415Y874002D01*
X1108544Y874650D01*
X1111601D01*
X1114680Y871571D01*
D02*
G37*
G36*
X1111632Y839803D02*
Y777740D01*
X1110362Y777061D01*
X1110246Y777139D01*
X1108710Y777444D01*
X1107174Y777139D01*
X1105872Y776268D01*
X1105077Y775080D01*
X1080183D01*
X1068146Y787117D01*
X1068632Y788290D01*
X1074674D01*
X1075840Y788774D01*
X1104034Y816968D01*
X1104518Y818134D01*
Y832311D01*
X1108757D01*
Y841019D01*
X1109930Y841505D01*
X1111632Y839803D01*
D02*
G37*
G36*
X1066904Y764644D02*
X1068070Y764160D01*
X1105077D01*
X1105868Y762977D01*
X1105872Y762971D01*
X1105866Y761448D01*
X1105618Y761282D01*
X1104823Y760094D01*
X1068499D01*
X1060582Y768010D01*
X1060809Y769162D01*
X1061978Y769569D01*
X1066904Y764644D01*
D02*
G37*
D13*
X1082294Y820674D02*
X1082548Y820928D01*
X1095502D01*
X1116330Y758190D02*
Y872254D01*
X1112284Y876300D02*
X1116330Y872254D01*
X1108710Y750570D02*
X1116330Y758190D01*
X1113282Y769112D02*
Y840486D01*
X1109980Y765810D02*
X1113282Y769112D01*
X1102868Y850900D02*
X1113282Y840486D01*
X1108710Y765810D02*
X1109980D01*
X1102868Y876300D02*
X1112284D01*
X1130046Y840486D02*
X1160526D01*
X1129792Y840232D02*
X1130046Y840486D01*
X1160526D02*
X1160780Y840740D01*
X1013968Y667766D02*
Y697738D01*
X1034542Y718312D01*
X1017524Y723646D02*
X1028192D01*
X988568Y694690D02*
X1017524Y723646D01*
X988568Y667766D02*
Y694690D01*
X1034288Y718312D02*
X1034542D01*
X1102868Y818134D02*
Y838200D01*
X1074674Y789940D02*
X1102868Y818134D01*
X1079500Y773430D02*
X1108710D01*
X1067816Y758444D02*
X1108456D01*
X1056640Y769620D02*
X1067816Y758444D01*
X1062990Y789940D02*
X1074674D01*
X1062990D02*
X1079500Y773430D01*
X1068070Y765810D02*
X1108710D01*
X1051560Y782320D02*
X1068070Y765810D01*
X1051560Y782320D02*
Y789940D01*
X1041988Y670560D02*
X1146810D01*
X1031587Y680961D02*
X1041988Y670560D01*
D35*
X971804Y890016D02*
D03*
D36*
X984504D02*
D03*
X979932Y839724D02*
D03*
Y852424D02*
D03*
X1102868Y850900D02*
D03*
Y863600D02*
D03*
Y876300D02*
D03*
X1195832Y694436D02*
D03*
Y707136D02*
D03*
Y719836D02*
D03*
D37*
X979932Y865124D02*
D03*
X1102868Y838200D02*
D03*
X1195832Y732536D02*
D03*
D38*
X1014674Y872922D02*
D03*
X1064674D02*
D03*
D39*
X1004674Y899922D02*
D03*
X1074674D02*
D03*
D40*
X1013968Y667766D02*
D03*
D41*
X988568D02*
D03*
D42*
X1131150Y778380D02*
D03*
X1142150D02*
D03*
X1131150Y767380D02*
D03*
X1142150D02*
D03*
D43*
X993661Y834377D02*
X994156Y833882D01*
X987298Y834377D02*
X993661D01*
X981951Y839724D02*
X987298Y834377D01*
X979932Y839724D02*
X981951D01*
D44*
X1008210Y857758D02*
X1078230D01*
X1006178Y855726D02*
X1008210Y857758D01*
X1005078Y855726D02*
X1006178D01*
X1078230Y857758D02*
X1088390Y867918D01*
X990600Y747776D02*
Y794258D01*
X960628Y824230D02*
X990600Y794258D01*
X954278Y826770D02*
X979932Y852424D01*
X954278Y762762D02*
Y826770D01*
Y762762D02*
X966978Y750062D01*
X1088390Y867918D02*
Y878586D01*
X1092859Y883055D01*
D46*
X992378Y850278D02*
Y869442D01*
Y850278D02*
X1014743Y827913D01*
X1016381D01*
X1024890Y819404D01*
X971804Y890016D02*
X992378Y869442D01*
D48*
X1200658Y686562D02*
X1205738Y691642D01*
X1167638Y686562D02*
X1200658D01*
X1205738Y691642D02*
Y701802D01*
X1163828Y690372D02*
X1167638Y686562D01*
X1102614Y690372D02*
X1163828D01*
X1097915Y695071D02*
X1195197D01*
X1091438Y701548D02*
X1097915Y695071D01*
X1195197D02*
X1195832Y694436D01*
X1200404Y707136D02*
X1205738Y701802D01*
X1195832Y707136D02*
X1200404D01*
D50*
X1082294Y820674D02*
D03*
X1124204Y849630D02*
D03*
X1192226Y748538D02*
D03*
X1174750Y668528D02*
D03*
X1206500Y889000D02*
D03*
Y736600D02*
D03*
X1181100Y838200D02*
D03*
X1168400Y812800D02*
D03*
X1181100Y787400D02*
D03*
X1104900Y889000D02*
D03*
X1092200Y660400D02*
D03*
X1079500Y889000D02*
D03*
X1066800Y863600D02*
D03*
X1079500Y736600D02*
D03*
X1066800Y660400D02*
D03*
X1041400Y762000D02*
D03*
Y711200D02*
D03*
X1016000D02*
D03*
X990600Y812800D02*
D03*
X1003300Y787400D02*
D03*
Y736600D02*
D03*
X990600Y711200D02*
D03*
X965200Y863600D02*
D03*
Y762000D02*
D03*
Y711200D02*
D03*
X977900Y685800D02*
D03*
X965200Y660400D02*
D03*
X1116584Y743966D02*
D03*
X1126744Y746760D02*
D03*
X1097788Y795274D02*
D03*
X1121664Y793750D02*
D03*
X1203706Y878078D02*
D03*
X1129792Y840232D02*
D03*
X994156Y833882D02*
D03*
X1010412Y846074D02*
D03*
X1005078Y855726D02*
D03*
X1095502Y820928D02*
D03*
X1082802Y832612D02*
D03*
X960628Y824230D02*
D03*
X990600Y747776D02*
D03*
X966978Y750062D02*
D03*
X1034542Y718312D02*
D03*
X1028192Y723646D02*
D03*
X1033526Y739902D02*
D03*
X1092859Y883055D02*
D03*
X1160780Y840740D02*
D03*
X1162558Y782320D02*
D03*
X1144016Y802894D02*
D03*
X1108710Y773430D02*
D03*
X1024890Y819404D02*
D03*
X1108456Y758444D02*
D03*
X1062990Y789940D02*
D03*
X1108710Y750570D02*
D03*
X1051560Y789940D02*
D03*
X1102614Y690372D02*
D03*
X1091438Y701548D02*
D03*
X1075690Y695960D02*
D03*
X1031587Y680961D02*
D03*
X1056640Y769620D02*
D03*
X1108710Y765810D02*
D03*
X1123950Y656590D02*
D03*
X1160780Y678180D02*
D03*
X1146810Y670560D02*
D03*
D51*
X1137051Y749407D02*
X1191358D01*
X1192226Y748538D01*
X1137051Y749407D02*
X1160780Y773135D01*
X1120181Y732536D02*
X1137051Y749407D01*
X1160780Y773135D02*
Y781558D01*
X1066800Y706120D02*
X1092200Y680720D01*
X1160780Y781558D02*
X1203960Y824738D01*
X1108776Y732536D02*
X1120181D01*
X1203706Y878078D02*
X1203960Y877824D01*
Y824738D02*
Y877824D01*
X1144016Y801370D02*
X1160780Y784606D01*
X1144016Y801370D02*
Y802894D01*
X1082360Y706120D02*
X1108776Y732536D01*
X1066800Y706120D02*
X1082360D01*
X1158240Y680720D02*
X1160780Y678180D01*
X1092200Y680720D02*
X1158240D01*
X1154084Y656590D02*
X1160780Y663286D01*
Y678180D01*
X1123950Y656590D02*
X1154084D01*
D52*
X1024890Y748284D02*
X1052667Y720507D01*
X1018794Y837692D02*
X1077722D01*
X1010412Y846074D02*
X1018794Y837692D01*
X1077722D02*
X1082802Y832612D01*
X1052667Y720253D02*
X1066800Y706120D01*
X1052667Y720253D02*
Y720507D01*
X1024890Y748284D02*
Y819404D01*
M02*
