G04*
G04 #@! TF.GenerationSoftware,Altium Limited,Altium Designer,19.1.7 (138)*
G04*
G04 Layer_Color=65535*
%FSLAX44Y44*%
%MOMM*%
G71*
G01*
G75*
%ADD10C,0.1000*%
%ADD11C,0.6000*%
%ADD12C,0.2500*%
%ADD13C,0.2000*%
%ADD14C,0.1016*%
D10*
X952021Y791709D02*
G03*
X952021Y791709I-500J0D01*
G01*
D11*
X1000780Y784030D02*
G03*
X1000780Y784030I-3000J0D01*
G01*
D12*
X978530Y792530D02*
G03*
X978530Y792530I-1250J0D01*
G01*
X919810Y795320D02*
G03*
X919810Y795320I-1250J0D01*
G01*
X1106780Y702570D02*
G03*
X1106780Y702570I-1250J0D01*
G01*
X1109900Y792880D02*
G03*
X1109900Y792880I-1250J0D01*
G01*
X1036140Y829345D02*
G03*
X1036140Y829345I-1250J0D01*
G01*
X1181000Y783700D02*
G03*
X1181000Y783700I-1250J0D01*
G01*
D13*
X1115400Y711200D02*
G03*
X1115400Y711200I-500J0D01*
G01*
X987780Y702030D02*
X1079780D01*
X987780Y794030D02*
X1079780D01*
Y702030D02*
Y794030D01*
X987780Y702030D02*
Y794030D01*
X857810Y817320D02*
X867060D01*
X891560D02*
X904110D01*
X857810Y747320D02*
Y817320D01*
Y747320D02*
X867060D01*
X891560D02*
X904110D01*
X1112030Y670070D02*
X1114030D01*
X1112030D02*
Y672070D01*
X1144030Y670070D02*
X1146030D01*
Y672070D01*
Y702070D02*
Y704070D01*
X1144030D02*
X1146030D01*
X1112030D02*
X1114030D01*
X1112030Y702070D02*
Y704070D01*
X1115150Y788130D02*
Y794380D01*
X1121400D01*
X1151900D02*
X1158150D01*
Y788130D02*
Y794380D01*
Y751380D02*
Y757630D01*
X1151900Y751380D02*
X1158150D01*
X1115150D02*
Y757630D01*
Y751380D02*
X1121400D01*
X1094740Y873760D02*
X1120140D01*
Y822960D02*
Y873760D01*
X1094740Y822960D02*
X1120140D01*
X1094740D02*
Y873760D01*
X915670Y708660D02*
X966470D01*
X915670Y683260D02*
Y708660D01*
Y683260D02*
X966470D01*
Y708660D01*
D14*
X1103470Y785620D02*
Y781812D01*
X1104232Y781050D01*
X1105755D01*
X1106517Y781812D01*
Y785620D01*
X1110326Y781050D02*
Y785620D01*
X1108040Y783335D01*
X1111087D01*
X1104900Y748791D02*
Y748029D01*
X1106423Y746505D01*
X1107947Y748029D01*
Y748791D01*
X1106423Y746505D02*
Y744220D01*
X1109471D02*
X1110994D01*
X1110232D01*
Y748791D01*
X1109471Y748029D01*
X1177800Y758190D02*
X1181608D01*
X1182370Y758952D01*
Y760475D01*
X1181608Y761237D01*
X1177800D01*
Y765807D02*
X1178561Y764284D01*
X1180085Y762760D01*
X1181608D01*
X1182370Y763522D01*
Y765046D01*
X1181608Y765807D01*
X1180846D01*
X1180085Y765046D01*
Y762760D01*
X935990Y813560D02*
Y809752D01*
X936752Y808990D01*
X938275D01*
X939037Y809752D01*
Y813560D01*
X943607D02*
X940561D01*
Y811275D01*
X942084Y812037D01*
X942846D01*
X943607Y811275D01*
Y809752D01*
X942846Y808990D01*
X941322D01*
X940561Y809752D01*
X1097280Y696721D02*
Y692912D01*
X1098042Y692150D01*
X1099565D01*
X1100327Y692912D01*
Y696721D01*
X1101851Y695959D02*
X1102612Y696721D01*
X1104136D01*
X1104898Y695959D01*
Y695197D01*
X1104136Y694435D01*
X1103374D01*
X1104136D01*
X1104898Y693673D01*
Y692912D01*
X1104136Y692150D01*
X1102612D01*
X1101851Y692912D01*
X980440Y808481D02*
Y804672D01*
X981202Y803910D01*
X982725D01*
X983487Y804672D01*
Y808481D01*
X988057Y803910D02*
X985011D01*
X988057Y806957D01*
Y807719D01*
X987296Y808481D01*
X985772D01*
X985011Y807719D01*
X1018540Y823720D02*
Y819912D01*
X1019302Y819150D01*
X1020825D01*
X1021587Y819912D01*
Y823720D01*
X1023111Y819150D02*
X1024634D01*
X1023872D01*
Y823720D01*
X1023111Y822959D01*
X1149010Y821690D02*
Y826261D01*
X1151295D01*
X1152057Y825499D01*
Y823975D01*
X1151295Y823214D01*
X1149010D01*
X1150534D02*
X1152057Y821690D01*
X1153580Y825499D02*
X1154342Y826261D01*
X1155866D01*
X1156628Y825499D01*
Y824737D01*
X1155866Y823975D01*
X1156628Y823214D01*
Y822452D01*
X1155866Y821690D01*
X1154342D01*
X1153580Y822452D01*
Y823214D01*
X1154342Y823975D01*
X1153580Y824737D01*
Y825499D01*
X1154342Y823975D02*
X1155866D01*
X1076960Y836930D02*
X1072390D01*
Y839215D01*
X1073151Y839977D01*
X1074675D01*
X1075436Y839215D01*
Y836930D01*
Y838454D02*
X1076960Y839977D01*
X1072390Y841500D02*
Y844548D01*
X1073151D01*
X1076198Y841500D01*
X1076960D01*
Y849630D02*
X1072390D01*
Y851915D01*
X1073151Y852677D01*
X1074675D01*
X1075436Y851915D01*
Y849630D01*
Y851153D02*
X1076960Y852677D01*
X1072390Y857247D02*
X1073151Y855724D01*
X1074675Y854201D01*
X1076198D01*
X1076960Y854962D01*
Y856486D01*
X1076198Y857247D01*
X1075436D01*
X1074675Y856486D01*
Y854201D01*
X1062990Y902970D02*
Y907541D01*
X1065275D01*
X1066037Y906779D01*
Y905255D01*
X1065275Y904493D01*
X1062990D01*
X1064513D02*
X1066037Y902970D01*
X1070608Y907541D02*
X1067561D01*
Y905255D01*
X1069084Y906017D01*
X1069846D01*
X1070608Y905255D01*
Y903732D01*
X1069846Y902970D01*
X1068322D01*
X1067561Y903732D01*
X1050290Y902970D02*
Y907541D01*
X1052575D01*
X1053337Y906779D01*
Y905255D01*
X1052575Y904493D01*
X1050290D01*
X1051814D02*
X1053337Y902970D01*
X1057146D02*
Y907541D01*
X1054861Y905255D01*
X1057907D01*
X1037590Y904240D02*
Y908811D01*
X1039875D01*
X1040637Y908049D01*
Y906525D01*
X1039875Y905763D01*
X1037590D01*
X1039113D02*
X1040637Y904240D01*
X1042160Y908049D02*
X1042922Y908811D01*
X1044446D01*
X1045208Y908049D01*
Y907287D01*
X1044446Y906525D01*
X1043684D01*
X1044446D01*
X1045208Y905763D01*
Y905002D01*
X1044446Y904240D01*
X1042922D01*
X1042160Y905002D01*
X935990Y845820D02*
X931420D01*
Y848105D01*
X932181Y848867D01*
X933705D01*
X934466Y848105D01*
Y845820D01*
Y847344D02*
X935990Y848867D01*
Y853438D02*
Y850390D01*
X932943Y853438D01*
X932181D01*
X931420Y852676D01*
Y851152D01*
X932181Y850390D01*
X935990Y833120D02*
X931420D01*
Y835405D01*
X932181Y836167D01*
X933705D01*
X934466Y835405D01*
Y833120D01*
Y834643D02*
X935990Y836167D01*
Y837691D02*
Y839214D01*
Y838452D01*
X931420D01*
X932181Y837691D01*
X1193800Y797560D02*
Y802131D01*
X1196085D01*
X1196847Y801369D01*
Y799845D01*
X1196085Y799083D01*
X1193800D01*
X1200656Y797560D02*
Y802131D01*
X1198371Y799845D01*
X1201417D01*
X1096010Y878840D02*
Y883410D01*
X1098295D01*
X1099057Y882649D01*
Y881125D01*
X1098295Y880363D01*
X1096010D01*
X1100581Y882649D02*
X1101342Y883410D01*
X1102866D01*
X1103627Y882649D01*
Y881887D01*
X1102866Y881125D01*
X1102104D01*
X1102866D01*
X1103627Y880363D01*
Y879602D01*
X1102866Y878840D01*
X1101342D01*
X1100581Y879602D01*
X916940Y715010D02*
Y719581D01*
X919225D01*
X919987Y718819D01*
Y717295D01*
X919225Y716534D01*
X916940D01*
X924557Y715010D02*
X921510D01*
X924557Y718057D01*
Y718819D01*
X923796Y719581D01*
X922272D01*
X921510Y718819D01*
X1137158Y910844D02*
Y915415D01*
X1139443D01*
X1140205Y914653D01*
Y913129D01*
X1139443Y912367D01*
X1137158D01*
X1141729Y910844D02*
X1143252D01*
X1142490D01*
Y915415D01*
X1141729Y914653D01*
X953770Y921510D02*
Y916940D01*
X956817D01*
X958341D02*
X959864D01*
X959102D01*
Y921510D01*
X958341Y920749D01*
X875537Y831340D02*
X874014D01*
X874775D01*
Y827532D01*
X874014Y826770D01*
X873252D01*
X872490Y827532D01*
X877060Y826770D02*
X878584D01*
X877822D01*
Y831340D01*
X877060Y830579D01*
X1123187Y814069D02*
X1122425Y814830D01*
X1120902D01*
X1120140Y814069D01*
Y811022D01*
X1120902Y810260D01*
X1122425D01*
X1123187Y811022D01*
X1127757Y810260D02*
X1124710D01*
X1127757Y813307D01*
Y814069D01*
X1126996Y814830D01*
X1125472D01*
X1124710Y814069D01*
X1129281Y810260D02*
X1130805D01*
X1130043D01*
Y814830D01*
X1129281Y814069D01*
X1165097Y808989D02*
X1164335Y809751D01*
X1162812D01*
X1162050Y808989D01*
Y805942D01*
X1162812Y805180D01*
X1164335D01*
X1165097Y805942D01*
X1169668Y805180D02*
X1166620D01*
X1169668Y808227D01*
Y808989D01*
X1168906Y809751D01*
X1167382D01*
X1166620Y808989D01*
X1171191D02*
X1171953Y809751D01*
X1173476D01*
X1174238Y808989D01*
Y805942D01*
X1173476Y805180D01*
X1171953D01*
X1171191Y805942D01*
Y808989D01*
X1137317Y825579D02*
X1136555Y826340D01*
X1135032D01*
X1134270Y825579D01*
Y822532D01*
X1135032Y821770D01*
X1136555D01*
X1137317Y822532D01*
X1138840Y821770D02*
X1140364D01*
X1139602D01*
Y826340D01*
X1138840Y825579D01*
X1142649Y822532D02*
X1143411Y821770D01*
X1144935D01*
X1145696Y822532D01*
Y825579D01*
X1144935Y826340D01*
X1143411D01*
X1142649Y825579D01*
Y824817D01*
X1143411Y824055D01*
X1145696D01*
X1176021Y718057D02*
X1175259Y717295D01*
Y715772D01*
X1176021Y715010D01*
X1179068D01*
X1179830Y715772D01*
Y717295D01*
X1179068Y718057D01*
X1179830Y719581D02*
Y721104D01*
Y720342D01*
X1175259D01*
X1176021Y719581D01*
Y723389D02*
X1175259Y724151D01*
Y725675D01*
X1176021Y726436D01*
X1176783D01*
X1177545Y725675D01*
X1178307Y726436D01*
X1179068D01*
X1179830Y725675D01*
Y724151D01*
X1179068Y723389D01*
X1178307D01*
X1177545Y724151D01*
X1176783Y723389D01*
X1176021D01*
X1177545Y724151D02*
Y725675D01*
X1102867Y741679D02*
X1102105Y742440D01*
X1100582D01*
X1099820Y741679D01*
Y738632D01*
X1100582Y737870D01*
X1102105D01*
X1102867Y738632D01*
X1104390Y737870D02*
X1105914D01*
X1105152D01*
Y742440D01*
X1104390Y741679D01*
X1108199Y742440D02*
X1111246D01*
Y741679D01*
X1108199Y738632D01*
Y737870D01*
X1176021Y743457D02*
X1175259Y742695D01*
Y741172D01*
X1176021Y740410D01*
X1179068D01*
X1179830Y741172D01*
Y742695D01*
X1179068Y743457D01*
X1179830Y744980D02*
Y746504D01*
Y745742D01*
X1175259D01*
X1176021Y744980D01*
X1175259Y751836D02*
X1176021Y750313D01*
X1177545Y748789D01*
X1179068D01*
X1179830Y749551D01*
Y751075D01*
X1179068Y751836D01*
X1178307D01*
X1177545Y751075D01*
Y748789D01*
X966471Y813307D02*
X965710Y812545D01*
Y811022D01*
X966471Y810260D01*
X969518D01*
X970280Y811022D01*
Y812545D01*
X969518Y813307D01*
X970280Y814830D02*
Y816354D01*
Y815592D01*
X965710D01*
X966471Y814830D01*
X965710Y821686D02*
Y818639D01*
X967995D01*
X967233Y820163D01*
Y820925D01*
X967995Y821686D01*
X969518D01*
X970280Y820925D01*
Y819401D01*
X969518Y818639D01*
X946151Y779017D02*
X945389Y778255D01*
Y776732D01*
X946151Y775970D01*
X949198D01*
X949960Y776732D01*
Y778255D01*
X949198Y779017D01*
X949960Y780540D02*
Y782064D01*
Y781302D01*
X945389D01*
X946151Y780540D01*
X949960Y786635D02*
X945389D01*
X947675Y784349D01*
Y787396D01*
X1099057Y671829D02*
X1098295Y672590D01*
X1096772D01*
X1096010Y671829D01*
Y668782D01*
X1096772Y668020D01*
X1098295D01*
X1099057Y668782D01*
X1100581Y668020D02*
X1102104D01*
X1101342D01*
Y672590D01*
X1100581Y671829D01*
X1104389D02*
X1105151Y672590D01*
X1106675D01*
X1107436Y671829D01*
Y671067D01*
X1106675Y670305D01*
X1105913D01*
X1106675D01*
X1107436Y669544D01*
Y668782D01*
X1106675Y668020D01*
X1105151D01*
X1104389Y668782D01*
X1153667Y703579D02*
X1152905Y704341D01*
X1151382D01*
X1150620Y703579D01*
Y700532D01*
X1151382Y699770D01*
X1152905D01*
X1153667Y700532D01*
X1155191Y699770D02*
X1156714D01*
X1155952D01*
Y704341D01*
X1155191Y703579D01*
X1162046Y699770D02*
X1158999D01*
X1162046Y702817D01*
Y703579D01*
X1161285Y704341D01*
X1159761D01*
X1158999Y703579D01*
X1154937Y671829D02*
X1154175Y672590D01*
X1152652D01*
X1151890Y671829D01*
Y668782D01*
X1152652Y668020D01*
X1154175D01*
X1154937Y668782D01*
X1156460Y668020D02*
X1157984D01*
X1157222D01*
Y672590D01*
X1156460Y671829D01*
X1160269Y668020D02*
X1161793D01*
X1161031D01*
Y672590D01*
X1160269Y671829D01*
X966977Y920749D02*
X966215Y921510D01*
X964692D01*
X963930Y920749D01*
Y917702D01*
X964692Y916940D01*
X966215D01*
X966977Y917702D01*
X968501Y916940D02*
X970024D01*
X969262D01*
Y921510D01*
X968501Y920749D01*
X972309D02*
X973071Y921510D01*
X974595D01*
X975356Y920749D01*
Y917702D01*
X974595Y916940D01*
X973071D01*
X972309Y917702D01*
Y920749D01*
X982217D02*
X981455Y921510D01*
X979932D01*
X979170Y920749D01*
Y917702D01*
X979932Y916940D01*
X981455D01*
X982217Y917702D01*
X983740D02*
X984502Y916940D01*
X986026D01*
X986787Y917702D01*
Y920749D01*
X986026Y921510D01*
X984502D01*
X983740Y920749D01*
Y919987D01*
X984502Y919225D01*
X986787D01*
X951231Y883157D02*
X950470Y882395D01*
Y880872D01*
X951231Y880110D01*
X954278D01*
X955040Y880872D01*
Y882395D01*
X954278Y883157D01*
X951231Y884680D02*
X950470Y885442D01*
Y886966D01*
X951231Y887728D01*
X951993D01*
X952755Y886966D01*
X953516Y887728D01*
X954278D01*
X955040Y886966D01*
Y885442D01*
X954278Y884680D01*
X953516D01*
X952755Y885442D01*
X951993Y884680D01*
X951231D01*
X952755Y885442D02*
Y886966D01*
X947421Y862837D02*
X946659Y862075D01*
Y860552D01*
X947421Y859790D01*
X950468D01*
X951230Y860552D01*
Y862075D01*
X950468Y862837D01*
X946659Y864361D02*
Y867408D01*
X947421D01*
X950468Y864361D01*
X951230D01*
X972057Y835659D02*
X971295Y836421D01*
X969772D01*
X969010Y835659D01*
Y832612D01*
X969772Y831850D01*
X971295D01*
X972057Y832612D01*
X976628Y836421D02*
X975104Y835659D01*
X973580Y834135D01*
Y832612D01*
X974342Y831850D01*
X975866D01*
X976628Y832612D01*
Y833373D01*
X975866Y834135D01*
X973580D01*
X976631Y820927D02*
X975870Y820165D01*
Y818642D01*
X976631Y817880D01*
X979678D01*
X980440Y818642D01*
Y820165D01*
X979678Y820927D01*
X975870Y825498D02*
Y822450D01*
X978155D01*
X977393Y823974D01*
Y824736D01*
X978155Y825498D01*
X979678D01*
X980440Y824736D01*
Y823212D01*
X979678Y822450D01*
X1049021Y828547D02*
X1048260Y827785D01*
Y826262D01*
X1049021Y825500D01*
X1052068D01*
X1052830Y826262D01*
Y827785D01*
X1052068Y828547D01*
X1052830Y832356D02*
X1048260D01*
X1050545Y830070D01*
Y833118D01*
X1049021Y864107D02*
X1048260Y863345D01*
Y861822D01*
X1049021Y861060D01*
X1052068D01*
X1052830Y861822D01*
Y863345D01*
X1052068Y864107D01*
X1049021Y865630D02*
X1048260Y866392D01*
Y867916D01*
X1049021Y868678D01*
X1049783D01*
X1050545Y867916D01*
Y867154D01*
Y867916D01*
X1051307Y868678D01*
X1052068D01*
X1052830Y867916D01*
Y866392D01*
X1052068Y865630D01*
X930911Y784097D02*
X930150Y783335D01*
Y781812D01*
X930911Y781050D01*
X933958D01*
X934720Y781812D01*
Y783335D01*
X933958Y784097D01*
X934720Y788668D02*
Y785620D01*
X931673Y788668D01*
X930911D01*
X930150Y787906D01*
Y786382D01*
X930911Y785620D01*
X947421Y744727D02*
X946659Y743965D01*
Y742442D01*
X947421Y741680D01*
X950468D01*
X951230Y742442D01*
Y743965D01*
X950468Y744727D01*
X951230Y746251D02*
Y747774D01*
Y747012D01*
X946659D01*
X947421Y746251D01*
M02*
