G04*
G04 #@! TF.GenerationSoftware,Altium Limited,Altium Designer,19.1.7 (138)*
G04*
G04 Layer_Color=16711935*
%FSLAX44Y44*%
%MOMM*%
G71*
G01*
G75*
%ADD10C,0.1000*%
D10*
X997780Y789030D02*
G03*
X997780Y789030I-5000J0D01*
G01*
X1127530Y693570D02*
G03*
X1127530Y693570I-5000J0D01*
G01*
X1130650Y783880D02*
G03*
X1130650Y783880I-5000J0D01*
G01*
X1207750Y774700D02*
G03*
X1207750Y774700I-10000J0D01*
G01*
X1038400Y885770D02*
X1044400D01*
X1038400Y896770D02*
X1044400D01*
X1038400Y885770D02*
Y896770D01*
X1044400Y885770D02*
Y896770D01*
X1110480Y657400D02*
Y663400D01*
X1121480Y657400D02*
Y663400D01*
X1110480D02*
X1121480D01*
X1110480Y657400D02*
X1121480D01*
X958390Y744800D02*
X964390D01*
X958390Y755800D02*
X964390D01*
X958390Y744800D02*
Y755800D01*
X964390Y744800D02*
Y755800D01*
X918672Y786922D02*
X924672D01*
X918672Y797922D02*
X924672D01*
X918672Y786922D02*
Y797922D01*
X924672Y786922D02*
Y797922D01*
X945800Y792830D02*
Y804830D01*
X933800Y792830D02*
Y804830D01*
Y792830D02*
X945800D01*
X933800Y804830D02*
X945800D01*
X983780Y698030D02*
X1083780D01*
X983780Y798030D02*
X1083780D01*
Y698030D02*
Y798030D01*
X983780Y698030D02*
Y798030D01*
X857810Y747320D02*
Y817320D01*
Y747320D02*
X907810D01*
X857810Y817320D02*
X907810D01*
Y747320D02*
Y817320D01*
X1163970Y795790D02*
X1169970D01*
X1163970Y784790D02*
X1169970D01*
Y795790D01*
X1163970Y784790D02*
Y795790D01*
X1118020Y799640D02*
Y805640D01*
X1129020Y799640D02*
Y805640D01*
X1118020D02*
X1129020D01*
X1118020Y799640D02*
X1129020D01*
X1149660Y812300D02*
X1155660D01*
X1149660Y801300D02*
X1155660D01*
Y812300D01*
X1149660Y801300D02*
Y812300D01*
X1137460Y812300D02*
X1143460D01*
X1137460Y801300D02*
X1143460D01*
Y812300D01*
X1137460Y801300D02*
Y812300D01*
X1152700Y690460D02*
X1158700D01*
X1152700Y679460D02*
X1158700D01*
Y690460D01*
X1152700Y679460D02*
Y690460D01*
X1163970Y744800D02*
X1169970D01*
X1163970Y755800D02*
X1169970D01*
X1163970Y744800D02*
Y755800D01*
X1169970Y744800D02*
Y755800D01*
X1119978Y714802D02*
X1152978D01*
X1119978Y740802D02*
X1152978D01*
Y714802D02*
Y740802D01*
X1119978Y714802D02*
Y740802D01*
X1113530Y671570D02*
X1144530D01*
X1113530Y702570D02*
X1144530D01*
Y671570D02*
Y702570D01*
X1113530Y671570D02*
Y702570D01*
X1116650Y752880D02*
Y792880D01*
X1156650Y752880D02*
Y792880D01*
X1116650D02*
X1156650D01*
X1116650Y752880D02*
X1156650D01*
X986330Y831430D02*
X992330D01*
X986330Y820430D02*
X992330D01*
Y831430D01*
X986330Y820430D02*
Y831430D01*
X975940Y841550D02*
Y847550D01*
X986940Y841550D02*
Y847550D01*
X975940D02*
X986940D01*
X975940Y841550D02*
X986940D01*
X960550Y858890D02*
X982550D01*
X960550Y873390D02*
X982550D01*
Y858890D02*
Y873390D01*
X960550Y858890D02*
Y873390D01*
X954580Y898470D02*
X960580D01*
X954580Y909470D02*
X960580D01*
X954580Y898470D02*
Y909470D01*
X960580Y898470D02*
Y909470D01*
X945380Y846630D02*
X956380D01*
X945380Y852630D02*
X956380D01*
Y846630D02*
Y852630D01*
X945380Y846630D02*
Y852630D01*
X945300Y832660D02*
X956300D01*
X945300Y838660D02*
X956300D01*
Y832660D02*
Y838660D01*
X945300Y832660D02*
Y838660D01*
X964430Y879650D02*
X975430D01*
X964430Y885650D02*
X975430D01*
Y879650D02*
Y885650D01*
X964430Y879650D02*
Y885650D01*
X979980Y896470D02*
Y907470D01*
X985980Y896470D02*
Y907470D01*
X979980Y896470D02*
X985980D01*
X979980Y907470D02*
X985980D01*
X967280Y896470D02*
Y907470D01*
X973280Y896470D02*
Y907470D01*
X967280Y896470D02*
X973280D01*
X967280Y907470D02*
X973280D01*
X1057100Y885690D02*
Y896690D01*
X1051100Y885690D02*
Y896690D01*
X1057100D01*
X1051100Y885690D02*
X1057100D01*
X1069800Y885610D02*
Y896610D01*
X1063800Y885610D02*
Y896610D01*
X1069800D01*
X1063800Y885610D02*
X1069800D01*
X1029890Y826345D02*
Y882345D01*
X996890D02*
X1029890D01*
X996890Y826345D02*
X1029890D01*
X996890D02*
Y882345D01*
X1037130Y829240D02*
Y840240D01*
X1043130Y829240D02*
Y840240D01*
X1037130Y829240D02*
X1043130D01*
X1037130Y840240D02*
X1043130D01*
X1051490Y843740D02*
X1062490D01*
X1051490Y837740D02*
X1062490D01*
X1051490D02*
Y843740D01*
X1062490Y837740D02*
Y843740D01*
X1037130Y852100D02*
Y863100D01*
X1043130Y852100D02*
Y863100D01*
X1037130Y852100D02*
X1043130D01*
X1037130Y863100D02*
X1043130D01*
X1051490Y856440D02*
X1062490D01*
X1051490Y850440D02*
X1062490D01*
X1051490D02*
Y856440D01*
X1062490Y850440D02*
Y856440D01*
X1103170Y717480D02*
Y728480D01*
X1109170Y717480D02*
Y728480D01*
X1103170Y717480D02*
X1109170D01*
X1103170Y728480D02*
X1109170D01*
X1169970Y720510D02*
Y731510D01*
X1163970Y720510D02*
Y731510D01*
X1169970D01*
X1163970Y720510D02*
X1169970D01*
X1184750Y787700D02*
X1210750D01*
X1184750Y761700D02*
Y787700D01*
Y761700D02*
X1210750D01*
Y787700D01*
X1133960Y663400D02*
X1144960D01*
X1133960Y657400D02*
X1144960D01*
X1133960D02*
Y663400D01*
X1144960Y657400D02*
Y663400D01*
X954580Y801220D02*
Y812220D01*
X960580Y801220D02*
Y812220D01*
X954580Y801220D02*
X960580D01*
X954580Y812220D02*
X960580D01*
X960580Y781550D02*
Y792550D01*
X954580Y781550D02*
Y792550D01*
X960580D01*
X954580Y781550D02*
X960580D01*
M02*
