%FSTAX23Y23*%
%MOIN*%
%SFA1B1*%

%IPPOS*%
%ADD43C,0.010000*%
%ADD55C,0.001000*%
%LNcore_prototype_1-1*%
%LPD*%
G36*
X05385Y03405D02*
D01*
G37*
G36*
X05425Y035D02*
D01*
G37*
G54D43*
X03742Y02649D02*
D01*
X03742Y02642*
X03742Y02635*
X03744Y02628*
X03745Y02621*
X03747Y02615*
X0375Y02608*
X03753Y02602*
X03757Y02596*
X0376Y0259*
X03765Y02585*
X03769Y0258*
X03774Y02575*
X0378Y0257*
X03785Y02566*
X03791Y02563*
X03797Y0256*
X03803Y02557*
X0381Y02554*
X03817Y02552*
X03823Y02551*
X0383Y0255*
X03837Y0255*
X0384Y0255*
X04701Y0255D02*
D01*
X04707Y0255*
X04714Y0255*
X04721Y02552*
X04728Y02553*
X04734Y02555*
X04741Y02558*
X04747Y02561*
X04753Y02565*
X04759Y02568*
X04764Y02573*
X04769Y02577*
X04774Y02582*
X04779Y02588*
X04783Y02593*
X04786Y02599*
X04789Y02605*
X04792Y02611*
X04795Y02618*
X04797Y02625*
X04798Y02631*
X04799Y02638*
X04799Y02645*
X04799Y02648*
X048Y035D02*
D01*
X04799Y03506*
X04799Y03513*
X04797Y0352*
X04796Y03527*
X04794Y03533*
X04791Y0354*
X04788Y03546*
X04784Y03552*
X04781Y03558*
X04776Y03563*
X04772Y03568*
X04767Y03573*
X04761Y03578*
X04756Y03582*
X0475Y03585*
X04744Y03588*
X04738Y03591*
X04731Y03594*
X04724Y03596*
X04718Y03597*
X04711Y03598*
X04704Y03598*
X04701Y03598*
X0384Y03599D02*
D01*
X03833Y03598*
X03826Y03598*
X03819Y03596*
X03812Y03595*
X03806Y03593*
X03799Y0359*
X03793Y03587*
X03787Y03583*
X03781Y0358*
X03776Y03575*
X03771Y03571*
X03766Y03566*
X03761Y0356*
X03757Y03555*
X03754Y03549*
X03751Y03543*
X03748Y03537*
X03745Y0353*
X03743Y03523*
X03742Y03517*
X03741Y0351*
X03741Y03503*
X03741Y035*
Y02649D02*
Y035D01*
X0384Y03598D02*
X04701D01*
X04799Y02648D02*
Y03499D01*
X0384Y0255D02*
X047D01*
G54D55*
X03978Y03427D02*
Y03446D01*
X03979Y03447*
X04019*
X03978Y03427D02*
X03999D01*
X04019Y03428D02*
Y03447D01*
X04018Y03427D02*
X04019Y03428D01*
X03999Y03427D02*
X04018D01*
X04192D02*
X04211D01*
X04212Y03428*
Y03447*
X04171Y03427D02*
X04192D01*
X04172Y03447D02*
X04212D01*
X04171Y03446D02*
X04172Y03447D01*
X04171Y03427D02*
Y03446D01*
X04221Y03563D02*
X04241D01*
Y03523D02*
Y03563D01*
X04221Y03543D02*
Y03563D01*
X04222Y03523D02*
X04241D01*
X04221Y03524D02*
X04222Y03523D01*
X04221Y03524D02*
Y03543D01*
X03945Y03525D02*
Y03544D01*
Y03525D02*
X03946Y03524D01*
X03965*
X03945Y03544D02*
Y03565D01*
X03965Y03524D02*
Y03564D01*
X03964Y03565D02*
X03965Y03564D01*
X03945Y03565D02*
X03964D01*
M02*