%FSTAX23Y23*%
%MOIN*%
%SFA1B1*%

%IPPOS*%
%ADD53C,0.003937*%
%LNcore_prototype_1-1*%
%LPD*%
G54D53*
X04451Y03086D02*
D01*
X04451Y03087*
X04451Y03088*
X0445Y0309*
X0445Y03091*
X0445Y03092*
X04449Y03094*
X04449Y03095*
X04448Y03096*
X04447Y03097*
X04446Y03098*
X04445Y03099*
X04444Y031*
X04443Y03101*
X04442Y03102*
X04441Y03103*
X0444Y03103*
X04439Y03104*
X04437Y03104*
X04436Y03105*
X04435Y03105*
X04433Y03105*
X04432Y03105*
X04431*
X04429Y03105*
X04428Y03105*
X04426Y03105*
X04425Y03104*
X04424Y03104*
X04423Y03103*
X04421Y03103*
X0442Y03102*
X04419Y03101*
X04418Y031*
X04417Y03099*
X04416Y03098*
X04415Y03097*
X04414Y03096*
X04414Y03095*
X04413Y03094*
X04413Y03092*
X04412Y03091*
X04412Y0309*
X04412Y03088*
X04412Y03087*
X04412Y03086*
X04412Y03084*
X04412Y03083*
X04412Y03082*
X04412Y0308*
X04413Y03079*
X04413Y03078*
X04414Y03076*
X04414Y03075*
X04415Y03074*
X04416Y03073*
X04417Y03072*
X04418Y03071*
X04419Y0307*
X0442Y03069*
X04421Y03069*
X04423Y03068*
X04424Y03067*
X04425Y03067*
X04426Y03067*
X04428Y03066*
X04429Y03066*
X04431Y03066*
X04432*
X04433Y03066*
X04435Y03066*
X04436Y03067*
X04437Y03067*
X04439Y03067*
X0444Y03068*
X04441Y03069*
X04442Y03069*
X04443Y0307*
X04444Y03071*
X04445Y03072*
X04446Y03073*
X04447Y03074*
X04448Y03075*
X04449Y03076*
X04449Y03078*
X0445Y03079*
X0445Y0308*
X0445Y03082*
X04451Y03083*
X04451Y03084*
X04451Y03086*
X03928Y03106D02*
D01*
X03928Y03107*
X03928Y03109*
X03927Y0311*
X03927Y03111*
X03927Y03113*
X03926Y03114*
X03925Y03115*
X03925Y03116*
X03924Y03117*
X03923Y03119*
X03922Y0312*
X03921Y03121*
X0392Y03121*
X03919Y03122*
X03918Y03123*
X03917Y03124*
X03915Y03124*
X03914Y03125*
X03913Y03125*
X03912Y03125*
X0391Y03125*
X03909Y03126*
X03907*
X03906Y03125*
X03905Y03125*
X03903Y03125*
X03902Y03125*
X03901Y03124*
X03899Y03124*
X03898Y03123*
X03897Y03122*
X03896Y03121*
X03895Y03121*
X03894Y0312*
X03893Y03119*
X03892Y03117*
X03891Y03116*
X03891Y03115*
X0389Y03114*
X0389Y03113*
X03889Y03111*
X03889Y0311*
X03889Y03109*
X03888Y03107*
X03888Y03106*
X03888Y03105*
X03889Y03103*
X03889Y03102*
X03889Y031*
X0389Y03099*
X0389Y03098*
X03891Y03097*
X03891Y03095*
X03892Y03094*
X03893Y03093*
X03894Y03092*
X03895Y03091*
X03896Y0309*
X03897Y0309*
X03898Y03089*
X03899Y03088*
X03901Y03088*
X03902Y03087*
X03903Y03087*
X03905Y03087*
X03906Y03086*
X03907Y03086*
X03909*
X0391Y03086*
X03912Y03087*
X03913Y03087*
X03914Y03087*
X03915Y03088*
X03917Y03088*
X03918Y03089*
X03919Y0309*
X0392Y0309*
X03921Y03091*
X03922Y03092*
X03923Y03093*
X03924Y03094*
X03925Y03095*
X03925Y03097*
X03926Y03098*
X03927Y03099*
X03927Y031*
X03927Y03102*
X03928Y03103*
X03928Y03105*
X03928Y03106*
X04439Y0273D02*
D01*
X04439Y02731*
X04438Y02733*
X04438Y02734*
X04438Y02736*
X04437Y02737*
X04437Y02738*
X04436Y02739*
X04436Y02741*
X04435Y02742*
X04434Y02743*
X04433Y02744*
X04432Y02745*
X04431Y02746*
X0443Y02746*
X04429Y02747*
X04428Y02748*
X04426Y02748*
X04425Y02749*
X04424Y02749*
X04422Y02749*
X04421Y0275*
X0442Y0275*
X04418*
X04417Y0275*
X04415Y02749*
X04414Y02749*
X04413Y02749*
X04412Y02748*
X0441Y02748*
X04409Y02747*
X04408Y02746*
X04407Y02746*
X04406Y02745*
X04405Y02744*
X04404Y02743*
X04403Y02742*
X04402Y02741*
X04402Y02739*
X04401Y02738*
X044Y02737*
X044Y02736*
X044Y02734*
X04399Y02733*
X04399Y02731*
X04399Y0273*
X04399Y02729*
X04399Y02727*
X044Y02726*
X044Y02725*
X044Y02723*
X04401Y02722*
X04402Y02721*
X04402Y0272*
X04403Y02719*
X04404Y02717*
X04405Y02716*
X04406Y02715*
X04407Y02715*
X04408Y02714*
X04409Y02713*
X0441Y02712*
X04412Y02712*
X04413Y02711*
X04414Y02711*
X04415Y02711*
X04417Y02711*
X04418Y0271*
X0442*
X04421Y02711*
X04422Y02711*
X04424Y02711*
X04425Y02711*
X04426Y02712*
X04428Y02712*
X04429Y02713*
X0443Y02714*
X04431Y02715*
X04432Y02715*
X04433Y02716*
X04434Y02717*
X04435Y02719*
X04436Y0272*
X04436Y02721*
X04437Y02722*
X04437Y02723*
X04438Y02725*
X04438Y02726*
X04438Y02727*
X04439Y02729*
X04439Y0273*
X04766Y03051D02*
D01*
X04766Y03053*
X04765Y03056*
X04765Y03059*
X04764Y03061*
X04763Y03064*
X04762Y03067*
X04761Y03069*
X0476Y03071*
X04758Y03074*
X04757Y03076*
X04755Y03078*
X04753Y0308*
X04751Y03082*
X04749Y03083*
X04746Y03085*
X04744Y03086*
X04741Y03087*
X04739Y03088*
X04736Y03089*
X04733Y03089*
X04731Y0309*
X04728Y0309*
X04725*
X04722Y0309*
X0472Y03089*
X04717Y03089*
X04714Y03088*
X04712Y03087*
X04709Y03086*
X04707Y03085*
X04704Y03083*
X04702Y03082*
X047Y0308*
X04698Y03078*
X04696Y03076*
X04695Y03074*
X04693Y03071*
X04692Y03069*
X04691Y03067*
X0469Y03064*
X04689Y03061*
X04688Y03059*
X04688Y03056*
X04687Y03053*
X04687Y03051*
X04687Y03048*
X04688Y03045*
X04688Y03042*
X04689Y0304*
X0469Y03037*
X04691Y03034*
X04692Y03032*
X04693Y0303*
X04695Y03027*
X04696Y03025*
X04698Y03023*
X047Y03021*
X04702Y03019*
X04704Y03018*
X04707Y03016*
X04709Y03015*
X04712Y03014*
X04714Y03013*
X04717Y03012*
X0472Y03012*
X04722Y03011*
X04725Y03011*
X04728*
X04731Y03011*
X04733Y03012*
X04736Y03012*
X04739Y03013*
X04741Y03014*
X04744Y03015*
X04746Y03016*
X04749Y03018*
X04751Y03019*
X04753Y03021*
X04755Y03023*
X04757Y03025*
X04758Y03027*
X0476Y0303*
X04761Y03032*
X04762Y03034*
X04763Y03037*
X04764Y0304*
X04765Y03042*
X04765Y03045*
X04766Y03048*
X04766Y03051*
X04633Y02912D02*
Y02956D01*
X04656Y02912D02*
Y02956D01*
X04633Y02912D02*
X04656D01*
X04633Y02956D02*
X04656D01*
X04076Y0336D02*
X04143D01*
X04076Y03237D02*
X04143D01*
X04076D02*
Y0336D01*
X04143Y03237D02*
Y0336D01*
X04396Y02964D02*
Y03121D01*
X04553Y02964D02*
Y03121D01*
X04396D02*
X04553D01*
X04396Y02964D02*
X04553D01*
X04371Y02588D02*
Y02611D01*
X04415Y02588D02*
Y02611D01*
X04371D02*
X04415D01*
X04371Y02588D02*
X04415D01*
X03759Y02933D02*
X03782D01*
X03759Y02977D02*
X03782D01*
X03759Y02933D02*
Y02977D01*
X03782Y02933D02*
Y02977D01*
X03961Y03289D02*
Y03312D01*
X04005Y03289D02*
Y03312D01*
X03961D02*
X04005D01*
X03961Y03289D02*
X04005D01*
X03873Y02748D02*
X04266D01*
X03873Y03141D02*
X04266D01*
Y02748D02*
Y03141D01*
X03873Y02748D02*
Y03141D01*
X03955Y03627D02*
X04231D01*
X03955Y0343D02*
Y03627D01*
X04231Y0343D02*
Y03627D01*
X03955Y0343D02*
X04231D01*
X04582Y03133D02*
X04606D01*
X04582Y03089D02*
X04606D01*
Y03133*
X04582Y03089D02*
Y03133D01*
X04401Y03148D02*
Y03171D01*
X04444Y03148D02*
Y03171D01*
X04401D02*
X04444D01*
X04401Y03148D02*
X04444D01*
X04526Y03198D02*
X04549D01*
X04526Y03154D02*
X04549D01*
Y03198*
X04526Y03154D02*
Y03198D01*
X04478Y03216D02*
X04501D01*
X04478Y03172D02*
X04501D01*
Y03216*
X04478Y03172D02*
Y03216D01*
X04538Y02718D02*
X04561D01*
X04538Y02675D02*
X04561D01*
Y02718*
X04538Y02675D02*
Y02718D01*
X04582Y02932D02*
X04606D01*
X04582Y02975D02*
X04606D01*
X04582Y02932D02*
Y02975D01*
X04606Y02932D02*
Y02975D01*
X04409Y02814D02*
X04539D01*
X04409Y02916D02*
X04539D01*
Y02814D02*
Y02916D01*
X04409Y02814D02*
Y02916D01*
X04383Y02643D02*
X04506D01*
X04383Y02766D02*
X04506D01*
Y02643D02*
Y02766D01*
X04383Y02643D02*
Y02766D01*
X04343Y02824D02*
Y02868D01*
X04366Y02824D02*
Y02868D01*
X04343Y02824D02*
X04366D01*
X04343Y02868D02*
X04366D01*
X04606Y02836D02*
Y02879D01*
X04582Y02836D02*
Y02879D01*
X04606*
X04582Y02836D02*
X04606D01*
X04675Y03102D02*
X04778D01*
X04675Y02999D02*
Y03102D01*
Y02999D02*
X04778D01*
Y03102*
X04464Y02611D02*
X04507D01*
X04464Y02588D02*
X04507D01*
X04464D02*
Y02611D01*
X04507Y02588D02*
Y02611D01*
X03962Y0324D02*
X04006D01*
X03962Y03263D02*
X04006D01*
Y0324D02*
Y03263D01*
X03962Y0324D02*
Y03263D01*
X04207Y03255D02*
Y03299D01*
X0423Y03255D02*
Y03299D01*
X04207Y03255D02*
X0423D01*
X04207Y03299D02*
X0423D01*
M02*