%FSTAX23Y23*%
%MOIN*%
%SFA1B1*%

%IPPOS*%
%ADD13C,0.005000*%
%ADD15R,0.027559X0.023622*%
%ADD16R,0.041339X0.023622*%
%ADD17O,0.027559X0.009843*%
%ADD18O,0.009843X0.027559*%
%ADD19R,0.102362X0.102362*%
%ADD20R,0.023622X0.027559*%
%ADD21O,0.011811X0.051181*%
%ADD22O,0.051181X0.011811*%
%ADD23R,0.015748X0.053150*%
%ADD24R,0.059055X0.061024*%
%ADD25R,0.055118X0.047244*%
%ADD26R,0.009843X0.021654*%
%ADD27R,0.066929X0.060630*%
%ADD28O,0.007874X0.025591*%
%ADD29O,0.025591X0.007874*%
%ADD30R,0.041339X0.039370*%
%ADD31R,0.086614X0.041339*%
%ADD32R,0.047244X0.061024*%
%ADD33R,0.047244X0.061024*%
%ADD34C,0.031000*%
%ADD35R,0.039370X0.039370*%
%ADD36C,0.039370*%
%ADD37R,0.039370X0.039370*%
%ADD38O,0.049212X0.037401*%
%ADD39O,0.035433X0.061024*%
%ADD40C,0.059055*%
%ADD41R,0.059055X0.059055*%
%ADD42C,0.019685*%
%ADD43C,0.010000*%
%ADD44C,0.008000*%
%ADD45C,0.015000*%
%ADD46C,0.020000*%
%ADD47C,0.012000*%
%ADD48C,0.006000*%
%ADD49C,0.025000*%
%ADD50C,0.024000*%
%LNcore_prototype_1-1*%
%LPD*%
G36*
X04659Y03585D02*
X04648Y03583D01*
X04636Y03578*
X04626Y0357*
X04618Y0356*
X04613Y03548*
X04611Y03535*
X04613Y03521*
X04614Y03518*
X0461Y03515*
X04608Y03517*
X04605Y03519*
X04603Y03519*
X04586*
X04586*
X04585Y03519*
X04581Y03523*
X04583Y03526*
X04585Y03535*
X04583Y03543*
X04578Y03551*
X0457Y03556*
X04562Y03558*
X04553Y03556*
X04545Y03551*
X0454Y03543*
X04538Y03535*
X0454Y03526*
X04545Y03518*
X04549Y03515*
X0455Y03509*
X04544Y03502*
X04537Y03504*
X04529Y03502*
X04523Y03498*
X04519Y03492*
X04517Y03485*
X04519Y03477*
X04523Y03471*
X04529Y03467*
X04537Y03465*
X04544Y03467*
X0455Y03471*
X04554Y03477*
X04556Y03485*
X04554Y03492*
X04563Y035*
X04568*
X04571Y03495*
X04569Y03492*
X04567Y03485*
X04569Y03477*
X04573Y03471*
X04579Y03467*
X04587Y03465*
X04594Y03467*
X04595Y03467*
X04602Y0346*
Y03453*
X04597Y0345*
X04594Y03452*
X04587Y03454*
X04579Y03452*
X04573Y03448*
X04569Y03442*
X04567Y03435*
X04569Y03427*
X04569Y03426*
X04556Y03413*
X04554Y03409*
Y03329*
X04546Y0332*
X04542Y03324*
X04543Y03326*
X04545Y03335*
X04543Y03343*
X04538Y03351*
X0453Y03356*
X04522Y03358*
X04513Y03356*
X04505Y03351*
X045Y03343*
X04498Y03335*
X045Y03326*
X04505Y03318*
X04513Y03313*
X04522Y03311*
X0453Y03313*
X04532Y03314*
X04536Y0331*
X0452Y03295*
X04464*
X04461Y033*
X04462Y03301*
X04463Y03308*
X04462Y03314*
X04459Y03319*
X04454Y03322*
X04448Y03323*
X04441Y03322*
X04436Y03319*
X04433Y03314*
X04432Y03308*
X04432Y03305*
X04367Y03239*
X04326*
X04324Y03243*
X04319Y03246*
X04313Y03247*
X04308Y03246*
X04303Y03249*
Y0339*
X04306Y03393*
X04319*
X0432Y0339*
X04325Y03383*
X04332Y03378*
X04336Y03377*
Y03372*
X04332Y03371*
X04325Y03366*
X0432Y03359*
X04318Y0335*
X0432Y0334*
X04325Y03333*
X04332Y03328*
X04332Y03323*
X04318*
Y03276*
X04365*
Y03323*
X04351*
X04351Y03328*
X04358Y03333*
X04363Y0334*
X04365Y0335*
X04363Y03359*
X04358Y03366*
X04351Y03371*
X04347Y03372*
Y03377*
X04351Y03378*
X04358Y03383*
X04363Y0339*
X04365Y034*
X04363Y03409*
X04358Y03416*
X04351Y03421*
X04347Y03422*
Y03427*
X04351Y03428*
X04358Y03433*
X04363Y0344*
X04365Y0345*
X04363Y03459*
X0436Y03464*
X04362Y03469*
X04491*
X04519Y03442*
X04517Y03435*
X04519Y03427*
X04523Y03421*
X04529Y03417*
X04537Y03415*
X04544Y03417*
X0455Y03421*
X04554Y03427*
X04556Y03435*
X04554Y03442*
X0455Y03448*
X04544Y03452*
X04537Y03454*
X04529Y03452*
X045Y03482*
X04497Y03484*
X04494Y03484*
X04485*
X04484Y03489*
X04487Y03491*
X04497Y03499*
X04505Y03509*
X0451Y03521*
X04512Y03535*
X0451Y03548*
X04505Y0356*
X04497Y0357*
X04487Y03578*
X04475Y03583*
X04464Y03585*
X04465Y0359*
X04658*
X04659Y03585*
G37*
G36*
X0384Y0359D02*
X04458D01*
X04459Y03585*
X04448Y03583*
X04436Y03578*
X04426Y0357*
X04418Y0356*
X04413Y03548*
X04411Y03535*
X04413Y03521*
X04418Y03509*
X04426Y03499*
X04436Y03491*
X04439Y03489*
X04438Y03484*
X04315*
X04313Y03487*
X04308Y03491*
X04302Y03492*
X04296Y03491*
X04291Y03487*
X04287Y03482*
X04286Y03476*
X04287Y0347*
X04291Y03465*
X04296Y03461*
X04302Y0346*
X04308Y03461*
X04313Y03465*
X04316Y03469*
X04321*
X04323Y03464*
X0432Y03459*
X04318Y0345*
X0432Y0344*
X04325Y03433*
X04332Y03428*
X04336Y03427*
Y03422*
X04332Y03421*
X04325Y03416*
X0432Y03409*
X04319Y03406*
X04303*
X04299Y03404*
X04292Y03397*
X0429Y03393*
Y03244*
X04281Y03234*
X04275Y03236*
X04275Y03237*
X04272Y03242*
X04267Y03245*
X04261Y03246*
X04254Y03245*
X04249Y03242*
X04246Y03237*
X04245Y03231*
X04245Y0323*
X04242Y03226*
X0423*
X04225Y03224*
X04223Y03222*
X04128*
X04123Y0322*
X04099Y03196*
X04099Y03196*
X04095Y03195*
X04092Y03193*
X04092Y03193*
X04086*
X04086Y03193*
X04083Y03195*
X04079Y03196*
X04076Y03195*
X04073Y03193*
X04073Y03193*
X04066*
X04066Y03193*
X04063Y03195*
X0406Y03196*
X04056Y03195*
X04053Y03193*
X04053Y03193*
X04047*
X04047Y03193*
X04044Y03195*
X0404Y03196*
X04036Y03195*
X04033Y03193*
X04033Y03193*
X04027*
X04027Y03193*
X04024Y03195*
X0402Y03196*
X04017Y03195*
X04014Y03193*
X04011Y0319*
X04011Y03187*
Y03147*
X04011Y03144*
X04014Y0314*
X04017Y03138*
X0402Y03138*
X04024Y03138*
X04027Y0314*
X04027Y03141*
X04033*
X04033Y0314*
X04036Y03138*
X0404Y03138*
X04044Y03138*
X04047Y0314*
X04047Y03141*
X04053*
X04053Y0314*
X04056Y03138*
X0406Y03138*
X04063Y03138*
X04066Y0314*
X04066Y03141*
X04073*
X04073Y0314*
X04076Y03138*
X04079Y03138*
X04083Y03138*
X04086Y0314*
X04086Y03141*
X04092*
X04092Y0314*
X04095Y03138*
X04099Y03138*
X04103Y03138*
X04106Y0314*
X04106Y03141*
X04112*
X04112Y0314*
X04115Y03138*
X04119Y03138*
X04122Y03138*
X04125Y0314*
X0413Y03138*
X04132Y03136*
Y03123*
X04128Y03121*
X04125Y03116*
X04124Y0311*
X04125Y03103*
X04128Y03098*
X04133Y03095*
X0414Y03094*
X04146Y03095*
X04147Y03096*
X04152Y03093*
Y03043*
X04148Y03041*
X04145Y03036*
X04144Y0303*
X04145Y03023*
X04148Y03018*
X04153Y03015*
X04156Y03014*
X04157Y03009*
X04075Y02927*
X04075Y02927*
X04069Y02928*
X04062Y02927*
X04057Y02924*
X04054Y02919*
X04053Y02913*
X04053Y02911*
X04008Y02866*
X03847*
X03847Y02866*
X03827*
X03824Y02865*
X03821Y02863*
X03819Y0286*
X03818Y02856*
X03819Y02852*
X03821Y02849*
X03821Y02849*
Y02843*
X03821Y02843*
X03819Y0284*
X03818Y02836*
X03819Y02833*
X03821Y02829*
X03821Y02829*
Y02823*
X03821Y02823*
X03819Y0282*
X03818Y02817*
X03819Y02813*
X03821Y0281*
X03821Y0281*
Y02804*
X03821Y02804*
X03819Y02801*
X03818Y02797*
X03819Y02793*
X03821Y0279*
X03824Y02788*
X03827Y02787*
X03867*
X0387Y02788*
X03874Y0279*
X03876Y02793*
X03876Y02797*
X03876Y02801*
X03874Y02804*
X03873Y02804*
Y0281*
X03874Y0281*
X03876Y02813*
X03876Y02817*
X03876Y0282*
X03874Y02823*
X03873Y02823*
Y02829*
X03874Y02829*
X03876Y02833*
X03876Y02836*
X03876Y0284*
X03875Y02841*
X03877Y02846*
X03983*
X03985Y02842*
X03954Y02811*
X03952Y02808*
X03952Y02804*
Y02722*
X03952Y02722*
Y02702*
X03952Y02699*
X03954Y02696*
X03958Y02694*
X03961Y02693*
X03965Y02694*
X03968Y02696*
X03968Y02696*
X03974*
X03974Y02696*
X03977Y02694*
X03981Y02693*
X03985Y02694*
X03988Y02696*
X03988Y02696*
X03994*
X03994Y02696*
X03997Y02694*
X04001Y02693*
X04004Y02694*
X04007Y02696*
X04012Y02693*
X04013Y02692*
Y0268*
X04015Y02675*
X04127Y02563*
X04125Y02558*
X0384*
X0384Y02558*
X03823Y0256*
X03806Y02565*
X0379Y02573*
X03777Y02585*
X03765Y02598*
X03757Y02614*
X03752Y02631*
X03751Y02644*
X0375Y02649*
X0375Y02652*
X03749Y02652*
Y02954*
X03753Y02956*
X03754*
X03786*
X0379Y02953*
X03791Y02952*
X03792Y02946*
X03795Y02941*
X038Y02938*
X03807Y02937*
X03813Y02938*
X03813Y02939*
X03818Y02935*
X03818Y02935*
X03819Y02931*
X03821Y02928*
X03821Y02928*
Y02922*
X03821Y02922*
X03819Y02919*
X03818Y02915*
X03819Y02911*
X03821Y02908*
X03821Y02908*
Y02902*
X03821Y02902*
X03819Y02899*
X03818Y02895*
X03819Y02892*
X03821Y02889*
X03824Y02886*
X03827Y02886*
X03867*
X0387Y02886*
X03874Y02889*
X03876Y02892*
X03876Y02895*
X03876Y02899*
X03874Y02902*
X03873Y02902*
Y02908*
X03874Y02908*
X03876Y02911*
X03876Y02915*
X03876Y02919*
X03874Y02922*
X03873Y02922*
X03873Y02922*
X03875Y02927*
X03886*
X03889Y02928*
X03892Y02929*
X03892Y0293*
X03893Y02929*
X039Y02928*
X03906Y02929*
X03911Y02932*
X03914Y02937*
X03915Y02944*
X03914Y0295*
X03911Y02955*
X03906Y02958*
X039Y02959*
X03893Y02958*
X03888Y02955*
X03885Y0295*
X03884Y02944*
X03879Y02942*
X03875*
X03873Y02947*
X03873Y02948*
X03874Y02948*
X03876Y02951*
X03876Y02954*
X03876Y02958*
X03874Y02961*
X03873Y02961*
Y02967*
X03874Y02967*
X03876Y0297*
X03876Y02974*
X03876Y02978*
X03874Y02981*
X03873Y02981*
Y02987*
X03874Y02987*
X03876Y0299*
X03876Y02994*
X03876Y02997*
X03874Y03*
X03873Y03001*
Y03007*
X03874Y03007*
X03876Y0301*
X03876Y03013*
X03876Y03017*
X03874Y0302*
X03873Y0302*
Y03026*
X03874Y03026*
X03876Y03029*
X03876Y03033*
X03876Y03037*
X03874Y0304*
X03873Y0304*
Y03046*
X03874Y03046*
X03876Y03049*
X03876Y03053*
X03876Y03056*
X03874Y0306*
X03873Y0306*
Y03066*
X03874Y03066*
X03876Y03069*
X03876Y03072*
X03876Y03076*
X03874Y03079*
X03874Y03081*
X03876Y03084*
X03882*
X03885Y03084*
X03888Y03086*
X03894Y03092*
X03896Y03095*
X03896Y03098*
Y03099*
X03902Y03105*
X03903Y03105*
X03906Y03107*
X03929Y0313*
X03931Y03133*
X03931Y03137*
Y03166*
X03932Y03167*
X03931Y03167*
Y03187*
X03931Y0319*
Y0319*
X03945Y03204*
X03963*
X03966Y03204*
X03969Y03206*
X03995Y03233*
X04014Y03214*
X04019Y0321*
X04026Y03209*
X04035*
X04041Y0321*
X04046Y03214*
X0405Y03219*
X04051Y03226*
X0405Y03232*
X04046Y03237*
X04041Y03241*
X04041Y03246*
X04054*
X04055Y03246*
X0408*
Y03276*
X04031*
Y03276*
X04027Y03273*
X04022Y03272*
X04018Y03269*
X04002*
X04001Y03269*
X03985*
Y03257*
X03984Y03252*
Y03251*
X03985Y03246*
X0396Y03221*
X03942*
X03938Y03221*
X03935Y03219*
X03916Y03199*
X03914Y03197*
X03914Y03193*
Y03191*
X03913Y0319*
X03912Y03187*
Y03168*
X03912Y03167*
Y03141*
X03892Y03121*
X0389Y03118*
X0389Y03117*
X03881Y03109*
X03879Y03106*
X03879Y03103*
Y03102*
X03878Y03101*
X0387*
X03867Y03102*
X03827*
X03824Y03101*
X03821Y03099*
X03819Y03096*
X03818Y03092*
X03819Y03088*
X03821Y03085*
X03821Y03085*
Y03079*
X03821Y03079*
X03819Y03076*
X03818Y03072*
X03819Y03069*
X03821Y03066*
X03821Y03066*
Y0306*
X03821Y0306*
X03819Y03056*
X03818Y03053*
X03819Y03049*
X03821Y03046*
X03821Y03046*
Y0304*
X03821Y0304*
X03819Y03037*
X03818Y03033*
X03819Y03029*
X03821Y03026*
X03821Y03026*
Y0302*
X03821Y0302*
X03819Y03017*
X03818Y03013*
X03819Y0301*
X03821Y03007*
X03821Y03007*
Y03001*
X03821Y03*
X03819Y02997*
X03818Y02994*
X03819Y0299*
X03821Y02987*
X03819Y02983*
X03817Y02981*
X03788*
Y02986*
X03778*
Y03177*
X03954Y03353*
X03957Y03353*
X03963Y03354*
X03968Y03357*
X03971Y03362*
X03972Y03369*
X03971Y03375*
X03971Y03375*
X03973Y0338*
X04007*
X04009Y03376*
X03991Y03358*
X03989Y03354*
X03988Y0335*
Y03347*
X03985Y03346*
X03983Y03345*
X03978Y03346*
X03971Y03345*
X03966Y03342*
X03964Y03337*
X03951*
X03947Y03337*
X03944Y03335*
X03907Y03297*
X03906Y03296*
X03902Y03294*
X03899Y03289*
X03898Y03283*
X03899Y03276*
X03902Y03271*
X03907Y03268*
X03914Y03267*
X0392Y03268*
X03925Y03271*
X03928Y03276*
X03929Y03283*
X03928Y03289*
X03926Y03292*
X03954Y0332*
X03966*
X03966Y03319*
X03971Y03316*
X03978Y03315*
X03979Y03315*
X03984Y03311*
Y03283*
X04014*
Y03288*
X04031*
Y03283*
X0408*
Y03314*
X04031*
Y03311*
X04014*
Y03318*
X04012*
Y03326*
X04012Y03326*
X04031*
Y03321*
X0408*
Y03351*
X04031*
Y03348*
X0402*
X04018Y03353*
X04041Y03376*
X04132*
X04134Y03374*
Y03354*
X04135Y0335*
X04138Y03346*
X04139Y03344*
Y0334*
X04139Y03339*
Y03321*
X04188*
Y03351*
X04164*
X04163Y03353*
X04157Y03359*
Y03402*
X04156Y03406*
X04155Y03407*
Y03466*
X04131*
X04128*
X04106*
X04102*
X0408*
X04076*
X04056*
Y03406*
X0408*
X04083*
X04106*
X04109*
X04125*
X04127Y03401*
X04125Y03399*
X04041*
X0404Y03399*
X04037Y03402*
X04033Y03403*
X03941*
X03884Y0346*
Y03481*
X03885Y03482*
X03892Y03487*
X03897Y03494*
X03899Y03504*
X03897Y03513*
X03892Y0352*
X03885Y03525*
X03876Y03527*
X03866Y03525*
X03859Y0352*
X03854Y03513*
X03849Y03513*
Y03527*
X03802*
Y0348*
X03849*
Y03494*
X03854Y03494*
X03859Y03487*
X03861Y03485*
Y03456*
X03862Y03451*
X03865Y03448*
X03878Y03434*
X03876Y03429*
X03834*
Y03393*
X03776Y03335*
X03774Y03332*
X03774Y0333*
Y03258*
X0377Y03256*
X03767Y03251*
X03766Y03245*
X03767Y03238*
X0377Y03233*
X03775Y0323*
X03782Y03229*
X03788Y0323*
X03793Y03233*
X03796Y03238*
X03797Y03245*
X03796Y03251*
X03793Y03256*
X03789Y03258*
Y03326*
X03834Y03371*
X03838Y03368*
X03836Y03365*
X03834Y03356*
X03836Y03346*
X03841Y03339*
X03848Y03334*
X03852Y03333*
Y03328*
X03848Y03327*
X03841Y03322*
X03836Y03315*
X03834Y03306*
X03836Y03296*
X03841Y03289*
X03848Y03284*
X03855Y03282*
X03857Y03277*
X03765Y03185*
X03763Y03183*
X03763Y0318*
Y02986*
X03754*
X03753*
X03749Y02989*
Y035*
X03749Y035*
X03751Y03517*
X03756Y03534*
X03764Y0355*
X03776Y03563*
X03789Y03575*
X03805Y03583*
X03822Y03588*
X03839Y0359*
X0384Y0359*
G37*
G36*
X04718Y03588D02*
X04735Y03583D01*
X04751Y03575*
X04764Y03563*
X04776Y0355*
X04784Y03534*
X04789Y03517*
X04791Y035*
X04791Y03499*
Y02648*
X04791Y02648*
X04789Y02631*
X04784Y02614*
X04776Y02598*
X04764Y02585*
X04751Y02573*
X04735Y02565*
X04718Y0256*
X04701Y02558*
X047Y02558*
X0465*
X04648Y02563*
X04764Y02679*
X04766Y02684*
Y02782*
X04764Y02786*
X04728Y02822*
X04729Y02824*
X04731Y02834*
X04729Y02843*
X04724Y0285*
X04717Y02855*
X04717Y0286*
X04731*
Y02907*
X04684*
Y0289*
X04641*
X04636Y02888*
X04627Y02879*
X04625Y02875*
Y02821*
X04605Y02801*
X04462*
X04462Y02806*
Y02806*
Y02847*
X0448Y02866*
X04481Y02869*
X04486Y02869*
X04548*
Y029*
X04557*
X04577Y0288*
Y02859*
X04611*
Y02889*
X04586*
X04564Y02911*
X04559Y02913*
X04548*
Y02923*
X0452*
Y02955*
X04522Y02957*
X04522Y02961*
Y02978*
X04522Y02982*
X0452Y02984*
X04517Y02986*
X04514Y02987*
X04511Y02986*
X04508Y02984*
X04507Y02983*
X04506Y02983*
X04502*
X04501Y02983*
X045Y02984*
X04497Y02986*
X04494Y02987*
X04491Y02986*
X04488Y02984*
X04486Y02982*
X04486Y02978*
Y02961*
X04486Y02957*
X04488Y02955*
Y02936*
X04471Y02919*
X04469Y02914*
Y02873*
X04456Y0286*
X04399*
Y02846*
X04364*
X04363Y02845*
X04337*
Y02815*
X04372*
Y02833*
X04399*
Y02806*
Y02806*
X04399Y02801*
X0435*
X04345Y02799*
X04333Y02787*
X04322*
X0432Y02792*
X0432Y02793*
X04321Y02797*
X0432Y02801*
X04318Y02804*
X04318Y02804*
Y0281*
X04318Y0281*
X0432Y02813*
X04321Y02817*
X0432Y0282*
X04318Y02823*
X04318Y02823*
Y02829*
X04318Y02829*
X0432Y02833*
X04321Y02836*
X0432Y0284*
X04318Y02843*
X04318Y02843*
Y02849*
X04318Y02849*
X0432Y02852*
X04321Y02856*
X0432Y0286*
X04318Y02863*
X04318Y02863*
Y02869*
X04318Y02869*
X0432Y02872*
X04321Y02876*
X0432Y02879*
X04318Y02882*
X04321Y02887*
X04323Y02889*
X04335*
X0434Y02891*
X04406Y02957*
X04424*
X04426Y02952*
X04426Y02951*
X04424Y02951*
X04421Y02946*
X0442Y0294*
X04421Y02933*
X04424Y02928*
X04429Y02925*
X04436Y02924*
X04442Y02925*
X04447Y02928*
X0445Y02933*
X04451Y0294*
X0445Y02945*
X04458Y02953*
X04461Y02955*
X04463Y02957*
X04463Y02961*
Y02978*
X04463Y02982*
X04461Y02984*
X04458Y02986*
X04455Y02987*
X04452Y02986*
X04449Y02984*
X04448Y02983*
X04447Y02983*
X04443*
X04442Y02983*
X04441Y02984*
X04438Y02986*
X04435Y02987*
X04432Y02986*
X04429Y02984*
X04427Y02982*
X04427Y02978*
Y0297*
X04403*
X04399Y02968*
X04385Y02954*
X04385Y02954*
X0438Y02956*
X04379Y02961*
X04376Y02966*
X04373Y02967*
X04373Y02973*
X04375Y02974*
X04378Y02979*
X04378Y02981*
X04379Y02981*
X04392Y02994*
X04393Y02994*
X04411*
X04414Y02995*
X04417Y02997*
X04418Y03*
X04419Y03003*
X04418Y03006*
X04417Y03009*
X04415Y0301*
X04415Y03011*
Y03015*
X04415Y03016*
X04417Y03017*
X04418Y03019*
X04419Y03023*
X04418Y03026*
X04417Y03029*
X04415Y0303*
X04415Y03031*
Y03034*
X04415Y03035*
X04417Y03036*
X04418Y03039*
X04419Y03042*
X04418Y03046*
X04417Y03048*
X04415Y03049*
X04415Y0305*
Y03054*
X04415Y03055*
X04417Y03056*
X04418Y03059*
X04419Y03062*
X04418Y03065*
X04417Y03068*
X04415Y03069*
X04415Y0307*
Y03074*
X04415Y03075*
X04417Y03076*
X04418Y03078*
X04419Y03082*
X04418Y03085*
X04417Y03088*
X04414Y0309*
X04411Y0309*
X04393*
X0439Y0309*
X04387Y03088*
X04364*
X04362Y03087*
X04361Y03087*
X04357Y0309*
X04357Y0309*
Y03182*
X04447Y03272*
X04589*
X04593Y03274*
X04632Y03313*
X04634Y03318*
Y03361*
X04639Y03364*
X04648Y03361*
X04662Y03359*
X04675Y03361*
X04687Y03366*
X04697Y03374*
X04705Y03384*
X0471Y03396*
X04712Y0341*
X0471Y03423*
X04705Y03435*
X04697Y03445*
X04687Y03453*
X04675Y03458*
X04662Y0346*
X04648Y03458*
X04636Y03453*
X04626Y03445*
X0462Y03438*
X04615Y0344*
Y03462*
X04613Y03467*
X04604Y03476*
X04604Y03477*
X04606Y03485*
X04604Y03492*
X04605Y03492*
X04609Y03494*
X04628Y03475*
X04631Y03473*
X04634Y03473*
X04712*
X04724Y03461*
X04723Y03457*
X04724Y0345*
X04727Y03445*
X04732Y03442*
X04739Y03441*
X04745Y03442*
X0475Y03445*
X04753Y0345*
X04754Y03457*
X04753Y03463*
X0475Y03468*
X04745Y03471*
X04739Y03472*
X04734Y03471*
X0472Y03486*
X04718Y03487*
X04715Y03488*
X04692*
X0469Y03493*
X04697Y03499*
X04705Y03509*
X0471Y03521*
X04712Y03535*
X0471Y03548*
X04705Y0356*
X04697Y0357*
X04687Y03578*
X04675Y03583*
X04664Y03585*
X04665Y0359*
X04701*
X04701Y0359*
X04718Y03588*
G37*
G36*
X03929Y03384D02*
D01*
X03932Y03381*
X03937Y0338*
X0394*
X03942Y03375*
X03942Y03375*
X03941Y03369*
X03942Y03362*
X03942Y03362*
X03886Y03306*
X03881Y03308*
X03879Y03315*
X03874Y03322*
X03867Y03327*
X03863Y03328*
Y03333*
X03867Y03334*
X03874Y03339*
X03879Y03346*
X03881Y03356*
X03879Y03365*
X03874Y03372*
X03867Y03377*
X03867Y03382*
X03881*
Y03424*
X03886Y03426*
X03929Y03384*
G37*
G36*
X04298Y03226D02*
X04298Y03225D01*
X04301Y0322*
X04306Y03217*
X04313Y03216*
X04319Y03217*
X04324Y0322*
X04327Y03225*
X04327Y03226*
X04359*
X04361Y03221*
X04313Y03173*
X04227*
Y03187*
X04226Y0319*
X04224Y03193*
X04224Y03194*
X04226Y03198*
X0426*
X04265Y032*
X04292Y03228*
X04298Y03226*
G37*
G36*
X04344Y03179D02*
Y03091D01*
X04318Y03065*
X04314Y03064*
X04313Y03062*
X04312Y03062*
X04272*
X04269Y03062*
X04265Y0306*
X04263Y03056*
X04263Y03053*
X04263Y03049*
X04265Y03046*
X04266Y03046*
Y0304*
X04265Y0304*
X04263Y03037*
X04263Y03033*
X04263Y03029*
X04265Y03026*
X04266Y03026*
Y0302*
X04265Y0302*
X04263Y03017*
X04263Y03013*
X04263Y0301*
X04265Y03007*
X04266Y03007*
X04266Y03006*
X04264Y03001*
X04194*
X04191Y03001*
X04188Y02999*
X04052Y02863*
X04048Y02864*
X04041Y02863*
X04036Y0286*
X04033Y02855*
X04032Y02849*
X04033Y02842*
X04036Y02837*
X04041Y02834*
X04048Y02833*
X04053Y02834*
X04055Y02832*
X04057Y0283*
X04057Y02828*
X04058Y02821*
X04061Y02816*
X04066Y02813*
X04073Y02812*
X04079Y02813*
X04084Y02816*
X04087Y02821*
X04088Y02828*
X04088Y02831*
X04225Y02968*
X04265*
X04265Y02967*
X04266Y02967*
Y02961*
X04265Y02961*
X04263Y02958*
X04263Y02954*
X04263Y02951*
X04265Y02948*
X04266Y02948*
Y02941*
X04265Y02941*
X04263Y02938*
X04263Y02935*
X04263Y02931*
X04265Y02928*
X04266Y02928*
Y02922*
X04265Y02922*
X04263Y02919*
X04263Y02915*
X04263Y02911*
X04265Y02908*
X04266Y02908*
Y02902*
X04265Y02902*
X04263Y02899*
X04263Y02895*
X04263Y02892*
X04265Y02889*
X04266Y02888*
Y02882*
X04265Y02882*
X04263Y02879*
X04263Y02876*
X04263Y02872*
X04265Y02869*
X04266Y02869*
Y02863*
X04265Y02863*
X04263Y0286*
X04263Y02856*
X04263Y02852*
X04265Y02849*
X04266Y02849*
Y02843*
X04265Y02843*
X04263Y0284*
X04263Y02836*
X04263Y02833*
X04265Y02829*
X04266Y02829*
Y02823*
X04265Y02823*
X04263Y0282*
X04263Y02817*
X04263Y02813*
X04265Y0281*
X04266Y0281*
Y02804*
X04265Y02804*
X04263Y02801*
X04263Y02797*
X04263Y02793*
X04264Y02792*
X04262Y02787*
X0402*
X04015Y02785*
X03981Y02751*
X03981Y02751*
X03977Y02751*
X03976Y0275*
X03971Y02752*
Y028*
X04025Y02854*
X04027Y02857*
X04067Y02897*
X04069Y02897*
X04075Y02898*
X0408Y02901*
X04083Y02906*
X04083Y02908*
X04258Y03082*
X04292*
X04293Y03083*
X04312*
X04315Y03083*
X04318Y03085*
X0432Y03088*
X04321Y03092*
X0432Y03096*
X04318Y03099*
X04315Y03101*
X04312Y03102*
X04292*
X04292Y03102*
X04291Y03102*
X04254*
X0425Y03101*
X04247Y03099*
X0418Y03032*
X04175Y03033*
X04174Y03036*
X04171Y03041*
X04166Y03044*
X04165Y03044*
Y03099*
X04166Y031*
X04173Y03099*
X04173Y03098*
X04178Y03095*
X04185Y03094*
X04191Y03095*
X04196Y03098*
X04199Y03103*
X042Y0311*
X04199Y03116*
X04196Y03121*
X04191Y03124*
X04189Y03124*
Y03129*
X04187Y03134*
X04185Y03136*
X04185Y03136*
X04187Y03138*
X04191Y0314*
X04194Y03138*
X04197Y03138*
X04201Y03138*
X04204Y0314*
X04204Y03141*
X0421*
X0421Y0314*
X04213Y03138*
X04217Y03138*
X04221Y03138*
X04224Y0314*
X04226Y03144*
X04227Y03147*
Y0316*
X04316*
X04321Y03162*
X04339Y03181*
X04344Y03179*
G37*
G36*
X04261Y02981D02*
X04261Y02981D01*
X04223*
X04218Y02979*
X0408Y02841*
X04079Y02842*
X04073Y02843*
X04067Y02842*
X04065Y02844*
X04063Y02846*
X04063Y02849*
X04063Y02852*
X04197Y02986*
X04258*
X04261Y02981*
G37*
G36*
X04398Y02758D02*
X04398Y02755D01*
X04399Y02754*
X04395Y0275*
X04394Y02751*
X04391Y02751*
X04374*
X04371Y02751*
X04368Y02749*
X04367Y02747*
X04366Y02744*
X04367Y02741*
X04368Y02739*
X04368Y02739*
Y02733*
X04368Y02733*
X04367Y02731*
X04366Y02728*
X04367Y02725*
X04368Y02723*
X04368Y02723*
Y02718*
X04368Y02717*
X04367Y02715*
X04366Y02712*
X04367Y02709*
X04368Y02708*
X04368Y02707*
Y02702*
X04368Y02701*
X04367Y027*
X04366Y02697*
X04367Y02694*
X04368Y02692*
X04368Y02691*
Y02686*
X04368Y02686*
X04367Y02684*
X04366Y02681*
X04367Y02678*
X04368Y02676*
X04368Y02676*
Y0267*
X04368Y0267*
X04367Y02668*
X04366Y02665*
X04367Y02662*
X04368Y0266*
X04371Y02658*
X04374Y02658*
X04391*
X04394Y02658*
X04395Y02659*
X04399Y02655*
X04398Y02654*
X04398Y02651*
Y02634*
X04398Y02631*
X044Y02628*
X04402Y02627*
X04405Y02626*
X04408Y02627*
X04409Y02628*
X04413Y02626*
X04414Y02625*
Y02617*
X04394*
Y02582*
X04409*
X0441Y02578*
X04411Y02577*
X04408Y02572*
X04136*
X04026Y02682*
Y02695*
X04027Y02696*
X04027Y02696*
X04033*
X04033Y02696*
X04036Y02694*
X0404Y02693*
X04044Y02694*
X04047Y02692*
X04048Y02689*
X04046Y02686*
X04045Y0268*
X04046Y02674*
X0405Y02669*
X04055Y02666*
X04061Y02665*
X04067Y02666*
X04072Y02669*
X04075Y02674*
X04077Y0268*
X04075Y02686*
X04074Y02689*
X04074Y0269*
X04077Y02693*
X04079Y02693*
X04083Y02694*
X04086Y02696*
X04086Y02696*
X04092*
X04092Y02696*
X04095Y02694*
X04099Y02693*
X04103Y02694*
X04106Y02696*
X04106Y02696*
X04112*
X04112Y02696*
X04115Y02694*
X04119Y02693*
X04122Y02694*
X04125Y02696*
X04126Y02696*
X04132*
X04132Y02696*
X04135Y02694*
X04138Y02693*
X04142Y02694*
X04145Y02696*
X04145Y02696*
X04151*
X04151Y02696*
X04154Y02694*
X04158Y02693*
X04162Y02694*
X04165Y02696*
X04165Y02696*
X04171*
X04171Y02696*
X04174Y02694*
X04178Y02693*
X04181Y02694*
X04185Y02696*
X04187Y02699*
X04187Y02702*
Y02742*
X04187Y02745*
X04186Y02746*
X04189Y02751*
X04206*
X04209Y02746*
X04208Y02745*
X04208Y02742*
Y02702*
X04208Y02699*
X0421Y02696*
X04213Y02694*
X04217Y02693*
X04221Y02694*
X04224Y02696*
X04226Y02699*
X04227Y02702*
Y0272*
X04232Y02724*
X04235Y02724*
X04241Y02725*
X04246Y02728*
X04249Y02733*
X04249Y02734*
X04255Y02736*
X04264Y02727*
X04266Y02725*
X04269Y02725*
X04321*
X04325Y0272*
X04325Y02718*
X04326Y02711*
X04329Y02706*
X04334Y02703*
X04341Y02702*
X04347Y02703*
X04352Y02706*
X04355Y02711*
X04356Y02718*
X04355Y02724*
X04352Y02729*
X04348Y02731*
X04347Y02737*
X0437Y0276*
X04398*
Y02758*
G37*
G36*
X04684Y0286D02*
X04698D01*
X04698Y02855*
X04691Y0285*
X04686Y02843*
X04684Y02834*
X04686Y02824*
X04691Y02817*
X04698Y02812*
X04702Y02811*
Y02806*
X04698Y02805*
X04691Y028*
X04686Y02793*
X04684Y02784*
X04686Y02774*
X04691Y02767*
X04698Y02762*
X04702Y02761*
Y02756*
X04698Y02755*
X04691Y0275*
X04686Y02743*
X04684Y02734*
X04686Y02724*
X04691Y02717*
X04698Y02712*
X04708Y0271*
X04717Y02712*
X04724Y02717*
X04729Y02724*
X04731Y02734*
X04729Y02743*
X04724Y0275*
X04717Y02755*
X04713Y02756*
Y02761*
X04717Y02762*
X04724Y02767*
X04729Y02774*
X04731Y02784*
X04729Y02793*
X04724Y028*
X04717Y02805*
X04713Y02806*
Y02811*
X04717Y02812*
X04719Y02813*
X04753Y02779*
Y02686*
X04639Y02572*
X04454*
X04454Y02572*
X04451Y02577*
X04451Y02577*
Y02579*
X04454Y02582*
X04456*
X04485*
Y02617*
X04463*
X04459Y02621*
Y0263*
X04459Y02631*
X0446Y02634*
Y02651*
X04459Y02654*
X04458Y02657*
X04455Y02658*
X04452Y02659*
X04449Y02658*
X04448Y02657*
X04447Y02657*
X04442*
X04441Y02657*
X0444Y02658*
X04437Y02659*
X04434Y02658*
X04431Y02657*
X04426*
X04424Y02658*
X04421Y02659*
X04418Y02658*
X04416Y02657*
X04416Y02657*
X0441*
X0441Y02657*
X04408Y02658*
X04405Y02659*
X04402Y02658*
X04401Y02658*
X04398Y02661*
X04398Y02662*
X04399Y02665*
X04398Y02668*
X04397Y0267*
X04397Y0267*
Y02676*
X04397Y02676*
X04398Y02678*
X04399Y02681*
X04398Y02684*
X04397Y02686*
X04397Y02686*
Y02691*
X04397Y02692*
X04398Y02694*
X04399Y02697*
X04398Y027*
X04397Y02701*
X04397Y02702*
Y02707*
X04397Y02708*
X04398Y02709*
X04399Y02712*
X04398Y02715*
X04397Y02717*
X04397Y02718*
Y02723*
X04397Y02723*
X04398Y02725*
X04399Y02728*
X04398Y02731*
X04397Y02733*
X04397Y02733*
Y02739*
X04397Y02739*
X04398Y02741*
X04399Y02744*
X04398Y02747*
X04398Y02748*
X04401Y02751*
X04402Y02751*
X04405Y0275*
X04408Y02751*
X0441Y02752*
X04416*
X04418Y02751*
X04421Y0275*
X04424Y02751*
X04426Y02752*
X04431*
X04434Y02751*
X04437Y0275*
X0444Y02751*
X04441Y02752*
X04442Y02752*
X04447*
X04448Y02752*
X04449Y02751*
X04452Y0275*
X04455Y02751*
X04458Y02752*
X04459Y02755*
X0446Y02758*
Y02775*
X04459Y02778*
X04458Y02781*
X04455Y02782*
X04452Y02783*
X04449Y02782*
X04448Y02781*
X04447Y02781*
X04442*
X04441Y02781*
X0444Y02782*
X04439Y02783*
X04444Y02788*
X04608*
X04612Y0279*
X04636Y02814*
X04638Y02819*
Y02872*
X04643Y02877*
X04684*
Y0286*
G37*
%LNcore_prototype_1-2*%
%LPC*%
G36*
X04462Y0346D02*
X04448Y03458D01*
X04436Y03453*
X04426Y03445*
X04418Y03435*
X04413Y03423*
X04411Y0341*
X04413Y03396*
X04418Y03384*
X04426Y03374*
X04436Y03366*
X04448Y03361*
X04462Y03359*
X04475Y03361*
X04487Y03366*
X04497Y03374*
X04505Y03384*
X0451Y03396*
X04512Y0341*
X0451Y03423*
X04505Y03435*
X04497Y03445*
X04487Y03453*
X04475Y03458*
X04462Y0346*
G37*
G36*
X04165Y03577D02*
X04099D01*
Y03508*
X04165*
Y03577*
G37*
G36*
X04086D02*
X0402D01*
Y03508*
X04086*
Y03577*
G37*
G36*
X04231Y03577D02*
X0423Y03577D01*
X04183*
X04181Y03576*
X04179Y03573*
Y03512*
X04181Y03509*
X04183Y03508*
X0423*
X04231Y03508*
X04239Y0351*
X04246Y03514*
X0425Y03521*
X04252Y0353*
Y03555*
X0425Y03564*
X04246Y03571*
X04239Y03575*
X04231Y03577*
G37*
G36*
X03955D02*
X03947Y03575D01*
X0394Y03571*
X03935Y03564*
X03933Y03555*
Y0353*
X03935Y03521*
X0394Y03514*
X03947Y0351*
X03955Y03508*
X03956Y03508*
X04002*
X04005Y03509*
X04006Y03512*
Y03573*
X04005Y03576*
X04002Y03577*
X03956*
X03955Y03577*
G37*
G36*
X04197Y03459D02*
X04185D01*
X04177Y03457*
X04169Y03452*
X04164Y03445*
X04163Y03436*
X04164Y03428*
X04169Y0342*
X04177Y03415*
X04185Y03414*
X04197*
X04206Y03415*
X04213Y0342*
X04218Y03428*
X0422Y03436*
X04218Y03445*
X04215Y0345*
X04215Y0345*
X04214Y0345*
X04213Y03452*
X04206Y03457*
X04197Y03459*
G37*
G36*
X04D02*
X03988D01*
X0398Y03457*
X03972Y03452*
X03967Y03445*
X03966Y03436*
X03967Y03428*
X03972Y0342*
X0398Y03415*
X03988Y03414*
X04*
X04009Y03415*
X04016Y0342*
X04018Y03423*
X04021Y03424*
X04022Y03425*
X04023Y03428*
Y03447*
X04022Y0345*
X04019Y03451*
X04017*
X04016Y03452*
X04009Y03457*
X04Y03459*
G37*
G36*
X04263Y03293D02*
X04256Y03292D01*
X04251Y03289*
X04248Y03284*
X04248Y03283*
X04241Y03276*
X0422*
X04219Y03276*
X04201*
Y03275*
X04188*
Y03276*
X04139*
Y03246*
X04188*
Y03247*
X04201*
Y03246*
X04236*
Y03249*
X04247*
X04252Y0325*
X04256Y03253*
X04266Y03262*
X04269Y03263*
X04274Y03266*
X04277Y03271*
X04278Y03278*
X04277Y03284*
X04274Y03289*
X04269Y03292*
X04263Y03293*
G37*
G36*
X03981Y03196D02*
X03977Y03195D01*
X03974Y03193*
X03974Y03193*
X03968*
X03968Y03193*
X03965Y03195*
X03961Y03196*
X03958Y03195*
X03954Y03193*
X03952Y0319*
X03952Y03187*
Y03147*
X03952Y03144*
X03954Y0314*
X03958Y03138*
X03961Y03138*
X03965Y03138*
X03968Y0314*
X03968Y03141*
X03974*
X03974Y0314*
X03977Y03138*
X03981Y03138*
X03985Y03138*
X03988Y0314*
X0399Y03144*
X03991Y03147*
Y03187*
X0399Y0319*
X03988Y03193*
X03985Y03195*
X03981Y03196*
G37*
G36*
X03922Y02751D02*
X03918Y02751D01*
X03915Y02749*
X03913Y02745*
X03912Y02742*
Y02702*
X03913Y02699*
X03915Y02696*
X03918Y02694*
X03922Y02693*
X03926Y02694*
X03929Y02696*
X03931Y02699*
X03931Y02702*
Y02742*
X03931Y02745*
X03929Y02749*
X03926Y02751*
X03922Y02751*
G37*
G36*
X03925Y02662D02*
X03858D01*
Y02595*
X03925*
Y02662*
G37*
G36*
X03992Y02662D02*
X03983Y02661D01*
X03975Y02657*
X03968Y02652*
X03963Y02645*
X03959Y02637*
X03958Y02629*
X03959Y0262*
X03963Y02612*
X03968Y02605*
X03975Y026*
X03983Y02596*
X03992Y02595*
X04Y02596*
X04008Y026*
X04015Y02605*
X0402Y02612*
X04024Y0262*
X04025Y02629*
X04024Y02637*
X0402Y02645*
X04015Y02652*
X04008Y02657*
X04Y02661*
X03992Y02662*
G37*
G36*
X04507Y03193D02*
X04472D01*
Y03175*
X04468Y03171*
X04466Y03168*
X04466Y03165*
Y0314*
X04461Y03138*
X0446Y03139*
Y03143*
X04458Y03147*
X04454Y03151*
Y03177*
X04424*
Y03142*
X04445*
X04447Y0314*
Y03135*
X04448Y03133*
Y03129*
X04447Y03127*
X04446Y03124*
Y03106*
X04447Y03103*
X04449Y031*
X04452Y03098*
X04455Y03098*
X04458Y03098*
X04461Y031*
X04462Y03102*
X04463Y03102*
X04466*
X04467Y03102*
X04468Y031*
X04471Y03098*
X04475Y03098*
X04478Y03098*
X04481Y031*
X04482Y03103*
X04483Y03106*
Y03115*
X04483Y03115*
Y03158*
X04488Y03158*
X04489Y03154*
X04492Y03149*
X04497Y03146*
X04504Y03145*
X04507Y03145*
X04509Y03142*
X04509Y03141*
X04508Y03136*
Y0313*
X04506Y03127*
X04505Y03124*
Y03106*
X04506Y03103*
X04508Y031*
X04511Y03098*
X04514Y03098*
X04517Y03098*
X0452Y031*
X04522Y03103*
X04522Y03106*
Y03124*
X04522Y03127*
X04521Y03129*
Y03134*
X04531Y03145*
X04555*
Y03175*
X0452*
Y03172*
X04515Y03171*
X04515Y03172*
X0451Y03175*
X04507Y03176*
Y03193*
G37*
G36*
X04611Y0311D02*
X04577D01*
Y03095*
X04577Y03095*
X0457Y03094*
X04565Y03091*
X04564Y03089*
X0456*
X04559Y0309*
X04556Y0309*
X04538*
X04535Y0309*
X04532Y03088*
X04531Y03085*
X0453Y03082*
X04531Y03078*
X04532Y03076*
X04535Y03074*
X04538Y03073*
X04556*
X04557Y03073*
X04562Y03073*
X04565Y03068*
X0457Y03065*
X04577Y03064*
X04583Y03065*
X04588Y03068*
X04591Y03073*
X04592Y0308*
X04592Y0308*
X04611*
Y0311*
G37*
G36*
X04699Y03074D02*
X04651D01*
Y03057*
X04645*
Y03063*
X04628*
Y03034*
Y03034*
Y03029*
X04623*
X04605*
Y03034*
Y03034*
Y03063*
X04588*
Y0305*
X04559*
X04556Y03051*
X04538*
X04535Y0305*
X04532Y03048*
X04531Y03046*
X0453Y03042*
X04531Y03039*
X04532Y03036*
X04534Y03035*
X04534Y03034*
Y03031*
X04534Y0303*
X04532Y03029*
X04531Y03026*
X0453Y03023*
X04531Y03019*
X04532Y03017*
X04534Y03016*
X04534Y03015*
Y03011*
X04534Y0301*
X04532Y03009*
X04531Y03006*
X0453Y03003*
X04531Y03*
X04532Y02997*
X04535Y02995*
X04538Y02994*
X04556*
X04577Y02973*
Y02954*
X04611*
Y02956*
X04627*
Y02942*
X04662*
Y02972*
X04627*
Y02971*
X04615*
X04613Y02976*
X04622Y02985*
X04624Y02987*
X04624Y0299*
Y02997*
X04628Y03001*
X0463*
X04645*
Y03029*
Y03029*
Y03034*
Y03034*
Y03044*
X04651*
Y03027*
X04699*
Y03074*
G37*
G36*
X04693Y02962D02*
X04687Y02961D01*
X04682Y02958*
X04679Y02953*
X04678Y02947*
X04678Y02944*
X04666Y02931*
X04662Y02933*
X04627*
Y02903*
X04662*
Y02909*
X04664*
X04668Y02909*
X0467Y02911*
X0469Y02931*
X04693Y02931*
X04699Y02932*
X04704Y02935*
X04708Y0294*
X04709Y02947*
X04708Y02953*
X04704Y02958*
X04699Y02961*
X04693Y02962*
G37*
G36*
X04484Y02783D02*
X04481Y02782D01*
X04479Y02781*
X04477Y02778*
X04476Y02775*
Y02758*
X04477Y02755*
X04479Y02752*
X04481Y02751*
X04484Y0275*
X04487Y02751*
X04489Y02752*
X04491Y02755*
X04491Y02758*
Y02775*
X04491Y02778*
X04489Y02781*
X04487Y02782*
X04484Y02783*
G37*
G36*
X04515Y02736D02*
X04498D01*
X04495Y02735*
X04492Y02733*
X04491Y02731*
X0449Y02728*
X04491Y02725*
X04492Y02723*
X04492Y02723*
Y02718*
X04492Y02717*
X04491Y02715*
X0449Y02712*
X04491Y02709*
X04492Y02708*
X04492Y02707*
Y02702*
X04492Y02701*
X04491Y027*
X0449Y02697*
X04491Y02694*
X04492Y02692*
X04492Y02691*
Y02686*
X04492Y02686*
X04491Y02684*
X0449Y02681*
X04491Y02678*
X04492Y02676*
X04492Y02676*
Y0267*
X04492Y0267*
X04491Y02668*
X0449Y02665*
X04491Y02662*
X04491Y02661*
X04488Y02658*
X04487Y02658*
X04484Y02659*
X04481Y02658*
X04479Y02657*
X04477Y02654*
X04476Y02651*
Y02634*
X04477Y02631*
X04479Y02628*
X04481Y02627*
X04484Y02626*
X04487Y02627*
X04489Y02628*
X0449Y02629*
X04503*
X04503Y02628*
X04508Y02625*
X04515Y02624*
X04521Y02625*
X04526Y02628*
X04529Y02633*
X0453Y0264*
X04529Y02646*
X04526Y02651*
X04521Y02654*
X04521Y02656*
X04522Y02659*
X04533*
X04537Y02661*
X04541Y02665*
X04555*
X04555Y02663*
X04558Y02658*
X04563Y02655*
X0457Y02654*
X04576Y02655*
X04581Y02658*
X04584Y02663*
X04585Y0267*
X04584Y02676*
X04581Y02681*
X04576Y02684*
X0457Y02685*
X04567Y02688*
Y02695*
X04532*
Y02674*
X0453Y02672*
X04524*
X04523Y02673*
X04521Y02677*
X04522Y02678*
X04523Y02681*
X04522Y02684*
X04521Y02686*
X04521Y02686*
Y02691*
X04521Y02692*
X04522Y02694*
X04523Y02697*
X04522Y027*
X04521Y02701*
X04521Y02702*
Y02707*
X04521Y02708*
X04522Y02709*
X04523Y02712*
X04522Y02715*
X04521Y02717*
X04521Y02718*
Y02723*
X04521Y02723*
X04522Y02725*
X04523Y02728*
X04522Y02731*
X04521Y02733*
X04518Y02735*
X04515Y02736*
G37*
%LNcore_prototype_1-3*%
%LPD*%
G54D13*
X0425Y0322D02*
X04261Y03231D01*
X0423Y0322D02*
X0425D01*
X04226Y03216D02*
X0423Y0322D01*
X04128Y03216D02*
X04226D01*
X04641Y02884D02*
X04708D01*
X04632Y02819D02*
Y02875D01*
X04641Y02884*
X04593Y02833D02*
X04594Y02835D01*
X04517Y02833D02*
X04593D01*
X04428Y02896D02*
X04431D01*
X04396Y02929D02*
X04428Y02896D01*
X04335Y02895D02*
X04403Y02963D01*
X04292Y02895D02*
X04335D01*
X04403Y02963D02*
X04433D01*
X04376Y02869D02*
X04382Y02875D01*
X04409*
X04431Y02896*
X04355Y02869D02*
X04376D01*
X04456Y02921D02*
X04475Y0294D01*
X04456Y02917D02*
Y02921D01*
X04434Y02896D02*
X04456Y02917D01*
X04431Y02896D02*
X04434D01*
X04476Y02871D02*
Y02914D01*
X04494Y02933*
Y0297*
X04475Y0294D02*
Y0297D01*
X04324Y03131D02*
X04335Y0312D01*
X04322Y03131D02*
X04324D01*
X04335Y03095D02*
Y0312D01*
X04312Y03072D02*
X04335Y03095D01*
X04292Y03072D02*
X04312D01*
X04351Y03089D02*
Y03185D01*
X04321Y03059D02*
X04351Y03089D01*
Y03185D02*
X04445Y03279D01*
X04313Y03053D02*
X04319Y03059D01*
X04321*
X04292Y03053D02*
X04313D01*
X04316Y03167D02*
X04438Y03289D01*
X04369Y03233D02*
X04444Y03308D01*
X04445Y03279D02*
X04589D01*
X04313Y03232D02*
X04314Y03233D01*
X04438Y03289D02*
X04523D01*
X04217Y03167D02*
X04316D01*
X04444Y03308D02*
X04448D01*
X04314Y03233D02*
X04369D01*
X0457Y0331D02*
Y03362D01*
X04587Y03379*
Y03385*
X0426Y03205D02*
X04297Y03241D01*
X04176Y03205D02*
X0426D01*
X04297Y03241D02*
Y03393D01*
X04303Y034*
X04342*
X04158Y03187D02*
X04176Y03205D01*
X04223Y02975D02*
X04291D01*
X04292Y02974*
X04076Y02828D02*
X04223Y02975D01*
X04073Y02828D02*
X04076D01*
X04561Y03409D02*
X04587Y03435D01*
X04561Y03326D02*
Y03409D01*
X04609Y03388D02*
Y03462D01*
Y03388D02*
X04628Y03369D01*
X04523Y03289D02*
X04561Y03326D01*
X04158Y03167D02*
Y03187D01*
X04099D02*
X04128Y03216D01*
X04099Y03167D02*
Y03187D01*
X04587Y03485D02*
X04609Y03462D01*
X04628Y03318D02*
Y03369D01*
X04589Y03279D02*
X04628Y03318D01*
X04333Y0305D02*
X04364Y03082D01*
X04357Y03063D02*
X04401D01*
X04342Y03047D02*
X04357Y03063D01*
X04333Y02956D02*
Y0305D01*
X04364Y03082D02*
X04402D01*
X04448Y02843D02*
X04476Y02871D01*
X04514Y03136D02*
X04538Y0316D01*
X04514Y03115D02*
Y03136D01*
X04514Y03115D02*
X04514Y03115D01*
X04538Y0316D02*
X0454D01*
X04365Y03045D02*
X04366Y03043D01*
X04342Y02945D02*
Y03047D01*
X0402Y02781D02*
X04336D01*
X0435Y02795*
X03981Y02742D02*
X0402Y02781D01*
X03981Y02722D02*
Y02742D01*
X04364Y02986D02*
X04374D01*
X04391Y03003*
X04138Y03167D02*
Y03187D01*
X04183Y03111D02*
Y03129D01*
X04178Y03134D02*
X04183Y03129D01*
X04178Y03134D02*
Y03167D01*
X04183Y03111D02*
X04185Y0311D01*
X04342Y02945D02*
X0435D01*
X04359Y02955*
X04365*
X04159Y0303D02*
Y03166D01*
X04158Y03167D02*
X04159Y03166D01*
Y0303D02*
X0416Y0303D01*
X04139Y0311D02*
X0414Y0311D01*
X04139Y0311D02*
Y03166D01*
X04638Y03051D02*
X04675D01*
X04636Y03049D02*
X04638Y03051D01*
X04608Y02795D02*
X04632Y02819D01*
X04417Y02795D02*
X04608D01*
X0406Y02689D02*
Y02722D01*
Y02689D02*
X04061Y02688D01*
Y0268D02*
Y02688D01*
X04138Y03167D02*
X04139Y03166D01*
X04708Y02834D02*
X0476Y02782D01*
Y02684D02*
Y02782D01*
X04641Y02565D02*
X0476Y02684D01*
X04433Y02565D02*
X04641D01*
X04433D02*
X04445Y02577D01*
X04391Y03003D02*
X04402D01*
X04378Y03023D02*
X04402D01*
X04365Y03015D02*
X0437D01*
X04378Y03023*
X04366Y03043D02*
X04401D01*
X04402Y03042*
X0402Y0268D02*
X04134Y02565D01*
X04433*
X04445Y02577D02*
Y026D01*
X04437Y02608D02*
X04445Y026D01*
X04437Y02608D02*
Y02642D01*
X04431Y02843D02*
X04448D01*
X0451Y02635D02*
X04515Y0264D01*
X04485Y02635D02*
X0451D01*
X04484Y02637D02*
X04485Y02635D01*
X04484Y02637D02*
Y02642D01*
X04452Y02619D02*
X0447Y02601D01*
X04452Y02619D02*
Y02642D01*
X0447Y026D02*
Y02601D01*
X0435Y02795D02*
X04417D01*
X04437Y02775*
Y02767D02*
Y02775D01*
X0452Y02886D02*
X04537D01*
X04499Y02907D02*
X0452Y02886D01*
X0402Y0268D02*
Y02721D01*
X0402Y02722*
X04507Y02665D02*
X04533D01*
X04548Y0268*
X04421Y02613D02*
Y02642D01*
X04409Y02601D02*
X04421Y02613D01*
X04409Y026D02*
Y02601D01*
X04548Y0268D02*
X0455D01*
X04426Y02839D02*
X04431Y02843D01*
X04355Y0283D02*
X04364Y02839D01*
X04426*
X04312Y02915D02*
X04342Y02945D01*
X04312Y02935D02*
X04333Y02956D01*
X04401Y03063D02*
X04402Y03062D01*
X04292Y02915D02*
X04312D01*
X04292Y02935D02*
X04312D01*
X04435Y02965D02*
Y0297D01*
X04433Y02963D02*
X04435Y02965D01*
X04517Y02906D02*
X04559D01*
X04592Y02874*
X04594*
X04514Y0291D02*
Y0297D01*
Y0291D02*
X04517Y02906D01*
X04586Y02977D02*
X04594Y0297D01*
X04582Y02977D02*
X04586D01*
X04556Y03003D02*
X04582Y02977D01*
X04547Y03003D02*
X04556D01*
X04454Y03135D02*
X04454Y03134D01*
Y03116D02*
Y03134D01*
Y03116D02*
X04455Y03115D01*
X04454Y03135D02*
Y03143D01*
X04439Y03158D02*
X04454Y03143D01*
X04439Y03158D02*
Y0316D01*
X04099Y02722D02*
X04099Y02722D01*
G54D15*
X04645Y02918D03*
Y02957D03*
X03771Y02932D03*
Y02971D03*
X04594Y03134D03*
Y03095D03*
X04538Y03199D03*
Y0316D03*
X0449Y03217D03*
Y03178D03*
X0455Y0272D03*
Y0268D03*
X04594Y0293D03*
Y0297D03*
X04355Y0283D03*
Y02869D03*
X04594Y02874D03*
Y02835D03*
X04219Y03261D03*
Y033D03*
G54D16*
X04055Y03261D03*
Y03299D03*
Y03336D03*
X04164D03*
Y03299D03*
Y03261D03*
G54D17*
X04402Y03082D03*
Y03062D03*
Y03042D03*
Y03023D03*
Y03003D03*
X04547D03*
Y03023D03*
Y03042D03*
Y03062D03*
Y03082D03*
G54D18*
X04435Y0297D03*
X04455D03*
X04475D03*
X04494D03*
X04514D03*
Y03115D03*
X04494D03*
X04475D03*
X04455D03*
X04435D03*
G54D19*
X04475Y03042D03*
G54D20*
X0437Y026D03*
X04409D03*
X0396Y03301D03*
X03999D03*
X044Y0316D03*
X04439D03*
X0447Y026D03*
X04509D03*
X04Y03252D03*
X03961D03*
G54D21*
X03922Y03167D03*
X03942D03*
X03961D03*
X03981D03*
X04001D03*
X0402D03*
X0404D03*
X0406D03*
X04079D03*
X04099D03*
X04119D03*
X04138D03*
X04158D03*
X04178D03*
X04197D03*
X04217D03*
Y02722D03*
X04197D03*
X04178D03*
X04158D03*
X04138D03*
X04119D03*
X04099D03*
X04079D03*
X0406D03*
X0404D03*
X0402D03*
X04001D03*
X03981D03*
X03961D03*
X03942D03*
X03922D03*
G54D22*
X04292Y03092D03*
Y03072D03*
Y03053D03*
Y03033D03*
Y03013D03*
Y02994D03*
Y02974D03*
Y02954D03*
Y02935D03*
Y02915D03*
Y02895D03*
Y02876D03*
Y02856D03*
Y02836D03*
Y02817D03*
Y02797D03*
X03847D03*
Y02817D03*
Y02836D03*
Y02856D03*
Y02876D03*
Y02895D03*
Y02915D03*
Y02935D03*
Y02954D03*
Y02974D03*
Y02994D03*
Y03013D03*
Y03033D03*
Y03053D03*
Y03072D03*
Y03092D03*
G54D23*
X04144Y03436D03*
X04118D03*
X04093D03*
X04067D03*
X04042D03*
G54D24*
X04132Y03543D03*
X04053D03*
G54D25*
X04517Y02896D03*
Y02833D03*
X04431Y02896D03*
Y02833D03*
G54D26*
X04636Y03049D03*
X04617D03*
X04597D03*
Y03015D03*
X04617D03*
X04636D03*
G54D27*
X04445Y02705D03*
G54D28*
X04405Y02767D03*
X04421D03*
X04437D03*
X04452D03*
X04468D03*
X04484D03*
Y02642D03*
X04468D03*
X04452D03*
X04437D03*
X04421D03*
X04405D03*
G54D29*
X04507Y02744D03*
Y02728D03*
Y02712D03*
Y02697D03*
Y02681D03*
Y02665D03*
X04382D03*
Y02681D03*
Y02697D03*
Y02712D03*
Y02728D03*
Y02744D03*
G54D30*
X04675Y03051D03*
G54D31*
X04727Y02992D03*
Y03109D03*
G54D32*
X04207Y03543D03*
G54D33*
X03979Y03543D03*
G54D34*
X04587Y03385D03*
X04537D03*
X04587Y03435D03*
X04537D03*
X04587Y03485D03*
X04537D03*
G54D35*
X03826Y03504D03*
G54D36*
X03876Y03504D03*
X03858Y03306D03*
Y03356D03*
X04342Y0335D03*
Y034D03*
Y0345D03*
X04708Y02734D03*
Y02784D03*
Y02834D03*
G54D37*
X03858Y03406D03*
X04342Y033D03*
X04708Y02884D03*
G54D38*
X03994Y03436D03*
X04191D03*
G54D39*
X03955Y03543D03*
X04231D03*
G54D40*
X03992Y02629D03*
G54D41*
X03892Y02629D03*
G54D42*
X04453Y03064D03*
X04496D03*
X04453Y03021D03*
X04496D03*
G54D43*
X04664Y02918D02*
X04693Y02947D01*
X04645Y02918D02*
X04664D01*
X04645Y02918D02*
X04645Y02918D01*
X03913Y03283D02*
Y03291D01*
Y03283D02*
X03914Y03283D01*
X03913Y03291D02*
X03951Y03329D01*
X03976*
X03978Y03331*
X03942Y03213D02*
X03963D01*
X03922Y03193D02*
X03942Y03213D01*
X03922Y03167D02*
Y03193D01*
X03922Y03167D02*
X03922Y03167D01*
X04491Y03178D02*
X04501Y03168D01*
X0449Y03178D02*
X04491D01*
X04488D02*
X0449D01*
X04475Y03165D02*
X04488Y03178D01*
X04475Y03115D02*
Y03165D01*
X04Y0325D02*
Y03251D01*
X03888Y03103D02*
X03899Y03114D01*
X03847Y03092D02*
X03847Y03092D01*
X03882*
X03888Y03098*
Y03103*
X03963Y03213D02*
X04Y0325D01*
G54D44*
X04594Y0297D02*
X046Y02963D01*
X04638*
X04645Y02957*
X04436Y0294D02*
Y02941D01*
X04455Y0296*
Y0297*
X04586Y03512D02*
X04603D01*
X04582Y03508D02*
X04586Y03512D01*
X0456Y03508D02*
X04582D01*
X04537Y03485D02*
X0456Y03508D01*
X04603Y03512D02*
X04634Y0348D01*
X04715*
X04739Y03457*
X03771Y0318D02*
X03957Y03366D01*
X03771Y02971D02*
Y0318D01*
X03957Y03366D02*
Y03369D01*
X03782Y0333D02*
X03858Y03406D01*
X03782Y03245D02*
Y0333D01*
X03895Y02944D02*
X039D01*
X03886Y02935D02*
X03895Y02944D01*
X03847Y02935D02*
X03886D01*
X03807Y02953D02*
X03808Y02954D01*
X03846*
X03847Y02954*
X03771Y02971D02*
X03773Y02973D01*
X03846*
X03847Y02974*
X04048Y02849D02*
X04049D01*
X04194Y02994*
X04292*
X04303Y03477D02*
X04494D01*
X04302Y03476D02*
X04303Y03477D01*
X04494D02*
X04537Y03435D01*
X04577Y0308D02*
X04577D01*
X04592Y03095*
X04594*
X04575Y03081D02*
X04577Y0308D01*
X04548Y03081D02*
X04575D01*
X04547Y03082D02*
X04548Y03081D01*
X04594Y0297D02*
X04596D01*
X04617Y0299*
Y03015*
X04597Y03044D02*
Y03049D01*
X04596Y03043D02*
X04597Y03044D01*
X04548Y03043D02*
X04596D01*
X04547Y03042D02*
X04548Y03043D01*
X04597Y03015D02*
Y03021D01*
X04595Y03023D02*
X04597Y03021D01*
X04547Y03023D02*
X04595D01*
G54D45*
X04453Y03064D02*
X04475Y03042D01*
X04417Y031D02*
X04453Y03064D01*
X04416Y03125D02*
X04417Y03123D01*
Y031D02*
Y03123D01*
X04001Y03302D02*
Y0334D01*
X03999Y03301D02*
X04001Y03302D01*
X03937Y03392D02*
X04033D01*
X04037Y03388*
X03873Y03456D02*
X03937Y03392D01*
X04155Y03345D02*
X04159Y0334D01*
X04164Y03336*
X0415Y03349D02*
X04155Y03345D01*
X04005Y03344D02*
X04012Y03337D01*
X03999Y03341D02*
Y0335D01*
Y03341D02*
X04001Y0334D01*
X03873Y03501D02*
X03876Y03504D01*
X03873Y03456D02*
Y03501D01*
X04144Y034D02*
X04146Y03402D01*
X04132Y03388D02*
X04144Y034D01*
X04146Y03354D02*
Y03402D01*
Y03354D02*
X0415Y03349D01*
Y0334D02*
Y03349D01*
Y0334D02*
X04155Y03336D01*
X04164*
X04012Y03337D02*
X04054D01*
X04055Y03336*
X04144Y034D02*
Y03436D01*
X04144Y03436*
X04037Y03388D02*
X04132D01*
X03999Y0335D02*
X04037Y03388D01*
X04054Y033D02*
X04055Y03299D01*
X04Y033D02*
X04054D01*
X03999Y03301D02*
X04Y033D01*
G54D46*
X04261Y03278D02*
X04263D01*
X04247Y03263D02*
X04261Y03278D01*
X0422Y03263D02*
X04247D01*
X04219Y03261D02*
X0422Y03263D01*
X04218Y03261D02*
X04219Y03261D01*
X04164Y03261D02*
X04218D01*
X04164Y03261D02*
X04164Y03261D01*
X04023Y03255D02*
X04027Y03259D01*
X04002Y03255D02*
X04023D01*
X04Y03253D02*
X04002Y03255D01*
X04Y03252D02*
Y03253D01*
X04027Y03259D02*
X04054D01*
X04055Y03261*
G54D47*
X04012Y02856D02*
X04069Y02913D01*
X03847Y02856D02*
X04012D01*
X03961Y02804D02*
X04018Y02861D01*
X03961Y02722D02*
Y02804D01*
X04069Y02913D02*
X04075D01*
X04254Y03092*
X04292*
X04292Y03092*
X03922Y03167D02*
X03922Y03167D01*
X03922Y03137D02*
Y03167D01*
X03899Y03114D02*
X03922Y03137D01*
G54D48*
X04056Y02758D02*
X04242D01*
X04026Y02768D02*
X04246D01*
X04001Y02742D02*
X04026Y02768D01*
X0404Y02742D02*
X04056Y02758D01*
X04242D02*
X04269Y02731D01*
X04246Y02768D02*
X04253Y02761D01*
X0404Y02722D02*
Y02742D01*
X04269Y02731D02*
X04332D01*
Y02734D02*
X04335D01*
X04332Y02731D02*
X04341Y02722D01*
Y02718D02*
Y02722D01*
X04297Y02761D02*
X04336D01*
X04361Y02786*
X04253Y02761D02*
X04297D01*
X04368Y02767D02*
X04405D01*
X04335Y02734D02*
X04368Y02767D01*
X04001Y02722D02*
Y02742D01*
X04361Y02786D02*
X0441D01*
X04421Y02775*
Y02767D02*
Y02775D01*
G54D49*
X04026Y03226D02*
X04035D01*
X04Y03251D02*
X04026Y03226D01*
X04Y03251D02*
Y03252D01*
G54D50*
X04261Y03231D03*
X04426Y03345D03*
X04693Y02947D03*
X04625Y02632D03*
X0475Y035D03*
Y029D03*
X0465Y033D03*
X046Y032D03*
X0465Y031D03*
X0435Y035D03*
X043Y026D03*
X0425Y035D03*
X042Y034D03*
X0425Y029D03*
X042Y026D03*
X041Y03D03*
Y028D03*
X04D03*
X039Y032D03*
X0395Y031D03*
Y029D03*
X039Y028D03*
X038Y034D03*
Y03D03*
Y028D03*
X0385Y027D03*
X038Y026D03*
X04396Y02929D03*
X04436Y0294D03*
X04322Y03131D03*
X04416Y03125D03*
X04739Y03457D03*
X04448Y03308D03*
X03914Y03283D03*
X03978Y03331D03*
X03957Y03369D03*
X04313Y03232D03*
X04263Y03278D03*
X03782Y03245D03*
X039Y02944D03*
X03807Y02953D03*
X04073Y02828D03*
X04048Y02849D03*
X04069Y02913D03*
X04302Y03476D03*
X0457Y0331D03*
X04577Y0308D03*
X04504Y03161D03*
X04365Y03045D03*
X04035Y03226D03*
X04364Y02986D03*
X04185Y0311D03*
X04365Y02955D03*
X0414Y0311D03*
X04341Y02718D03*
X04297Y02762D03*
X04235Y0274D03*
X04061Y0268D03*
X0416Y0303D03*
X04365Y03015D03*
X04425Y02585D03*
X0457Y0267D03*
X04515Y0264D03*
M02*