%FSTAX23Y23*%
%MOIN*%
%SFA1B1*%

%IPPOS*%
%ADD13C,0.005000*%
%ADD35R,0.039370X0.039370*%
%ADD36C,0.039370*%
%ADD37R,0.039370X0.039370*%
%ADD38O,0.049212X0.037401*%
%ADD39O,0.035433X0.061024*%
%ADD40C,0.059055*%
%ADD41R,0.059055X0.059055*%
%ADD42C,0.019685*%
%ADD43C,0.010000*%
%ADD44C,0.008000*%
%ADD46C,0.020000*%
%ADD48C,0.006000*%
%ADD50C,0.024000*%
%ADD51C,0.045000*%
%ADD52C,0.050000*%
%LNcore_prototype_1-1*%
%LPD*%
G36*
X03893Y03417D02*
Y03347D01*
X03894Y03342*
X03897Y03337*
X03985Y03249*
X03989Y03246*
X03995Y03245*
X03995*
X04007Y03234*
X04007Y03233*
X04006Y03226*
Y02946*
X04007Y02938*
X0401Y02931*
X04014Y02925*
X0412Y02819*
X04124Y02815*
X04179Y02759*
X04185Y02755*
X04189Y02753*
X04281Y02661*
X04286Y02657*
X04293Y02654*
X043Y02653*
X04496*
X04499Y02648*
X04497Y02646*
X04105*
X04076Y02675*
X04077Y0268*
X04075Y02686*
X04072Y02692*
X04067Y02695*
X04061Y02696*
X04055Y02695*
X0405Y02692*
X04046Y02686*
X04045Y0268*
X04046Y02674*
X0405Y02669*
X04055Y02666*
X04061Y02665*
X04066Y02666*
X04097Y02635*
X04102Y02633*
X045*
X04503Y02628*
X04508Y02625*
X04515Y02624*
X04521Y02625*
X04526Y02628*
X04529Y02633*
X0453Y0264*
X04529Y02646*
X04527Y02648*
X0453Y02653*
X04543*
Y02622*
X04532Y02611*
X04425*
X04418Y0261*
X04411Y02607*
X04406Y02603*
X04402Y02598*
X04399Y02591*
X04398Y02585*
X04399Y02578*
X04402Y02571*
X04406Y02566*
X0441Y02563*
X04408Y02558*
X0384*
X0384Y02558*
X03823Y0256*
X03806Y02565*
X0379Y02573*
X03777Y02585*
X03765Y02598*
X03757Y02614*
X03752Y02631*
X03751Y02644*
X0375Y02649*
X0375Y02652*
X03749Y02652*
Y02992*
X03754Y02994*
X03792Y02957*
X03791Y02953*
X03792Y02946*
X03795Y02941*
X038Y02938*
X03807Y02937*
X03813Y02938*
X03818Y02941*
X03821Y02946*
X03822Y02953*
X03821Y02959*
X03818Y02964*
X03813Y02967*
X03807Y02968*
X03802Y02967*
X03764Y03006*
Y03234*
X03769Y03235*
X0377Y03233*
X03775Y0323*
X03782Y03229*
X03786Y0323*
X03892Y03123*
Y02957*
X03888Y02955*
X03885Y0295*
X03884Y02944*
X03885Y02937*
X03888Y02932*
X03893Y02929*
X039Y02928*
X03906Y02929*
X03911Y02932*
X03914Y02937*
X03915Y02944*
X03914Y0295*
X03911Y02955*
X03907Y02957*
Y03127*
X03907Y03129*
X03905Y03132*
X03796Y0324*
X03797Y03245*
X03796Y03251*
X03793Y03256*
X03788Y03259*
X03782Y0326*
X0378Y0326*
X03777Y03265*
X03834Y03321*
X03838Y03318*
X03836Y03315*
X03834Y03306*
X03836Y03296*
X03841Y03289*
X03848Y03284*
X03858Y03282*
X03867Y03284*
X03872Y03287*
X0388Y03278*
X03883Y03276*
X03887Y03276*
X03899*
X03902Y03271*
X03907Y03268*
X03914Y03267*
X0392Y03268*
X03925Y03271*
X03928Y03276*
X03929Y03283*
X03928Y03289*
X03925Y03294*
X0392Y03297*
X03914Y03298*
X03907Y03297*
X03902Y03294*
X03902Y03293*
X0389*
X03881Y03303*
X03881Y03306*
X03879Y03315*
X03874Y03322*
X03867Y03327*
X03863Y03328*
Y03333*
X03867Y03334*
X03874Y03339*
X03879Y03346*
X03881Y03356*
X03879Y03365*
X03874Y03372*
X03867Y03377*
X03867Y03382*
X03881*
Y03422*
X03886Y03424*
X03893Y03417*
G37*
G36*
X0384Y0359D02*
X04458D01*
X04459Y03585*
X04448Y03583*
X04436Y03578*
X04426Y0357*
X04418Y0356*
X04413Y03548*
X04411Y03535*
X04413Y03521*
X04418Y03509*
X04426Y03499*
X04436Y03491*
X04448Y03486*
X04462Y03484*
X04475Y03486*
X04487Y03491*
X04497Y03499*
X04505Y03509*
X0451Y03521*
X04512Y03535*
X0451Y03548*
X04505Y0356*
X04497Y0357*
X04487Y03578*
X04475Y03583*
X04464Y03585*
X04465Y0359*
X04658*
X04659Y03585*
X04648Y03583*
X04636Y03578*
X04626Y0357*
X04618Y0356*
X04613Y03548*
X04611Y03535*
X04613Y03521*
X04618Y03509*
X04626Y03499*
X04636Y03491*
X04648Y03486*
X04662Y03484*
X04675Y03486*
X04687Y03491*
X04697Y03499*
X04705Y03509*
X0471Y03521*
X04712Y03535*
X0471Y03548*
X04705Y0356*
X04697Y0357*
X04687Y03578*
X04675Y03583*
X04664Y03585*
X04665Y0359*
X04701*
X04701Y0359*
X04718Y03588*
X04735Y03583*
X04751Y03575*
X04764Y03563*
X04776Y0355*
X04784Y03534*
X04789Y03517*
X04791Y035*
X04791Y03499*
Y02648*
X04791Y02648*
X04789Y02631*
X04784Y02614*
X04776Y02598*
X04764Y02585*
X04751Y02573*
X04735Y02565*
X04718Y0256*
X04701Y02558*
X047Y02558*
X0456*
X04558Y02563*
X04562Y02566*
X04588Y02592*
Y02592*
X04592Y02598*
X04595Y02604*
X04596Y02611*
Y0267*
X04595Y02676*
X04592Y02683*
X04588Y02688*
X04578Y02698*
X04573Y02702*
X04566Y02705*
X0456Y02706*
X04363*
X0436Y02711*
X0436Y02711*
X04579*
X04592Y02698*
X04594Y02696*
X04597Y02696*
X04727*
X04729Y02696*
X04731Y02698*
X04751Y02718*
X04753Y0272*
X04753Y02723*
Y02763*
X04753Y02765*
X04751Y02767*
X0473Y02788*
X04729Y02793*
X04724Y028*
X04717Y02805*
X04713Y02806*
Y02811*
X04717Y02812*
X04724Y02817*
X04729Y02824*
X04731Y02834*
X04729Y02843*
X04724Y0285*
X04717Y02855*
X04717Y0286*
X04731*
Y02907*
X04684*
Y0286*
X04698*
X04698Y02855*
X04691Y0285*
X04686Y02843*
X04684Y02834*
X04686Y02824*
X04691Y02817*
X04698Y02812*
X04702Y02811*
Y02806*
X04698Y02805*
X04691Y028*
X04686Y02793*
X04684Y02784*
X04686Y02774*
X04691Y02767*
X04698Y02762*
X04702Y02761*
Y02756*
X04698Y02755*
X04691Y0275*
X04686Y02743*
X04325*
X04311Y02756*
X04312Y02762*
X04311Y02768*
X04308Y02773*
X04303Y02776*
X04302Y02776*
X043Y02782*
X04376Y02857*
X0441*
X04416Y02858*
X04423Y02861*
X04428Y02865*
X04487Y02924*
X0468*
X04687Y02921*
X04693Y0292*
X047Y02921*
X04706Y02924*
X04712Y02928*
X04716Y02933*
X04719Y0294*
X0472Y02947*
X04719Y02953*
X04716Y0296*
X04712Y02965*
X04708Y02968*
X04703Y02973*
X04697Y02975*
X0469Y02976*
X0469*
X04546*
X04544Y02981*
X04588Y03025*
X04592Y0303*
X04595Y03037*
X04596Y03043*
Y03066*
X04758Y03228*
X04762Y03233*
X04765Y0324*
X04766Y03247*
Y03456*
X04765Y03462*
X04762Y03469*
X04758Y03474*
X04757Y03475*
X04752Y03479*
X04745Y03482*
X04739Y03483*
X04732Y03482*
X04725Y03479*
X0472Y03475*
X04716Y0347*
X04713Y03463*
X04712Y03457*
X04713Y0345*
X04713Y03449*
Y03429*
X04708Y03428*
X04705Y03435*
X04697Y03445*
X04687Y03453*
X04675Y03458*
X04662Y0346*
X04648Y03458*
X04636Y03453*
X04626Y03445*
X04618Y03435*
X04613Y03423*
X04611Y0341*
X04613Y03396*
X04618Y03384*
X04626Y03374*
X04636Y03366*
X04648Y03361*
X04662Y03359*
X04675Y03361*
X04687Y03366*
X04697Y03374*
X04705Y03384*
X04708Y03391*
X04713Y0339*
Y03257*
X04576Y0312*
X04529Y03166*
X04529Y03167*
X04526Y03174*
X04522Y03179*
X04517Y03183*
X0451Y03186*
X04504Y03187*
X04497Y03186*
X0449Y03183*
X04485Y03179*
X04481Y03174*
X04478Y03167*
X04477Y03161*
Y03155*
X04478Y03148*
X04481Y03141*
X04485Y03136*
X04543Y03078*
X04543Y03077*
Y03054*
X04458Y02968*
Y02968*
X04443Y02953*
X04442Y02954*
X04436Y02955*
X04429Y02954*
X04424Y02951*
X04421Y02946*
X0442Y0294*
X04421Y02933*
X04422Y02932*
X04399Y0291*
X04365*
X04358Y02909*
X04352Y02906*
X04346Y02902*
X0425Y02806*
X04214*
X04167Y02852*
X04164Y02856*
X04063Y02957*
Y03226*
X04062Y03233*
X04059Y0324*
X04055Y03246*
X04049Y0325*
X04042Y03253*
X04035Y03254*
X04027Y03253*
X04026Y03253*
X04016Y03264*
X04018Y03269*
X04231*
X04242Y03257*
X04248Y03253*
X04254Y0325*
X04254Y03246*
X04254Y03245*
X04249Y03242*
X04246Y03237*
X04245Y03231*
X04246Y03224*
X04249Y03219*
X04254Y03216*
X04261Y03215*
X04267Y03216*
X04272Y03219*
X04275Y03224*
X04275Y03225*
X04298*
X04301Y0322*
X04306Y03217*
X04313Y03216*
X04319Y03217*
X04324Y0322*
X04327Y03225*
X04328Y03232*
X04327Y03238*
X04324Y03243*
X04319Y03246*
X04313Y03247*
X04306Y03246*
X04301Y03243*
X04298Y03238*
X04274*
X04272Y03242*
X04268Y03244*
X04268Y03249*
X04268Y0325*
X0427Y0325*
X04277Y03253*
X04283Y03257*
X04287Y03263*
X0429Y0327*
X04291Y03278*
X0429Y03285*
X04287Y03292*
X04283Y03298*
X04263Y03318*
X04257Y03322*
X0425Y03325*
X04243Y03326*
X04022*
X03998Y03351*
X03992Y03355*
X03985Y03358*
X03978Y03359*
X03975Y03359*
X03973Y0336*
X03971Y03363*
X03972Y03369*
X03973Y03369*
X04245*
X04247Y03369*
X0425Y03371*
X0429Y03411*
Y03411*
X04292Y03414*
X04292Y03417*
Y03455*
X04298Y03461*
X04302Y0346*
X04308Y03461*
X04313Y03465*
X04317Y0347*
X04318Y03476*
X04317Y03482*
X04313Y03487*
X04308Y03491*
X04302Y03492*
X04296Y03491*
X04291Y03487*
X04287Y03482*
X04286Y03476*
X04287Y03472*
X04279Y03464*
X04277Y03461*
X04277Y03459*
Y0342*
X04241Y03384*
X03969*
X03966Y03384*
X03964Y03382*
X03963Y03383*
X03957Y03384*
X0395Y03383*
X03945Y0338*
X03942Y03375*
X03941Y03369*
X03942Y03362*
X03945Y03357*
X0395Y03354*
X03953Y03353*
X03955Y03348*
X03953Y03345*
X0395Y03338*
X03949Y03331*
X03945Y03329*
X0392Y03353*
Y03423*
X03919Y03428*
X03916Y03432*
X03873Y03475*
X03874Y03478*
X03876Y0348*
X03885Y03482*
X03892Y03487*
X03897Y03494*
X03899Y03504*
X03897Y03513*
X03892Y0352*
X03885Y03525*
X03876Y03527*
X03866Y03525*
X03859Y0352*
X03854Y03513*
X03849Y03513*
Y03527*
X03802*
Y0348*
X03829*
X03876Y03434*
X03874Y03429*
X03834*
Y03382*
X03848*
X03848Y03377*
X03841Y03372*
X03836Y03365*
X03834Y03356*
X03836Y03346*
X03836Y03345*
X03754Y03263*
X03749Y03265*
Y035*
X03749Y035*
X03751Y03517*
X03756Y03534*
X03764Y0355*
X03776Y03563*
X03789Y03575*
X03805Y03583*
X03822Y03588*
X03839Y0359*
X0384Y0359*
G37*
G36*
X04686Y02724D02*
X04691Y02717D01*
X04695Y02714*
X04693Y02709*
X04599*
X04586Y02722*
X04584Y02724*
X04582Y02724*
X0436*
X0436Y02724*
X04363Y02729*
X04685*
X04686Y02724*
G37*
%LNcore_prototype_1-2*%
%LPC*%
G36*
X04048Y02864D02*
X04041Y02863D01*
X04036Y0286*
X04033Y02855*
X04006*
X04001Y02853*
X03887Y02739*
X03885Y02735*
Y02662*
X03858*
Y02595*
X03925*
Y02662*
X03898*
Y02732*
X04008Y02842*
X04033*
X04036Y02837*
X04041Y02834*
X04048Y02833*
X04053Y02834*
X04055Y02832*
X04057Y0283*
X04057Y02828*
X04058Y02822*
X03987Y02751*
X03985Y02747*
Y02661*
X03983Y02661*
X03975Y02657*
X03968Y02652*
X03963Y02645*
X03959Y02637*
X03958Y02629*
X03959Y0262*
X03963Y02612*
X03968Y02605*
X03975Y026*
X03983Y02596*
X03992Y02595*
X04Y02596*
X04008Y026*
X04015Y02605*
X0402Y02612*
X04024Y0262*
X04025Y02629*
X04024Y02637*
X0402Y02645*
X04015Y02652*
X04008Y02657*
X04Y02661*
X03998Y02661*
Y02744*
X04067Y02813*
X04073Y02812*
X04079Y02813*
X04084Y02816*
X04087Y02821*
X04088Y02828*
X04087Y02834*
X04084Y02839*
X04079Y02842*
X04073Y02843*
X04067Y02842*
X04065Y02844*
X04063Y02846*
X04063Y02849*
X04062Y02855*
X04059Y0286*
X04054Y02863*
X04048Y02864*
G37*
G36*
X04562Y03558D02*
X04553Y03556D01*
X04545Y03551*
X0454Y03543*
X04538Y03535*
X0454Y03526*
X04545Y03518*
X04553Y03513*
X04562Y03511*
X0457Y03513*
X04578Y03518*
X04583Y03526*
X04585Y03535*
X04583Y03543*
X04578Y03551*
X0457Y03556*
X04562Y03558*
G37*
G36*
X04231Y03577D02*
X04222Y03575D01*
X04215Y03571*
X04211Y03564*
X04209Y03555*
Y0353*
X04211Y03521*
X04215Y03514*
X04222Y0351*
X04231Y03508*
X04239Y0351*
X04246Y03514*
X0425Y03521*
X04252Y0353*
Y03555*
X0425Y03564*
X04246Y03571*
X04239Y03575*
X04231Y03577*
G37*
G36*
X03955D02*
X03947Y03575D01*
X0394Y03571*
X03935Y03564*
X03933Y03555*
Y0353*
X03935Y03521*
X0394Y03514*
X03947Y0351*
X03955Y03508*
X03963Y0351*
X0397Y03514*
X03975Y03521*
X03977Y0353*
Y03555*
X03975Y03564*
X0397Y03571*
X03963Y03575*
X03955Y03577*
G37*
G36*
X04197Y03459D02*
X04185D01*
X04177Y03457*
X04169Y03452*
X04164Y03445*
X04163Y03436*
X04164Y03428*
X04169Y0342*
X04177Y03415*
X04185Y03414*
X04197*
X04206Y03415*
X04213Y0342*
X04218Y03428*
X0422Y03436*
X04218Y03445*
X04215Y0345*
X04215Y0345*
X04214Y0345*
X04213Y03452*
X04206Y03457*
X04197Y03459*
G37*
G36*
X04D02*
X03988D01*
X0398Y03457*
X03972Y03452*
X03967Y03445*
X03966Y03436*
X03967Y03428*
X03972Y0342*
X0398Y03415*
X03988Y03414*
X04*
X04009Y03415*
X04016Y0342*
X04018Y03423*
X04021Y03424*
X04022Y03425*
X04023Y03428*
Y03447*
X04022Y0345*
X04019Y03451*
X04017*
X04016Y03452*
X04009Y03457*
X04Y03459*
G37*
G36*
X04462Y0346D02*
X04448Y03458D01*
X04436Y03453*
X04426Y03445*
X04418Y03435*
X04413Y03423*
X04411Y0341*
X04413Y03396*
X04418Y03384*
X04426Y03374*
X04436Y03366*
X04448Y03361*
X04462Y03359*
X04475Y03361*
X04487Y03366*
X04497Y03374*
X04505Y03384*
X0451Y03396*
X04512Y0341*
X0451Y03423*
X04505Y03435*
X04497Y03445*
X04487Y03453*
X04475Y03458*
X04462Y0346*
G37*
G36*
X04602Y03358D02*
X04593Y03356D01*
X04585Y03351*
X0458Y03343*
X04578Y03335*
X04579Y03328*
X04577Y03325*
X04575Y03324*
X0457Y03325*
X04563Y03324*
X04558Y03321*
X04555Y03316*
X04555Y03315*
X04542*
X04539Y0332*
X04543Y03326*
X04545Y03335*
X04543Y03343*
X04538Y03351*
X0453Y03356*
X04522Y03358*
X04513Y03356*
X04505Y03351*
X045Y03343*
X04498Y03335*
X045Y03326*
X04504Y0332*
X04501Y03315*
X04461*
X04459Y03319*
X04454Y03322*
X04448Y03323*
X04441Y03322*
X04436Y03319*
X04433Y03314*
X04432Y03308*
X04433Y03301*
X04436Y03296*
X04441Y03293*
X04448Y03292*
X04454Y03293*
X04459Y03296*
X04462Y03301*
X04462Y03302*
X04556*
X04558Y03298*
X04563Y03295*
X0457Y03294*
X04576Y03295*
X04581Y03298*
X04584Y03303*
X04585Y0331*
X04585Y03312*
X04589Y03315*
X04593Y03313*
X04602Y03311*
X0461Y03313*
X04618Y03318*
X04623Y03326*
X04625Y03335*
X04623Y03343*
X04618Y03351*
X0461Y03356*
X04602Y03358*
G37*
G36*
X04342Y03473D02*
X04332Y03471D01*
X04325Y03466*
X0432Y03459*
X04318Y0345*
X0432Y0344*
X04325Y03433*
X04332Y03428*
X04336Y03427*
Y03422*
X04332Y03421*
X04325Y03416*
X0432Y03409*
X04318Y034*
X0432Y0339*
X04325Y03383*
X04332Y03378*
X04336Y03377*
Y03372*
X04332Y03371*
X04325Y03366*
X0432Y03359*
X04318Y0335*
X0432Y0334*
X04325Y03333*
X04332Y03328*
X04332Y03323*
X04318*
Y03276*
X04335*
Y03223*
X04228Y03116*
X04199*
X04196Y03121*
X04191Y03124*
X04185Y03125*
X04178Y03124*
X04173Y03121*
X0417Y03116*
X04169Y0311*
X0417Y03103*
X04173Y03098*
X04178Y03095*
X04185Y03094*
X0419Y03095*
X04245Y0304*
X0425Y03038*
X0435*
X04353Y03033*
X04355Y03033*
Y03026*
X04353Y03026*
X0435Y03021*
X04207*
X04146Y03082*
Y03095*
X04151Y03098*
X04154Y03103*
X04155Y0311*
X04154Y03116*
X04151Y03121*
X04146Y03124*
X0414Y03125*
X04133Y03124*
X04128Y03121*
X04125Y03116*
X04124Y0311*
X04125Y03103*
X04128Y03098*
X04133Y03095*
Y0308*
X04135Y03075*
X0416Y0305*
X0416Y0305*
X04158Y03045*
X04153Y03044*
X04148Y03041*
X04145Y03036*
X04144Y0303*
X04145Y03023*
X04148Y03018*
X04153Y03015*
X0416Y03014*
X04165Y03015*
X04199Y02981*
X04204Y02979*
X04349*
X04352Y02974*
X04355Y02973*
X04355Y02967*
X04353Y02966*
X0435Y02961*
X04349Y02955*
X0435Y02948*
X04353Y02943*
X04358Y0294*
X04365Y02939*
X04371Y0294*
X04376Y02943*
X04379Y02948*
X0438Y02955*
X04379Y0296*
X04399Y0298*
X04401Y02985*
Y03434*
X04399Y03438*
X04383Y03454*
X04379Y03456*
X04364*
X04363Y03459*
X04358Y03466*
X04351Y03471*
X04342Y03473*
G37*
%LNcore_prototype_1-3*%
%LPD*%
G36*
X04388Y03431D02*
Y03319D01*
X04383Y03317*
X04362Y03338*
X04363Y0334*
X04365Y0335*
X04363Y03359*
X04358Y03366*
X04351Y03371*
X04347Y03372*
Y03377*
X04351Y03378*
X04358Y03383*
X04363Y0339*
X04365Y034*
X04363Y03409*
X04358Y03416*
X04351Y03421*
X04347Y03422*
Y03427*
X04351Y03428*
X04358Y03433*
X04363Y0344*
X04364Y03443*
X04376*
X04388Y03431*
G37*
G36*
X04376Y03306D02*
Y03061D01*
X04371Y03059*
X04371Y03059*
X04365Y0306*
X04358Y03059*
X04353Y03056*
X0435Y03051*
X04252*
X04205Y03098*
X04207Y03103*
X04231*
X04235Y03105*
X04346Y03216*
X04348Y03221*
Y03276*
X04365*
Y03311*
X04369Y03313*
X04376Y03306*
G37*
G36*
X042Y0301D02*
X04205Y03008D01*
X0435*
X04353Y03003*
X04353Y03003*
X04353Y02997*
X04352Y02997*
X04349Y02992*
X04206*
X04175Y03023*
X04176Y03028*
X04181Y03029*
X042Y0301*
G37*
G54D13*
X04261Y03231D02*
X04262Y03232D01*
X04313*
X04395Y02985D02*
Y03434D01*
X04379Y0345D02*
X04395Y03434D01*
X04365Y02955D02*
X04395Y02985D01*
X04383Y03028D02*
Y03309D01*
X0437Y03015D02*
X04383Y03028D01*
X04342Y0335D02*
X04383Y03309D01*
X04365Y03015D02*
X0437D01*
X04342Y0345D02*
X04379D01*
X04449Y03309D02*
X04569D01*
X04448Y03308D02*
X04449Y03309D01*
X04569D02*
X0457Y0331D01*
X03992Y02629D02*
Y02747D01*
X04073Y02828*
X04006Y02849D02*
X04048D01*
X03892Y02735D02*
X04006Y02849D01*
X03892Y02629D02*
Y02735D01*
X04072Y02828D02*
X04073D01*
X04342Y03221D02*
Y033D01*
X04231Y0311D02*
X04342Y03221D01*
X0425Y03045D02*
X04365D01*
X04204Y02986D02*
X04364D01*
X0416Y0303D02*
X04204Y02986D01*
X04185Y0311D02*
X04231D01*
X04185D02*
X0425Y03045D01*
X04205Y03015D02*
X04365D01*
X0414Y0308D02*
X04205Y03015D01*
X0414Y0308D02*
Y0311D01*
X04102Y0264D02*
X04515D01*
X04061Y0268D02*
X04102Y0264D01*
G54D35*
X03826Y03504D03*
G54D36*
X03876Y03504D03*
X03858Y03306D03*
Y03356D03*
X04342Y0335D03*
Y034D03*
Y0345D03*
X04708Y02734D03*
Y02784D03*
Y02834D03*
G54D37*
X03858Y03406D03*
X04342Y033D03*
X04708Y02884D03*
G54D38*
X03994Y03436D03*
X04191D03*
G54D39*
X03955Y03543D03*
X04231D03*
G54D40*
X03992Y02629D03*
G54D41*
X03892Y02629D03*
G54D42*
X04453Y03064D03*
X04496D03*
X04453Y03021D03*
X04496D03*
G54D43*
X03912Y03284D02*
X03914Y03283D01*
X03887Y03284D02*
X03912D01*
X03865Y03306D02*
X03887Y03284D01*
X03858Y03306D02*
X03865D01*
G54D44*
X03969Y03377D02*
X04245D01*
X03961Y03369D02*
X03969Y03377D01*
X03957Y03369D02*
X03961D01*
X04245Y03377D02*
X04285Y03417D01*
X039Y02944D02*
Y03127D01*
X03782Y03245D02*
X039Y03127D01*
X03757Y03255D02*
X03858Y03356D01*
X03757Y03003D02*
Y03255D01*
Y03003D02*
X03807Y02953D01*
X04285Y03417D02*
Y03459D01*
X04302Y03476*
G54D46*
X03907Y03347D02*
Y03423D01*
Y03347D02*
X03995Y03259D01*
X04001*
X04035Y03226*
X03826Y03504D02*
X03907Y03423D01*
G54D48*
X04727Y02703D02*
X04747Y02723D01*
X04597Y02703D02*
X04727D01*
X04747Y02723D02*
Y02763D01*
X04582Y02718D02*
X04597Y02703D01*
X04341Y02718D02*
X04582D01*
X04322Y02736D02*
X04705D01*
X04297Y02762D02*
X04322Y02736D01*
X04705D02*
X04708Y02734D01*
X04726Y02784D02*
X04747Y02763D01*
X04708Y02784D02*
X04726D01*
G54D50*
X04261Y03231D03*
X04426Y03345D03*
X04693Y02947D03*
X04625Y02632D03*
X0475Y035D03*
Y029D03*
X0465Y033D03*
X046Y032D03*
X0465Y031D03*
X0435Y035D03*
X043Y026D03*
X0425Y035D03*
X042Y034D03*
X0425Y029D03*
X042Y026D03*
X041Y03D03*
Y028D03*
X04D03*
X039Y032D03*
X0395Y031D03*
Y029D03*
X039Y028D03*
X038Y034D03*
Y03D03*
Y028D03*
X0385Y027D03*
X038Y026D03*
X04396Y02929D03*
X04436Y0294D03*
X04322Y03131D03*
X04416Y03125D03*
X04739Y03457D03*
X04448Y03308D03*
X03914Y03283D03*
X03978Y03331D03*
X03957Y03369D03*
X04313Y03232D03*
X04263Y03278D03*
X03782Y03245D03*
X039Y02944D03*
X03807Y02953D03*
X04073Y02828D03*
X04048Y02849D03*
X04069Y02913D03*
X04302Y03476D03*
X0457Y0331D03*
X04577Y0308D03*
X04504Y03161D03*
X04365Y03045D03*
X04035Y03226D03*
X04364Y02986D03*
X04185Y0311D03*
X04365Y02955D03*
X0414Y0311D03*
X04341Y02718D03*
X04297Y02762D03*
X04235Y0274D03*
X04061Y0268D03*
X0416Y0303D03*
X04365Y03015D03*
X04425Y02585D03*
X0457Y0267D03*
X04515Y0264D03*
G54D51*
X04476Y0295D02*
X0469D01*
X04693Y02947*
X04476Y0295D02*
X0457Y03043D01*
X0441Y02884D02*
X04476Y0295D01*
X0457Y03043D02*
Y03077D01*
X042Y0278D02*
X043Y0268D01*
X0457Y03077D02*
X0474Y03247D01*
X04365Y02884D02*
X0441D01*
X04739Y03457D02*
X0474Y03456D01*
Y03247D02*
Y03456D01*
X04504Y03155D02*
X0457Y03089D01*
X04504Y03155D02*
Y03161D01*
X04261Y0278D02*
X04365Y02884D01*
X042Y0278D02*
X04261D01*
X0456Y0268D02*
X0457Y0267D01*
X043Y0268D02*
X0456D01*
X04543Y02585D02*
X0457Y02611D01*
Y0267*
X04425Y02585D02*
X04543D01*
G54D52*
X04035Y02946D02*
X04144Y02836D01*
X04011Y03298D02*
X04243D01*
X03978Y03331D02*
X04011Y03298D01*
X04243D02*
X04263Y03278D01*
X04144Y02835D02*
X042Y0278D01*
X04144Y02835D02*
Y02836D01*
X04035Y02946D02*
Y03226D01*
M02*