%FSTAX23Y23*%
%MOIN*%
%SFA1B1*%

%IPPOS*%
%ADD15R,0.027559X0.023622*%
%ADD16R,0.041339X0.023622*%
%ADD17O,0.027559X0.009843*%
%ADD18O,0.009843X0.027559*%
%ADD19R,0.102362X0.102362*%
%ADD20R,0.023622X0.027559*%
%ADD21O,0.011811X0.051181*%
%ADD22O,0.051181X0.011811*%
%ADD23R,0.015748X0.053150*%
%ADD24R,0.059055X0.061024*%
%ADD25R,0.055118X0.047244*%
%ADD26R,0.009843X0.021654*%
%ADD27R,0.066929X0.060630*%
%ADD28O,0.007874X0.025591*%
%ADD29O,0.025591X0.007874*%
%ADD30R,0.041339X0.039370*%
%ADD31R,0.086614X0.041339*%
%ADD32R,0.047244X0.061024*%
%ADD33R,0.047244X0.061024*%
%LNcore_prototype_1-1*%
%LPD*%
G54D15*
X04645Y02918D03*
Y02957D03*
X03771Y02932D03*
Y02971D03*
X04594Y03134D03*
Y03095D03*
X04538Y03199D03*
Y0316D03*
X0449Y03217D03*
Y03178D03*
X0455Y0272D03*
Y0268D03*
X04594Y0293D03*
Y0297D03*
X04355Y0283D03*
Y02869D03*
X04594Y02874D03*
Y02835D03*
X04219Y03261D03*
Y033D03*
G54D16*
X04055Y03261D03*
Y03299D03*
Y03336D03*
X04164D03*
Y03299D03*
Y03261D03*
G54D17*
X04402Y03082D03*
Y03062D03*
Y03042D03*
Y03023D03*
Y03003D03*
X04547D03*
Y03023D03*
Y03042D03*
Y03062D03*
Y03082D03*
G54D18*
X04435Y0297D03*
X04455D03*
X04475D03*
X04494D03*
X04514D03*
Y03115D03*
X04494D03*
X04475D03*
X04455D03*
X04435D03*
G54D19*
X04475Y03042D03*
G54D20*
X0437Y026D03*
X04409D03*
X0396Y03301D03*
X03999D03*
X044Y0316D03*
X04439D03*
X0447Y026D03*
X04509D03*
X04Y03252D03*
X03961D03*
G54D21*
X03922Y03167D03*
X03942D03*
X03961D03*
X03981D03*
X04001D03*
X0402D03*
X0404D03*
X0406D03*
X04079D03*
X04099D03*
X04119D03*
X04138D03*
X04158D03*
X04178D03*
X04197D03*
X04217D03*
Y02722D03*
X04197D03*
X04178D03*
X04158D03*
X04138D03*
X04119D03*
X04099D03*
X04079D03*
X0406D03*
X0404D03*
X0402D03*
X04001D03*
X03981D03*
X03961D03*
X03942D03*
X03922D03*
G54D22*
X04292Y03092D03*
Y03072D03*
Y03053D03*
Y03033D03*
Y03013D03*
Y02994D03*
Y02974D03*
Y02954D03*
Y02935D03*
Y02915D03*
Y02895D03*
Y02876D03*
Y02856D03*
Y02836D03*
Y02817D03*
Y02797D03*
X03847D03*
Y02817D03*
Y02836D03*
Y02856D03*
Y02876D03*
Y02895D03*
Y02915D03*
Y02935D03*
Y02954D03*
Y02974D03*
Y02994D03*
Y03013D03*
Y03033D03*
Y03053D03*
Y03072D03*
Y03092D03*
G54D23*
X04144Y03436D03*
X04118D03*
X04093D03*
X04067D03*
X04042D03*
G54D24*
X04132Y03543D03*
X04053D03*
G54D25*
X04517Y02896D03*
Y02833D03*
X04431Y02896D03*
Y02833D03*
G54D26*
X04636Y03049D03*
X04617D03*
X04597D03*
Y03015D03*
X04617D03*
X04636D03*
G54D27*
X04445Y02705D03*
G54D28*
X04405Y02767D03*
X04421D03*
X04437D03*
X04452D03*
X04468D03*
X04484D03*
Y02642D03*
X04468D03*
X04452D03*
X04437D03*
X04421D03*
X04405D03*
G54D29*
X04507Y02744D03*
Y02728D03*
Y02712D03*
Y02697D03*
Y02681D03*
Y02665D03*
X04382D03*
Y02681D03*
Y02697D03*
Y02712D03*
Y02728D03*
Y02744D03*
G54D30*
X04675Y03051D03*
G54D31*
X04727Y02992D03*
Y03109D03*
G54D32*
X04207Y03543D03*
G54D33*
X03979Y03543D03*
M02*